<svg xmlns="http://www.w3.org/2000/svg" width="1170.405" height="606.043" viewBox="0 0 1170.405 606.043">
  <g id="_404" data-name="404" transform="translate(294 112.327)">
    <g id="Background_Complete" data-name="Background Complete" transform="translate(0 54.953)">
      <g id="Group_52353" data-name="Group 52353">
        <path id="Union_42" data-name="Union 42" d="M11136.174,1917.411c-6.129.236-47.866.1-87.908-.032-39.611-.13-77.565-.261-77.767-.034-.062.173-.094-5.86-.094-11.893,0-6.067.031-12.137.094-11.885l66.021,10,28.659-10,7.259,10,17.319-12.855,16.185,14.834,25.521-20.394,4.712,5.762,4.708-5.762,25.525,20.394,16.185-14.834,17.316,12.855,7.261-10,28.659,10,66.021-10c.063-.252.091,5.818.091,11.885,0,6.033-.031,12.066-.091,11.893-.2-.227-38.158-.1-77.769.034-24.09.08-48.8.161-65.99.161C11146.7,1917.54,11138.615,1917.5,11136.174,1917.411Z" transform="translate(-11263.999 -1534.696)" fill="#e0e2ee"/>
        <path id="Union_51" data-name="Union 51" d="M11136.174,1917.411c-6.129.236-47.866.1-87.908-.032-39.611-.13-77.565-.261-77.767-.034-.062.173-.094-5.86-.094-11.893,0-6.067.031-12.137.094-11.885l66.021,10,28.659-10,7.259,10,17.319-12.855,16.185,14.834,25.521-20.394,4.712,5.762,4.708-5.762,25.525,20.394,16.185-14.834,17.316,12.855,7.261-10,28.659,10,66.021-10c.063-.252.091,5.818.091,11.885,0,6.033-.031,12.066-.091,11.893-.2-.227-38.158-.1-77.769.034-24.09.08-48.8.161-65.99.161C11146.7,1917.54,11138.615,1917.5,11136.174,1917.411Z" transform="translate(-10755.535 -1534.696)" fill="#e0e2ee"/>
        <path id="Union_45" data-name="Union 45" d="M11136.174,1917.411c-6.129.236-47.866.1-87.908-.032-39.611-.13-77.565-.261-77.767-.034-.062.173-.094-5.86-.094-11.893,0-6.067.031-12.137.094-11.885l66.021,10,28.659-10,7.259,10,17.319-12.855,16.185,14.834,25.521-20.394,4.712,5.762,4.708-5.762,25.525,20.394,16.185-14.834,17.316,12.855,7.261-10,28.659,10,66.021-10c.063-.252.091,5.818.091,11.885,0,6.033-.031,12.066-.091,11.893-.2-.227-38.158-.1-77.769.034-24.09.08-48.8.161-65.99.161C11146.7,1917.54,11138.615,1917.5,11136.174,1917.411Z" transform="translate(-10933.999 -1534.696)" fill="#e0e2ee"/>
        <path id="Union_48" data-name="Union 48" d="M11136.174,1917.411c-6.129.236-47.866.1-87.908-.032-39.611-.13-77.565-.261-77.767-.034-.062.173-.094-5.86-.094-11.893,0-6.067.031-12.137.094-11.885l66.021,10,28.659-10,7.259,10,17.319-12.855,16.185,14.834,25.521-20.394,4.712,5.762,4.708-5.762,25.525,20.394,16.185-14.834,17.316,12.855,7.261-10,28.659,10,66.021-10c.063-.252.091,5.818.091,11.885,0,6.033-.031,12.066-.091,11.893-.2-.227-38.158-.1-77.769.034-24.09.08-48.8.161-65.99.161C11146.7,1917.54,11138.615,1917.5,11136.174,1917.411Z" transform="translate(-10425.535 -1534.696)" fill="#e0e2ee"/>
        <rect id="Rectangle_4556" data-name="Rectangle 4556" width="1170.405" height="0.292" transform="translate(-294 382.067)" fill="#ebebeb"/>
        <rect id="Rectangle_4557" data-name="Rectangle 4557" width="25.295" height="0.292" transform="translate(499.654 400.848)" fill="#ebebeb"/>
        <rect id="Rectangle_4558" data-name="Rectangle 4558" width="39.799" height="0.292" transform="translate(362.362 394.793)" fill="#ebebeb"/>
        <rect id="Rectangle_4559" data-name="Rectangle 4559" width="51.953" height="0.292" transform="translate(462.74 390.012)" fill="#ebebeb"/>
        <rect id="Rectangle_4560" data-name="Rectangle 4560" width="12.995" height="0.292" transform="translate(188.879 395.895)" fill="#ebebeb"/>
        <rect id="Rectangle_4561" data-name="Rectangle 4561" width="44.792" height="0.292" transform="translate(133.698 395.895)" fill="#ebebeb"/>
        <rect id="Rectangle_4562" data-name="Rectangle 4562" width="32.315" height="0.292" transform="translate(77.367 390.969)" fill="#ebebeb"/>
        <path id="Fill_7" data-name="Fill 7" d="M0,57.065H1170V0H0Z" transform="translate(-293.595 381.698)" fill="#e8ebf2"/>
      </g>
    </g>
    <g id="Shadow" transform="translate(-19.491 453.125)">
      <ellipse id="_Path_" data-name="&lt;Path&gt;" cx="313.277" cy="18.296" rx="313.277" ry="18.296" transform="translate(0 0)" fill="#d8dbea"/>
    </g>
    <g id="_404-2" data-name="404" transform="translate(-48.42 -112.327)">
      <path id="Path_32940" data-name="Path 32940" d="M359.43,511.964h-312a9.234,9.234,0,0,1-9.223-9.223V64.174a9.233,9.233,0,0,1,9.223-9.221h312a9.232,9.232,0,0,1,9.221,9.221V502.741A9.234,9.234,0,0,1,359.43,511.964ZM47.43,55.357a8.827,8.827,0,0,0-8.819,8.817V502.741a8.828,8.828,0,0,0,8.819,8.819h312a8.827,8.827,0,0,0,8.817-8.819V64.174a8.827,8.827,0,0,0-8.817-8.817Z" transform="translate(-38.207 -54.953)" fill="#ebebeb"/>
      <path id="Path_32941" data-name="Path 32941" d="M575.725,511.964h-312a9.233,9.233,0,0,1-9.221-9.223V64.174a9.231,9.231,0,0,1,9.221-9.221h312a9.233,9.233,0,0,1,9.224,9.221V502.741A9.234,9.234,0,0,1,575.725,511.964Zm-312-456.607a8.827,8.827,0,0,0-8.817,8.817V502.741a8.827,8.827,0,0,0,8.817,8.819h312a8.829,8.829,0,0,0,8.82-8.819V64.174a8.829,8.829,0,0,0-8.82-8.817Z" transform="translate(94.98 -54.953)" fill="#ebebeb"/>
      <g id="Group_52370" data-name="Group 52370" transform="translate(5.428 36.282)">
        <g id="Group_52354" data-name="Group 52354" transform="translate(0 42.707)">
          <path id="Path_32897" data-name="Path 32897" d="M323.526,260.629l.727-21.233-13.036-4.259a126.53,126.53,0,0,0-3.475-21.321l11.048-8.147-7.505-19.943-13.666,1.1a124.933,124.933,0,0,0-11.376-18.339l7.08-11.816-14.556-15.529L266.55,147.4a133.255,133.255,0,0,0-17.515-12.659l1.979-13.563-19.386-8.8-8.882,10.41a131.106,131.106,0,0,0-21.031-4.928l-3.3-13.294-21.289-.729-4.2,13.036a131.262,131.262,0,0,0-21.321,3.477l-8.2-11-19.942,7.45,1.1,13.669a129.952,129.952,0,0,0-18.339,11.43L94.456,134.83,78.87,149.325,85.125,161.6a125.008,125.008,0,0,0-12.6,17.518l-13.559-2.034L50.11,196.463l10.464,8.885a126.756,126.756,0,0,0-4.928,21.034l-13.353,3.354-.727,21.233,13.091,4.264a125.535,125.535,0,0,0,3.477,21.318L47.087,284.7l7.505,19.946,13.666-1.1a125.227,125.227,0,0,0,11.375,18.339L72.553,333.7l14.556,15.531,12.217-6.258a130.238,130.238,0,0,0,17.515,12.661L114.8,369.187l19.386,8.8,8.938-10.407a131.213,131.213,0,0,0,21.032,4.926l3.3,13.294,21.288.729,4.206-13.036a131.266,131.266,0,0,0,21.32-3.477l8.148,10.994,19.942-7.45-1.045-13.664A133.246,133.246,0,0,0,259.66,348.46l11.761,7.08,15.584-14.5-6.253-12.273a125.124,125.124,0,0,0,12.6-17.516l13.559,2.036,8.853-19.384L305.3,285.019a125.209,125.209,0,0,0,4.926-21.031ZM180.052,329.414A84.278,84.278,0,1,1,267.138,248.1,84.257,84.257,0,0,1,180.052,329.414Z" transform="translate(-41.566 -103.84)" fill="#f1f2f7"/>
        </g>
        <g id="Group_52355" data-name="Group 52355" transform="translate(566.066 42.486)">
          <path id="Path_32898" data-name="Path 32898" d="M471.159,190.5l5.355-5-2.139-4.217a43.569,43.569,0,0,0,4.351-6.048l4.681.708,3.033-6.692-3.6-3.063a43.094,43.094,0,0,0,1.7-7.247l4.608-1.155.237-7.335-4.5-1.454a46.018,46.018,0,0,0-1.184-7.357l3.791-2.824-2.582-6.873-4.705.373a45.234,45.234,0,0,0-3.926-6.331l2.437-4.047-5.014-5.369-4.2,2.155a45.229,45.229,0,0,0-6.046-4.353l.68-4.681-6.68-3.046-3.065,3.6a44.792,44.792,0,0,0-7.258-1.685l-1.142-4.594-7.336-.265-1.467,4.518a43.062,43.062,0,0,0-7.345,1.2l-2.81-3.8-6.885,2.569.385,4.716a43.886,43.886,0,0,0-6.331,3.928l-4.073-2.438-5.355,5,2.152,4.232a43.351,43.351,0,0,0-4.351,6.046l-4.679-.708-3.034,6.694,3.6,3.063a43.231,43.231,0,0,0-1.7,7.245l-4.607,1.155-.237,7.337,4.5,1.453a44.682,44.682,0,0,0,1.183,7.358l-3.8,2.81,2.582,6.872,4.716-.359a45.1,45.1,0,0,0,3.928,6.331l-2.437,4.047,5.014,5.369,4.2-2.154a45.152,45.152,0,0,0,6.046,4.351l-.693,4.668,6.68,3.046,3.076-3.587a45.827,45.827,0,0,0,7.26,1.684l1.141,4.594,7.336.265,1.467-4.518a43.036,43.036,0,0,0,7.345-1.2l2.81,3.8,6.886-2.567-.386-4.718a43.447,43.447,0,0,0,6.331-3.926ZM433,159.59a10.456,10.456,0,1,1,14.774.506A10.455,10.455,0,0,1,433,159.59Z" transform="translate(-391.908 -103.703)" fill="#f1f2f7"/>
        </g>
        <path id="Path_32899" data-name="Path 32899" d="M403.239,328.616l-16.709-11.538c0-.013,0-.027-.01-.04a91.744,91.744,0,0,0-6.72-17.4l4.282-16.8-24.236-25.957L342.786,260a91.862,91.862,0,0,0-16.891-7.888.442.442,0,0,1-.042-.015L315.48,234.633l-35.488-1.217-11.54,16.708-.066.016A91.862,91.862,0,0,0,251,256.852l-16.793-4.28-25.955,24.236,3.117,17.027-.008.015a90.007,90.007,0,0,0-7.893,16.956L186,321.174l-1.217,35.49,16.725,11.549a88.885,88.885,0,0,0,6.7,17.479l0,.006-4.269,16.749L228.184,428.4l16.954-3.1a92.655,92.655,0,0,0,17.04,7.906l.015,0,10.355,17.44,35.49,1.217,11.532-16.7A92.482,92.482,0,0,0,337.1,428.45l0,0,16.715,4.259,25.955-24.233-3.117-17.03a90.021,90.021,0,0,0,7.893-16.957l0,0,17.47-10.375Zm-110.6,53.95a39.933,39.933,0,1,1,41.276-38.542A39.945,39.945,0,0,1,292.638,382.566Z" transform="translate(46.623 18.654)" fill="#f1f2f7"/>
        <path id="Path_32900" data-name="Path 32900" d="M381.879,298.189c-.039,0-.076,0-.116,0l-27.98-.958a3.41,3.41,0,0,1-2.816-1.667l-7.534-12.687a76.766,76.766,0,0,1-11.766-5.458l-12.129,2.218a3.39,3.39,0,0,1-3.107-1.028l-19.108-20.46a3.417,3.417,0,0,1-.813-3.172L299.559,243a74.224,74.224,0,0,1-4.619-12.07l-12.168-8.4a3.414,3.414,0,0,1-1.472-2.925l.96-27.98a3.406,3.406,0,0,1,1.667-2.816l12.709-7.547a74.789,74.789,0,0,1,5.445-11.711l-2.23-12.171a3.415,3.415,0,0,1,1.028-3.107l20.464-19.11a3.412,3.412,0,0,1,3.172-.813l12.013,3.062a75.838,75.838,0,0,1,12.036-4.639l8.4-12.159a3.3,3.3,0,0,1,2.923-1.47l27.98.958a3.408,3.408,0,0,1,2.816,1.669l7.549,12.71a75.951,75.951,0,0,1,11.677,5.448l12.205-2.236a3.414,3.414,0,0,1,3.109,1.028l19.106,20.465a3.416,3.416,0,0,1,.813,3.172l-3.062,12.016a75.765,75.765,0,0,1,4.639,12.031l12.159,8.4a3.413,3.413,0,0,1,1.472,2.923l-.958,27.983a3.411,3.411,0,0,1-1.669,2.816L445,236.075a74.686,74.686,0,0,1-5.439,11.7l2.228,12.176a3.407,3.407,0,0,1-1.028,3.107l-20.462,19.1a3.4,3.4,0,0,1-3.172.813l-11.958-3.047a76.443,76.443,0,0,1-12.1,4.637l-8.387,12.149A3.415,3.415,0,0,1,381.879,298.189Zm-26-7.715,24.251.83,8.032-11.63a3.411,3.411,0,0,1,1.921-1.356,69.639,69.639,0,0,0,13.175-5.051l.023-.011a3.4,3.4,0,0,1,2.356-.247l11.373,2.9,17.734-16.56-2.121-11.591a3.417,3.417,0,0,1,.433-2.375,67.752,67.752,0,0,0,5.9-12.658,3.425,3.425,0,0,1,1.522-1.894l12.154-7.219.832-24.252-11.64-8.038a3.4,3.4,0,0,1-1.3-1.727c-.029-.086-.057-.179-.079-.273a68.792,68.792,0,0,0-5.031-13.013,3.417,3.417,0,0,1-.263-2.388l2.915-11.436L421.5,144.741l-11.616,2.128a3.4,3.4,0,0,1-2.362-.427,69.166,69.166,0,0,0-12.677-5.923,3.78,3.78,0,0,1-.712-.331,3.406,3.406,0,0,1-1.146-1.165l-7.226-12.165-24.252-.832-8.037,11.64a3.411,3.411,0,0,1-2.008,1.378,69.152,69.152,0,0,0-13.013,5.028,3.4,3.4,0,0,1-2.386.263l-11.431-2.913L306.9,157.986l2.121,11.59a3.41,3.41,0,0,1-.305,2.139c-.047.092-.1.184-.153.275a67.734,67.734,0,0,0-5.9,12.7,3.419,3.419,0,0,1-1.482,1.813l-12.163,7.224-.831,24.251,11.65,8.045a3.4,3.4,0,0,1,1.354,1.918,67.339,67.339,0,0,0,5.025,13.115,3.344,3.344,0,0,1,.276.734,3.393,3.393,0,0,1,0,1.669l-2.905,11.4,16.561,17.733,11.533-2.109a3.422,3.422,0,0,1,2.351.42,70.041,70.041,0,0,0,12.743,5.922,3.4,3.4,0,0,1,1.9,1.508Zm40.043-153.193h0Zm-25.065,122.55c-.6,0-1.194-.011-1.8-.032a50.963,50.963,0,1,1,1.8.032ZM370.8,164.35a44.369,44.369,0,1,0,1.537.027C371.821,164.36,371.307,164.35,370.8,164.35Z" transform="translate(106.049 -51.713)" fill="#ccd0e5"/>
        <g id="Group_52356" data-name="Group 52356" transform="translate(537.679 18.284)">
          <path id="Path_32901" data-name="Path 32901" d="M389.042,112.656l-11.591-3.113-3.112-11.59,4.538-4.538,4.788,9.915,9.915,4.788Z" transform="translate(-374.339 -85.836)" fill="#e0e0e0"/>
          <path id="Path_32902" data-name="Path 32902" d="M386.8,106.732a5.409,5.409,0,1,0-7.651-7.647l5.765-8.651,7.733,3.91,1.695,8.124Z" transform="translate(-371.377 -87.671)" fill="#e0e0e0"/>
          <path id="Path_32903" data-name="Path 32903" d="M376.582,97.218l8.494-8.494,11.59,3.112,3.112,11.591-8.492,8.494-11.591-3.114ZM392,104.163a5.409,5.409,0,1,0-7.649-.016A5.429,5.429,0,0,0,392,104.163Z" transform="translate(-372.958 -88.724)" fill="#f0f0f0"/>
        </g>
        <g id="Group_52357" data-name="Group 52357" transform="translate(72.113 339.943)">
          <path id="Path_32904" data-name="Path 32904" d="M91.149,300.643l6.22-1.671,1.67-6.219L96.6,290.318l-2.569,5.321-5.321,2.569Z" transform="translate(-84.647 -286.251)" fill="#e0e0e0"/>
          <path id="Path_32905" data-name="Path 32905" d="M91.524,297.464a2.9,2.9,0,1,1,4.1-4.1l-3.093-4.642-4.149,2.1-.91,4.361Z" transform="translate(-85.409 -287.236)" fill="#e0e0e0"/>
          <path id="Path_32906" data-name="Path 32906" d="M98.645,292.359,94.087,287.8l-6.221,1.669L86.2,295.691l4.556,4.558,6.221-1.671Zm-8.278,3.726a2.9,2.9,0,1,1,4.106-.008A2.913,2.913,0,0,1,90.367,296.085Z" transform="translate(-86.197 -287.801)" fill="#f0f0f0"/>
        </g>
        <g id="Group_52358" data-name="Group 52358" transform="translate(46.96)">
          <path id="Path_32907" data-name="Path 32907" d="M76.747,87.908l5.161,5.162a3.466,3.466,0,0,0,4.888,0h0a3.466,3.466,0,0,0,0-4.888l-5.162-5.161a3.464,3.464,0,0,0-4.886,0h0A3.464,3.464,0,0,0,76.747,87.908Z" transform="translate(-67.484 -74.572)" fill="#f0f0f0"/>
          <path id="Path_32908" data-name="Path 32908" d="M76.084,77.888a7.2,7.2,0,1,1-4.775,9.349A7.432,7.432,0,0,1,76.084,77.888Z" transform="translate(-70.457 -77.408)" fill="#e0e0e0"/>
          <rect id="Rectangle_4563" data-name="Rectangle 4563" width="2.213" height="16.322" transform="matrix(-0.338, -0.941, 0.941, -0.338, 0.748, 11.041)" fill="#f0f0f0"/>
        </g>
      </g>
      <g id="Group_52368" data-name="Group 52368" transform="translate(53.246 71.733)">
        <g id="Group_52361" data-name="Group 52361" transform="translate(0 76.517)">
          <path id="Path_32914" data-name="Path 32914" d="M146.541,186.9a.814.814,0,0,1-.292-.055c-7.272-2.816-11.622-5.568-13.883-8.874a8.36,8.36,0,0,1-5.222-.719,10.4,10.4,0,0,1-4.492-4.236,4.131,4.131,0,0,1-3.92.606,9.969,9.969,0,0,1-4.77-3.9,3.69,3.69,0,0,1-2.508.695c-4.8-.391-11.313-9.953-11.78-20.144a.808.808,0,0,1,1.614-.073c.443,9.67,6.641,18.308,10.3,18.605a2.045,2.045,0,0,0,1.5-.452,19.821,19.821,0,0,1-1.651-15.207c1.39-4.854,2.616-6.752,4.091-6.4,2.782.693,2.417,11.265.944,18.24a9.9,9.9,0,0,1-1.365,3.526,8.745,8.745,0,0,0,4.109,3.566,2.554,2.554,0,0,0,2.7-.557c-1.27-3.128-1.533-7.392.189-12.827,2.269-7.156,3.181-7.35,3.728-7.465a1.068,1.068,0,0,1,1.042.355c1.491,1.685-.291,12.8-2.172,18.3a8.105,8.105,0,0,1-.9,1.869,8.85,8.85,0,0,0,4.028,4.041,7.061,7.061,0,0,0,3.673.7c-.145-.307-.276-.616-.394-.932-1.28-3.469-.654-7.474,1.915-12.244,1.7-3.164,3.094-4.639,4.374-4.64h0A1.793,1.793,0,0,1,139,159.74c1.409,2.6.388,11.179-2.4,15.437a6.325,6.325,0,0,1-2.614,2.26c2.165,2.845,6.276,5.355,12.844,7.9a.808.808,0,0,1-.292,1.561Zm-9.135-26.611s-.915.006-2.952,3.792c-2.338,4.338-2.933,7.909-1.823,10.918a8.818,8.818,0,0,0,.486,1.083,4.777,4.777,0,0,0,2.134-1.785c2.262-3.458,3.346-10.564,2.5-13.341C137.583,160.385,137.407,160.287,137.405,160.287Zm-11.588-6.807a36.5,36.5,0,0,0-2.165,5.7c-1.388,4.375-1.394,7.89-.622,10.58.053-.136.1-.271.15-.406C125.08,163.8,126.006,156.149,125.817,153.479Zm-10.641-5.09c-.273.25-1.058,1.268-2.184,5.2a18.177,18.177,0,0,0,1.175,13.324,10.347,10.347,0,0,0,.727-2.265C116.569,156.717,116.081,149.539,115.176,148.39Z" transform="translate(-53.604 -146.706)" fill="#263238"/>
          <path id="Path_32915" data-name="Path 32915" d="M169.659,231.877a14.554,14.554,0,0,1-7.369-1.919.809.809,0,0,1,.818-1.4c5.763,3.385,13.214,1.023,14.747-1.441a1.4,1.4,0,0,0,.238-1.084c-2.28.241-5.085-.364-8.29-2.369-4.112-2.571-4.429-3.333-4.4-3.946a.994.994,0,0,1,.551-.847c1.609-.816,8.895,2.543,11.932,4.54a5.254,5.254,0,0,1,1,.843,5.713,5.713,0,0,0,3.073-1.85,4.626,4.626,0,0,0,.95-1.813c-.107.015-.215.027-.323.039-2.584.26-5.175-.848-7.935-3.4-1.9-1.753-2.634-2.962-2.388-3.92a1.463,1.463,0,0,1,1.16-1.057c2.236-.554,7.752,1.8,10.008,4.269a4.521,4.521,0,0,1,1.036,1.913c2.109-.992,4.338-3.214,6.978-6.9a.808.808,0,0,1,1.315.94c-3.054,4.266-5.6,6.683-8.155,7.668a6.007,6.007,0,0,1-1.4,3.3,7.327,7.327,0,0,1-3.524,2.281,2.975,2.975,0,0,1-.452,2.248C177.864,230.166,173.957,231.877,169.659,231.877Zm-1.435-11.207c.543.4,1.322.932,2.433,1.627a13.053,13.053,0,0,0,5.818,2.138A40.114,40.114,0,0,0,168.224,220.67Zm5.639-6.864a6.981,6.981,0,0,0,1.884,2.241c2.4,2.22,4.585,3.207,6.675,2.979a5.191,5.191,0,0,0,.517-.078,2.96,2.96,0,0,0-.7-1.333C179.964,215.124,174.967,213.546,173.863,213.806Z" transform="translate(-15.295 -106.993)" fill="#263238"/>
          <path id="Path_32916" data-name="Path 32916" d="M246.924,268.426,221.748,273,198.889,148.243l-48.574,8.824L71.161,297.636l8.5,46.385,101.529-18.442,6.951,37.939,48.576-8.825-6.951-37.938,25.177-4.574Zm-127.4,23.142,41.943-73.627,11.7,63.882Z" transform="translate(-71.161 -145.759)" fill="#bec0d6"/>
        </g>
        <g id="Group_52364" data-name="Group 52364" transform="translate(203.366)">
          <path id="Path_32917" data-name="Path 32917" d="M372.18,169.865a94.981,94.981,0,0,0-5.166-22.974A74.4,74.4,0,0,0,355.721,127.2q-7.537-9.648-20.527-16.749t-34.29-9.875q-44.333-5.778-69.125,15.737t-32.635,82.421a224.928,224.928,0,0,0-1.577,45.8q1.607,21.025,7.719,33.823a70.72,70.72,0,0,0,23.669,28.715q15.3,10.732,41.929,14.2,47.5,6.188,70.4-18.239t30.384-82.565A208.93,208.93,0,0,0,372.18,169.865Z" transform="translate(-197.026 -99.349)" fill="#bec0d6"/>
          <path id="Path_32918" data-name="Path 32918" d="M278.7,297.913c-3.886-.133-8.022-.483-12.293-1.041-14.791-1.926-26.235-5.67-34.016-11.129a52.727,52.727,0,0,1-17.76-21.659l-.079-.168c-3.107-6.5-5.136-15.758-6.035-27.513A208.418,208.418,0,0,1,210,194.228c5.767-44.79,17.678-63.478,26.655-71.268,10.467-9.081,24.593-13.185,43.189-12.548,3.81.131,7.844.472,11.99,1.011,11.936,1.553,21.378,4.194,28.067,7.848,6.478,3.542,11.538,7.612,15.041,12.1a57.05,57.05,0,0,1,8.651,14.975,77.862,77.862,0,0,1,4.146,18.675,192.434,192.434,0,0,1-.473,46.408c-4.48,34.8-13.136,59.253-25.723,72.678-9.337,9.961-23.351,14.477-42.84,13.81Z" transform="translate(-190.251 -92.576)" fill="#f1f2f7"/>
          <g id="Group_52362" data-name="Group 52362" transform="translate(38.795 25.799)">
            <path id="Path_32919" data-name="Path 32919" d="M302.308,160.51l.21-6.12-3.757-1.228a36.516,36.516,0,0,0-1-6.145l3.186-2.349-2.163-5.747-3.939.317a36.218,36.218,0,0,0-3.28-5.287l2.041-3.406-4.2-4.476-3.521,1.8a38.485,38.485,0,0,0-5.049-3.648l.57-3.91-5.587-2.535-2.559,3a37.72,37.72,0,0,0-6.062-1.42l-.953-3.833-6.135-.21-1.212,3.758a37.753,37.753,0,0,0-6.146,1l-2.365-3.169-5.747,2.147.317,3.939a37.681,37.681,0,0,0-5.285,3.295l-3.39-2.039-4.493,4.178,1.8,3.537a35.974,35.974,0,0,0-3.632,5.049l-3.908-.587-2.551,5.587,3.015,2.561a36.565,36.565,0,0,0-1.42,6.062l-3.849.968-.208,6.12,3.773,1.228a36.088,36.088,0,0,0,1,6.145l-3.185,2.349,2.163,5.749,3.939-.318a36.03,36.03,0,0,0,3.28,5.287l-2.041,3.406,4.194,4.476,3.522-1.8a37.524,37.524,0,0,0,5.048,3.648l-.587,3.909,5.587,2.537,2.577-3a37.679,37.679,0,0,0,6.062,1.42l.952,3.833,6.137.21,1.212-3.758a37.766,37.766,0,0,0,6.145-1l2.349,3.169,5.749-2.147-.3-3.939a38.4,38.4,0,0,0,5.287-3.295l3.39,2.041,4.492-4.18-1.8-3.537a36.108,36.108,0,0,0,3.632-5.049l3.908.587,2.551-5.587-3.017-2.561a36,36,0,0,0,1.42-6.062Zm-41.355,19.827a24.293,24.293,0,1,1,25.1-23.44A24.288,24.288,0,0,1,260.953,180.337Z" transform="translate(-221.036 -115.316)" fill="#bec0d6"/>
          </g>
          <g id="Group_52363" data-name="Group 52363" transform="translate(90.89 150.771)">
            <path id="Path_32920" data-name="Path 32920" d="M307.963,225.305l.443-4.125-2.48-1.011a25.382,25.382,0,0,0-.367-4.191l2.262-1.436-1.15-3.991-2.685.023a23.932,23.932,0,0,0-1.932-3.734l1.532-2.2-2.593-3.227-2.475,1.031a24.493,24.493,0,0,0-3.217-2.7l.6-2.627-3.637-2-1.9,1.92a24.021,24.021,0,0,0-4-1.272l-.459-2.643-4.125-.462-1.011,2.479a25.931,25.931,0,0,0-4.191.386l-1.435-2.28-3.993,1.168.023,2.685a25.9,25.9,0,0,0-3.736,1.934l-2.2-1.551-3.228,2.593,1.031,2.475a26.184,26.184,0,0,0-2.7,3.215l-2.609-.582-2,3.639,1.9,1.879a25.932,25.932,0,0,0-1.273,4.023l-2.643.438-.443,4.127,2.479,1.029a23.714,23.714,0,0,0,.367,4.173l-2.28,1.435,1.168,3.992,2.685,0a24.811,24.811,0,0,0,1.934,3.716l-1.549,2.2,2.592,3.246,2.495-1.049a24.724,24.724,0,0,0,3.215,2.7l-.6,2.626,3.637,2,1.9-1.9a25.613,25.613,0,0,0,4,1.252l.457,2.645,4.125.462,1.013-2.48a25.947,25.947,0,0,0,4.191-.385l1.435,2.28,3.973-1.17,0-2.684a26.055,26.055,0,0,0,3.736-1.932l2.178,1.548,3.246-2.592-1.05-2.475a26.463,26.463,0,0,0,2.719-3.215l2.609.58,2-3.637-1.9-1.881a26.224,26.224,0,0,0,1.254-4Zm-20.8-1.6a7.209,7.209,0,1,1-2.861-9.779A7.225,7.225,0,0,1,287.162,223.7Z" transform="translate(-253.278 -192.662)" fill="#7f8fa6" opacity="0.3"/>
          </g>
          <path id="Path_32921" data-name="Path 32921" d="M325.286,180.106l-4.817-3.325,0-.011a26.479,26.479,0,0,0-1.937-5.017l1.234-4.842-6.987-7.483-4.917.9a26.5,26.5,0,0,0-4.868-2.273l-.013,0-2.989-5.035-10.231-.351-3.325,4.817-.019,0a26.414,26.414,0,0,0-5.01,1.936l-4.841-1.234-7.481,6.987.9,4.907,0,0a25.919,25.919,0,0,0-2.275,4.888l-5.033,2.989-.351,10.229,4.82,3.328a25.661,25.661,0,0,0,1.932,5.04v0l-1.23,4.828,6.985,7.481,4.888-.9a26.616,26.616,0,0,0,4.912,2.28h0l2.986,5.028,10.229.351,3.324-4.813a26.721,26.721,0,0,0,5.054-1.937h0l4.818,1.228,7.481-6.987-.9-4.909a25.924,25.924,0,0,0,2.275-4.888h0l5.036-2.991Zm-31.88,15.552a11.511,11.511,0,1,1,11.9-11.11A11.514,11.514,0,0,1,293.406,195.658Z" transform="translate(-156.821 -66.519)" fill="#464451"/>
          <path id="Union_52" data-name="Union 52" d="M40.285,23.663h0a9.521,9.521,0,0,1-1.971-.449l-1.733.716-3.155-2.2.071-1.865a9.8,9.8,0,0,1-1.108-1.7l-2.03-.843-.679-3.783,1.611-1.491a10.084,10.084,0,0,1,.452-1.986l-.715-1.723,2.2-3.154,1.873.071a9.531,9.531,0,0,1,1.7-1.105l.842-2.034,3.784-.674,1.494,1.611a9.8,9.8,0,0,1,1.975.449l1.73-.716,3.158,2.2L49.7,6.859A9.847,9.847,0,0,1,50.8,8.544l0,.008,2.03.843.678,3.783L51.9,14.673v0a9.825,9.825,0,0,1-.449,1.967l.716,1.734-2.2,3.154L48.1,21.461a9.77,9.77,0,0,1-1.688,1.109h0L45.559,24.6l-3.782.678ZM40.835,9.1a4.316,4.316,0,1,0,.767-.068A4.384,4.384,0,0,0,40.835,9.1ZM9.747,14.958A27.122,27.122,0,0,1,25.7,4.637l.312,1.584A25.4,25.4,0,0,0,11.08,15.868ZM0,12.837A32.181,32.181,0,0,1,9.707,4.712l.749,1.435a30.952,30.952,0,0,0-9.225,7.732ZM13.493,3.206A38.611,38.611,0,0,1,32.463.168l-.152,1.607A36.775,36.775,0,0,0,14.134,4.689Z" transform="translate(158.051 7.351)" fill="#bec0d6"/>
          <path id="Path_32926" data-name="Path 32926" d="M248.389,235.185a.808.808,0,0,1-.58-.246l-3.388-3.492a28.554,28.554,0,0,1-5.082-.947l-5.28,2.328a.8.8,0,0,1-.772-.065L224.44,226.9a.813.813,0,0,1-.362-.687l.089-5.757a27.9,27.9,0,0,1-2.855-4.325l-4.532-1.758a.807.807,0,0,1-.5-.591l-2.109-10.4a.8.8,0,0,1,.229-.74l3.492-3.387a29.023,29.023,0,0,1,.944-5.09l-2.327-5.272a.81.81,0,0,1,.066-.774l5.864-8.846a.746.746,0,0,1,.687-.362l5.754.089a28.37,28.37,0,0,1,4.329-2.852l1.758-4.535a.809.809,0,0,1,.593-.5l10.4-2.11a.823.823,0,0,1,.742.229l3.383,3.488a28.9,28.9,0,0,1,5.094.945l5.272-2.325a.817.817,0,0,1,.772.066l8.846,5.864a.807.807,0,0,1,.36.687l-.087,5.762a27.783,27.783,0,0,1,2.85,4.321l4.535,1.76a.805.805,0,0,1,.5.591l2.109,10.4a.811.811,0,0,1-.229.742l-3.493,3.388a29,29,0,0,1-.945,5.078L278,215.281a.807.807,0,0,1-.065.772l-5.864,8.846a.845.845,0,0,1-.685.362l-5.757-.087a28.442,28.442,0,0,1-4.324,2.842l-1.761,4.543a.817.817,0,0,1-.593.5l-10.4,2.109A.767.767,0,0,1,248.389,235.185Zm-9.108-6.35a.785.785,0,0,1,.228.034,27.057,27.057,0,0,0,5.35,1,.807.807,0,0,1,.514.244l3.288,3.39,9.536-1.934,1.713-4.416a.8.8,0,0,1,.38-.423,26.8,26.8,0,0,0,4.548-2.991.7.7,0,0,1,.524-.181l5.607.084,5.376-8.109-2.268-5.145a.8.8,0,0,1-.036-.551,27.483,27.483,0,0,0,.994-5.35.809.809,0,0,1,.242-.514l3.393-3.29-1.934-9.536-4.406-1.708a.8.8,0,0,1-.43-.393,26.282,26.282,0,0,0-2.991-4.532.811.811,0,0,1-.184-.525l.086-5.613L260.7,173l-5.132,2.262a.829.829,0,0,1-.551.039,27.41,27.41,0,0,0-5.369-1,.8.8,0,0,1-.512-.241l-3.286-3.388-9.535,1.936-1.708,4.4a.811.811,0,0,1-.381.425,26.736,26.736,0,0,0-4.552,3,.746.746,0,0,1-.525.186l-5.607-.087-5.374,8.111,2.265,5.136a.814.814,0,0,1-.016.688,28.094,28.094,0,0,0-.942,5.224.8.8,0,0,1-.242.514l-3.39,3.288,1.932,9.535,4.4,1.708a.8.8,0,0,1,.441.415,26.478,26.478,0,0,0,2.979,4.51.822.822,0,0,1,.187.528L225.7,225.8l8.111,5.379,5.143-2.27A.817.817,0,0,1,239.281,228.835Zm7.946-5.227a21.528,21.528,0,0,1-17.922-33.415h0a21.532,21.532,0,1,1,17.92,33.415Zm-16.574-32.522a19.916,19.916,0,1,0,27.608-5.605,19.77,19.77,0,0,0-27.608,5.605Z" transform="translate(-186.478 -56.47)" fill="#bec0d6"/>
        </g>
        <g id="Group_52367" data-name="Group 52367" transform="translate(390.619 78.021)">
          <path id="Path_32927" data-name="Path 32927" d="M495.349,283.381l-25.358-3.424,16.771-125.719-48.927-6.6L319.155,256.9l-6.237,46.744,102.264,13.8-5.1,38.232,48.928,6.6,5.1-38.232,25.359,3.422ZM367.03,266.064l62.623-57.081-8.589,64.373Z" transform="translate(-312.918 -147.637)" fill="#bec0d6"/>
          <path id="Path_32928" data-name="Path 32928" d="M394.442,359.128a.919.919,0,0,1-.147-.013.807.807,0,0,1-.648-.94l37.689-206.7a.825.825,0,0,1,.939-.651.808.808,0,0,1,.65.94l-37.689,206.7A.807.807,0,0,1,394.442,359.128Z" transform="translate(-263.217 -145.681)" fill="#263238"/>
          <g id="Group_52365" data-name="Group 52365" transform="translate(124.328 7.894)">
            <path id="Path_32929" data-name="Path 32929" d="M415.84,153.892a1.324,1.324,0,1,1-1.278-1.369A1.325,1.325,0,0,1,415.84,153.892Z" transform="translate(-375.502 -152.522)" fill="#263238"/>
            <path id="Path_32930" data-name="Path 32930" d="M412.508,171.193a1.324,1.324,0,1,1-1.278-1.369A1.326,1.326,0,0,1,412.508,171.193Z" transform="translate(-377.553 -141.869)" fill="#263238"/>
            <path id="Path_32931" data-name="Path 32931" d="M409.175,188.493a1.324,1.324,0,1,1-1.278-1.369A1.323,1.323,0,0,1,409.175,188.493Z" transform="translate(-379.606 -131.217)" fill="#263238"/>
            <path id="Path_32932" data-name="Path 32932" d="M402.622,206.5a1.324,1.324,0,1,1-1.278-1.369A1.325,1.325,0,0,1,402.622,206.5Z" transform="translate(-383.641 -120.126)" fill="#263238"/>
            <path id="Path_32933" data-name="Path 32933" d="M402.51,223.095a1.324,1.324,0,1,1-1.278-1.369A1.324,1.324,0,0,1,402.51,223.095Z" transform="translate(-383.71 -109.911)" fill="#263238"/>
            <path id="Path_32934" data-name="Path 32934" d="M399.178,240.4a1.324,1.324,0,1,1-1.278-1.369A1.326,1.326,0,0,1,399.178,240.4Z" transform="translate(-385.761 -99.257)" fill="#263238"/>
            <path id="Path_32935" data-name="Path 32935" d="M395.844,257.7a1.323,1.323,0,1,1-1.276-1.37A1.324,1.324,0,0,1,395.844,257.7Z" transform="translate(-387.813 -88.605)" fill="#263238"/>
            <path id="Path_32936" data-name="Path 32936" d="M392.513,275a1.324,1.324,0,1,1-1.278-1.369A1.323,1.323,0,0,1,392.513,275Z" transform="translate(-389.865 -77.952)" fill="#263238"/>
          </g>
          <path id="Path_32937" data-name="Path 32937" d="M401.1,207.4a.808.808,0,0,1-.168-1.6l4.012-.861a.808.808,0,0,1,.339,1.58l-4.014.861A.863.863,0,0,1,401.1,207.4Z" transform="translate(-259.116 -112.364)" fill="#263238"/>
          <g id="Group_52366" data-name="Group 52366" transform="translate(148.451 79.341)">
            <path id="Path_32938" data-name="Path 32938" d="M411.419,197.241a134.582,134.582,0,0,0-4.833,15.125c-1.218,5.707-1.291,18.458-1.291,18.458" transform="translate(-404.487 -196.434)" fill="#263238"/>
            <path id="Path_32939" data-name="Path 32939" d="M405.6,231.94h0a.807.807,0,0,1-.8-.813c0-.523.087-12.9,1.309-18.623a133.679,133.679,0,0,1,4.868-15.246.808.808,0,0,1,1.509.58,134.472,134.472,0,0,0-4.8,15c-1.186,5.561-1.273,18.169-1.273,18.3A.807.807,0,0,1,405.6,231.94Z" transform="translate(-404.795 -196.742)" fill="#263238"/>
          </g>
        </g>
      </g>
    </g>
    <g id="Group_52369" data-name="Group 52369" transform="translate(15.037 196.689)">
      <g id="Character" transform="translate(62.727 0)">
        <g id="Group_52376" data-name="Group 52376">
          <path id="Path_32940-2" data-name="Path 32940" d="M236.08,217.135c2.245-36.2-1.885-102,66.156-93.287,72.928,9.336,52.067,94.612,52.067,94.612Z" transform="translate(-60.703 -123.062)" fill="#464451"/>
          <g id="Group_52369-2" data-name="Group 52369" transform="translate(191.029 11.319)">
            <ellipse id="Ellipse_817" data-name="Ellipse 817" cx="29.689" cy="29.689" rx="29.689" ry="29.689" transform="translate(1.614 1.615)" fill="#fff"/>
            <path id="Path_32941-2" data-name="Path 32941" d="M281.3,132.533c-14.062-2.4-29.1,7.965-30.581,18.466l55.755,5.125C304.511,144.157,292.46,134.44,281.3,132.533Z" transform="translate(-246.099 -130.872)" fill="#464451"/>
            <path id="Path_32942" data-name="Path 32942" d="M291.256,157.342c-.4,7.763-4.629,13.848-9.45,13.607s-8.4-6.741-8-14.5,4.628-13.848,9.447-13.607S291.655,149.581,291.256,157.342Z" transform="translate(-237.23 -126.774)" fill="#464451"/>
            <path id="Path_32943" data-name="Path 32943" d="M278.688,193.847a31.305,31.305,0,1,1,31.305-31.305h0A31.342,31.342,0,0,1,278.688,193.847Zm0-59.379a28.073,28.073,0,1,0,28.073,28.073,28.073,28.073,0,0,0-28.073-28.073Z" transform="translate(-247.383 -131.236)" fill="#d7d9e8"/>
          </g>
          <path id="Path_32944" data-name="Path 32944" d="M315.726,203.2a.875.875,0,0,1-.19-.021.81.81,0,0,1-.6-.969c.054-.219,5.2-22.126-.138-44.276a.807.807,0,0,1,1.559-.417l.01.037c5.442,22.541.2,44.812.147,45.035A.806.806,0,0,1,315.726,203.2Z" transform="translate(-30.425 -110.036)" fill="#fff" opacity="0.3" style="isolation: isolate"/>
          <path id="Path_32945" data-name="Path 32945" d="M314.6,152.839a.812.812,0,0,1-.735-.472A57.114,57.114,0,0,0,306.205,140a.808.808,0,0,1,1.2-1.087c.018.021.035.042.051.064a58.724,58.724,0,0,1,7.878,12.722.809.809,0,0,1-.4,1.07.83.83,0,0,1-.332.073Z" transform="translate(-33.802 -117.066)" fill="#fff" opacity="0.3" style="isolation: isolate"/>
          <path id="Path_32946" data-name="Path 32946" d="M129.1,331c-.2,0-.4,0-.6-.008a8.078,8.078,0,1,1,.277-16.155l.166,0h.155c4.668,0,15.9-5.678,39.388-42.7a8.091,8.091,0,0,1,12.133-1.761,334.228,334.228,0,0,0,60.014,41.165,8.079,8.079,0,0,1-7.312,14.4,344.4,344.4,0,0,1-56.221-37.4C157.41,318.146,142.8,331,129.1,331Z" transform="translate(-105.15 -67.148)" fill="#464451"/>
          <path id="Path_32947" data-name="Path 32947" d="M167.18,293.792a5.241,5.241,0,0,1-.692-.048,4.848,4.848,0,0,1-4.114-5.484h0c1.149-8.04-.277-38.174-10.462-61.6a4.845,4.845,0,0,1,1.716-5.939c22.133-15.081,69.277-16.886,71.274-16.956a4.85,4.85,0,1,1,.338,9.693c-.438.017-41.654,1.6-62.834,13.254,9.022,23.328,11.066,52.409,9.563,62.929A4.848,4.848,0,0,1,167.18,293.792Z" transform="translate(-93.242 -92.013)" fill="#464451"/>
          <path id="Path_32948" data-name="Path 32948" d="M179.207,265.745c-3.225-7.6-17.754-6.742-26.286-.224-4.56,3.483-10.73,13.96-11.379,17.76a5.72,5.72,0,0,0,6.5,6.848c5.57-.483,13.219-8.579,13.219-8.579-5.088,4.985,1.476,8.509,11.273,1.3C177.97,278.842,182.817,274.262,179.207,265.745Z" transform="translate(-97.127 -70.244)" fill="#bcbfd3"/>
          <path id="Path_32949" data-name="Path 32949" d="M369.617,206.627a.763.763,0,0,1-.224-.03.808.808,0,0,1-.554-1c2.152-7.5,4.5-12.077,7.594-14.623a8.388,8.388,0,0,1,.248-5.262,10.384,10.384,0,0,1,3.816-4.855,4.129,4.129,0,0,1-.956-3.848,9.954,9.954,0,0,1,3.451-5.1,3.715,3.715,0,0,1-.917-2.437c-.04-4.819,8.9-12.158,19.006-13.54a.793.793,0,0,1,.906.661l0,.032a.807.807,0,0,1-.692.908h0c-9.592,1.31-17.638,8.256-17.607,11.923a2.1,2.1,0,0,0,.584,1.461,19.806,19.806,0,0,1,15-3.012c4.959.949,6.975,2,6.741,3.5-.439,2.832-11,3.419-18.081,2.574a9.932,9.932,0,0,1-3.635-1.041,8.712,8.712,0,0,0-3.185,4.41,2.548,2.548,0,0,0,.8,2.644c3-1.548,7.223-2.195,12.79-.961,7.331,1.617,7.605,2.509,7.768,3.046a1.067,1.067,0,0,1-.26,1.069c-1.544,1.637-12.774.86-18.417-.522a8.208,8.208,0,0,1-1.939-.728,8.846,8.846,0,0,0-3.664,4.376,6.983,6.983,0,0,0-.364,3.719q.436-.26.89-.476c3.343-1.586,7.388-1.32,12.367.81,3.3,1.415,4.9,2.667,5.014,3.941a1.785,1.785,0,0,1-.921,1.684c-2.463,1.638-11.1,1.385-15.591-1a6.322,6.322,0,0,1-2.486-2.4c-2.641,2.412-4.772,6.731-6.715,13.5A.806.806,0,0,1,369.617,206.627Zm8.766-15.077a4.756,4.756,0,0,0,1.972,1.968c3.645,1.939,10.819,2.383,13.51,1.3.554-.223.633-.407.633-.414s-.089-.911-4.042-2.6c-4.527-1.939-8.138-2.216-11.036-.831a8.6,8.6,0,0,0-1.036.579Zm5.387-10.613c.138.04.277.078.415.114a53.179,53.179,0,0,0,16.049,1.2,36.495,36.495,0,0,0-5.876-1.645,18.318,18.318,0,0,0-10.588.327Zm2.04-9.084a10.259,10.259,0,0,0,2.322.523c8.05.953,15.159-.174,16.222-1.18-.277-.248-1.358-.939-5.378-1.707a18.2,18.2,0,0,0-13.166,2.361Z" transform="translate(-9.634 -110.417)" fill="#2e353a"/>
          <path id="Path_32950" data-name="Path 32950" d="M242.665,312.478c1.064-.341.708-1.368-.482-1.368H220.3c-41.656-4.41-70.761,1.5-52.42,2.9s-1.292,1.1-14.685,6.169,99.618,6.342,109.9,0C272.577,314.322,227.9,317.21,242.665,312.478Z" transform="translate(-93.016 -51.327)" fill="#464451"/>
          <path id="Path_32951" data-name="Path 32951" d="M385.691,369.339,195.351,363.03l-7.893-184.555L412.227,183.5Z" transform="translate(-79.411 -101.741)" fill="#d7d9e8"/>
          <path id="Path_32952" data-name="Path 32952" d="M240.544,365.7a.806.806,0,0,1-.8-.742L224.479,179.6a.809.809,0,0,1,1.61-.138l15.259,185.361a.809.809,0,0,1-.739.871Z" transform="translate(-65.167 -101.634)" fill="#2e353a"/>
          <g id="Group_52370-2" data-name="Group 52370" transform="translate(306.28 81.764)">
            <path id="Path_32953" data-name="Path 32953" d="M330.611,367.945l51.159-7.788,16.113-171.609-40.741-6.441Z" transform="translate(-330.611 -182.107)" fill="#bcbed3"/>
            <path id="Path_32954" data-name="Path 32954" d="M330.611,367.945l51.159-7.788,16.113-171.609-40.741-6.441Z" transform="translate(-330.611 -182.107)" fill="#bcbed3" opacity="0.2" style="isolation: isolate"/>
          </g>
          <path id="Path_32955" data-name="Path 32955" d="M206.214,322.27l-4.692-109.648a19.823,19.823,0,0,1,18.96-20.651q.644-.027,1.288-.014l142.281,3.185a19.825,19.825,0,0,1,19.376,20.263,20.039,20.039,0,0,1-.194,2.357l-15.775,110.5a19.823,19.823,0,0,1-20.283,17.01L225.364,341.24A19.824,19.824,0,0,1,206.214,322.27Z" transform="translate(-74.006 -96.555)" fill="#464451"/>
          <g id="Group_52371" data-name="Group 52371" transform="translate(146.732 129.049)">
            <path id="Path_32956" data-name="Path 32956" d="M216.24,216.254l22.018.7-.181,5.678-13.781-.438-.138,4.225,12.784.407-.173,5.421-12.784-.407-.166,5.241,14.18.451-.191,6.02-22.412-.713Z" transform="translate(-215.394 -216.254)" fill="#fff"/>
            <path id="Path_32957" data-name="Path 32957" d="M234.853,243.458l.845-26.589,13.69.435a19.976,19.976,0,0,1,5.8.839,6.216,6.216,0,0,1,3.168,2.524,7.51,7.51,0,0,1-2.207,10.388c-.143.094-.289.181-.439.264a9.91,9.91,0,0,1-2.918.96,5.569,5.569,0,0,1,3.377,2.493,10.721,10.721,0,0,1,1.1,1.688l3.739,7.829-9.278-.3-4.132-8.263a6.242,6.242,0,0,0-1.422-2.1,3.479,3.479,0,0,0-1.994-.681l-.724-.022-.345,10.789Zm8.754-15.548,3.462.109a12.534,12.534,0,0,0,2.188-.294,2.178,2.178,0,0,0,1.358-.792,2.7,2.7,0,0,0-.187-3.527,4.938,4.938,0,0,0-3.046-.787l-3.607-.115Z" transform="translate(-207.907 -216.017)" fill="#fff"/>
            <path id="Path_32958" data-name="Path 32958" d="M255.712,244.121l.846-26.589,13.69.435a19.921,19.921,0,0,1,5.8.839,6.217,6.217,0,0,1,3.168,2.524,7.509,7.509,0,0,1-2.2,10.387c-.144.094-.292.183-.442.266a9.909,9.909,0,0,1-2.918.96,8.33,8.33,0,0,1,2.109,1.047,8.478,8.478,0,0,1,1.268,1.44,10.72,10.72,0,0,1,1.1,1.688l3.739,7.829-9.278-.3-4.133-8.263a6.222,6.222,0,0,0-1.422-2.1,3.451,3.451,0,0,0-1.993-.681l-.726-.022-.345,10.789Zm8.754-15.549,3.462.111a12.534,12.534,0,0,0,2.188-.294,2.166,2.166,0,0,0,1.358-.792,2.694,2.694,0,0,0-.187-3.526,4.929,4.929,0,0,0-3.046-.787l-3.607-.115Z" transform="translate(-199.881 -215.762)" fill="#fff"/>
            <path id="Path_32959" data-name="Path 32959" d="M275.6,231.5a12.589,12.589,0,0,1,14.163-13.327q6.639.212,10.109,3.89a13.442,13.442,0,0,1,3.272,10.095,16.4,16.4,0,0,1-1.811,7.594,11.221,11.221,0,0,1-4.681,4.5,15,15,0,0,1-7.442,1.424,17.032,17.032,0,0,1-7.4-1.669,11.211,11.211,0,0,1-4.632-4.686A15.062,15.062,0,0,1,275.6,231.5Zm8.213.3a8.921,8.921,0,0,0,1.311,5.833,5.666,5.666,0,0,0,8,.453q.087-.077.17-.158,1.5-1.676,1.646-6.139a8.229,8.229,0,0,0-1.338-5.539,5.189,5.189,0,0,0-4.052-1.863,4.988,4.988,0,0,0-4.046,1.634A8.932,8.932,0,0,0,283.816,231.8Z" transform="translate(-192.242 -215.554)" fill="#fff"/>
            <path id="Path_32960" data-name="Path 32960" d="M298.452,245.48l.846-26.587,13.69.436a19.873,19.873,0,0,1,5.8.838,6.2,6.2,0,0,1,3.168,2.523,7.509,7.509,0,0,1-2.207,10.387c-.144.094-.289.181-.439.266a9.91,9.91,0,0,1-2.918.96,8.287,8.287,0,0,1,2.109,1.047,8.481,8.481,0,0,1,1.268,1.44,10.4,10.4,0,0,1,1.1,1.688l3.739,7.828-9.278-.294-4.145-8.257a6.214,6.214,0,0,0-1.422-2.1,3.435,3.435,0,0,0-1.994-.68l-.724-.024-.345,10.79Zm8.754-15.548,3.462.109a12.4,12.4,0,0,0,2.188-.292,2.178,2.178,0,0,0,1.358-.792,2.7,2.7,0,0,0-.187-3.527,4.929,4.929,0,0,0-3.046-.787l-3.607-.115Z" transform="translate(-183.437 -215.239)" fill="#fff"/>
          </g>
          <path id="Path_32961" data-name="Path 32961" d="M343.774,277.892a2.122,2.122,0,0,1-1.568-.692l-13.831-15.131L313.45,275.7a2.121,2.121,0,0,1-3-.138l-13.831-15.138-14.929,13.636a2.12,2.12,0,0,1-3-.138l-13.832-15.138-14.925,13.637a2.119,2.119,0,0,1-2.994-.136v0l-13.832-15.138-14.921,13.645a2.12,2.12,0,0,1-2.86-3.131h0L231.821,252.6a2.118,2.118,0,0,1,2.992.134l0,0,13.832,15.138,14.924-13.637a2.121,2.121,0,0,1,3,.136v0L280.4,269.511l14.925-13.637a2.12,2.12,0,0,1,3,.138l13.831,15.14,14.925-13.637a2.117,2.117,0,0,1,2.99.132l.006.007,15.264,16.7a2.12,2.12,0,0,1-1.566,3.552Z" transform="translate(-68.951 -73.436)" fill="#fff"/>
          <g id="Group_52373" data-name="Group 52373" transform="translate(0 217.411)">
            <path id="Path_32962" data-name="Path 32962" d="M128.562,334.176l-10.109-4.823-9.022-43.9,4.9-5.392Z" transform="translate(-109.432 -280.064)" fill="#d7d9e8"/>
            <g id="Group_52372" data-name="Group 52372" transform="translate(4.891)">
              <path id="Path_32963" data-name="Path 32963" d="M127.2,334.176l13.418-7.839-11.507-36.164-16.152-10.109Z" transform="translate(-112.964 -280.064)" fill="#577afa"/>
              <path id="Path_32964" data-name="Path 32964" d="M127.2,334.176l13.418-7.839-11.507-36.164-16.152-10.109Z" transform="translate(-112.964 -280.064)" fill="#bcbfd3"/>
            </g>
          </g>
          <path id="Path_32965" data-name="Path 32965" d="M284.681,336.594c-.381,0-.755,0-1.116-.014a8.079,8.079,0,0,1,.277-16.156l.166.006c12.446.407,38.787-7.241,53.835-21.846a8.049,8.049,0,0,1,3.305-1.939c25.51-7.655,35,7.81,35.4,8.473l-13.909,8.223a2.045,2.045,0,0,0,.186.3c-.154-.213-3.767-4.912-15.271-2.005C328.67,328.865,299.682,336.594,284.681,336.594Z" transform="translate(-45.487 -57.09)" fill="#464451"/>
          <g id="Group_52375" data-name="Group 52375" transform="translate(206.55 234.14)">
            <path id="Path_32966" data-name="Path 32966" d="M290.341,348.249,260.913,346.4l-2.322-54.251,39.542,1.482Z" transform="translate(-258.591 -292.145)" fill="#bcbfd3"/>
            <g id="Group_52374" data-name="Group 52374" transform="translate(31.748 1.476)">
              <path id="Path_32967" data-name="Path 32967" d="M281.518,347.838l6.878-6.846,4.264-33.83-3.344-13.952Z" transform="translate(-281.518 -293.211)" fill="#577afa"/>
              <path id="Path_32968" data-name="Path 32968" d="M281.518,347.838l6.878-6.846,4.264-33.83-3.344-13.952Z" transform="translate(-281.518 -293.211)" fill="#aaaec1"/>
            </g>
          </g>
          <path id="Path_32969" data-name="Path 32969" d="M421.28,358.158a4.824,4.824,0,0,1-2.929-.987c-16.794-12.766-39.5-35.426-48.209-57.29a4.838,4.838,0,0,1-.277-.991c-4.248-25.258-8.309-78.429-8.478-80.682a4.847,4.847,0,1,1,9.667-.733c.042.543,4.139,54.234,8.285,79.29,8.688,21.257,32.246,43.085,44.877,52.685a4.847,4.847,0,0,1-2.937,8.707Z" transform="translate(-12.495 -88.46)" fill="#464451"/>
          <path id="Path_32970" data-name="Path 32970" d="M424.871,323.425c-3.749,0-8-1.7-12.628-5.049a4.847,4.847,0,0,1,5.678-7.856c4,2.9,6.188,3.209,6.943,3.209a4.847,4.847,0,1,1,0,9.693Z" transform="translate(6.323 -51.276)" fill="#464451"/>
          <path id="Path_32971" data-name="Path 32971" d="M412.743,319.167c5.186-15.407,26.449-12.362,33.773-10.074a77.722,77.722,0,0,1,17.884,7.755c3.967,2.594,4.031,6.924-1.257,9.4-6.521,3.046-22.882.343-22.882.343,8.469,3.71-.017,9.649-14.872,3.814C420.552,328.509,410.913,324.814,412.743,319.167Z" transform="translate(7.182 -52.208)" fill="#bcbfd3"/>
          <path id="Path_32972" data-name="Path 32972" d="M383.686,228.8c-1.925,13.09-12.765,22.745-21.583,21.449s-9.185-12.988-7.259-26.076,5.412-22.626,14.228-21.325S385.61,215.715,383.686,228.8Z" transform="translate(-15.372 -92.407)" fill="#464451"/>
          <ellipse id="Ellipse_818" data-name="Ellipse 818" cx="1.324" cy="1.324" rx="1.324" ry="1.324" transform="translate(153.732 81.493)" fill="#2e353a"/>
          <path id="Path_32973" data-name="Path 32973" d="M231.864,190.124a1.324,1.324,0,1,1-1.324-1.325,1.325,1.325,0,0,1,1.324,1.325Z" transform="translate(-63.344 -97.768)" fill="#2e353a"/>
          <path id="Path_32974" data-name="Path 32974" d="M232.936,303.194a1.324,1.324,0,1,1-1.324-1.325,1.324,1.324,0,0,1,1.324,1.325Z" transform="translate(-62.931 -54.264)" fill="#2e353a"/>
          <path id="Path_32975" data-name="Path 32975" d="M241.7,310.081a1.324,1.324,0,1,1-1.325-1.325,1.324,1.324,0,0,1,1.325,1.325Z" transform="translate(-59.559 -51.614)" fill="#2e353a"/>
        </g>
      </g>
      <g id="Robot_Parts" data-name="Robot Parts" transform="translate(0 256.548)">
        <g id="Group_52380" data-name="Group 52380">
          <path id="Path_32976" data-name="Path 32976" d="M76.126,326.133a15.582,15.582,0,0,1-11.848-6.381.808.808,0,0,1,1.328-.919h0c3.015,4.355,9.66,6.675,12.611,5.3a2.255,2.255,0,0,0,.755-.554,9.8,9.8,0,0,1-5.7-7.242c-.367-2.047-.658-4.815,1.033-5.2,2.317-.522,5.348,5.083,6.508,9.33a5.775,5.775,0,0,1,.21,2.17,7.236,7.236,0,0,0,2.887.226,3.117,3.117,0,0,0,2.216-1.2,9.429,9.429,0,0,1-3.722-6.769c-.627-4.419-.156-5.189.332-5.567a1.091,1.091,0,0,1,1.108-.126c1.727.735,3.822,7,4.222,10.55a5.051,5.051,0,0,1,0,1.12,6.181,6.181,0,0,0,2.18.424,7.064,7.064,0,0,0,3.893-1.016,5.459,5.459,0,0,1-.648-.476c-1.677-1.433-2.354-3.722-2.07-7,.22-2.534.8-3.916,1.814-4.352a1.841,1.841,0,0,1,1.953.388c1.743,1.394,3.373,5.816,2.788,8.977a4.74,4.74,0,0,1-.811,1.861c2.965.511,7.137-.323,10.733-1.21a.808.808,0,0,1,.389,1.568c-4.379,1.083-9.092,1.964-12.421,1a9.187,9.187,0,0,1-5.653,1.878,7.825,7.825,0,0,1-2.648-.5,4.547,4.547,0,0,1-3.431,2.054,8.723,8.723,0,0,1-3.616-.31,3.675,3.675,0,0,1-1.637,1.432A6.628,6.628,0,0,1,76.126,326.133Zm-1.4-13.371a7.156,7.156,0,0,0,.138,3.3,8.21,8.21,0,0,0,4.588,5.993,4.922,4.922,0,0,0-.187-1.145C78,316.29,75.585,313.107,74.729,312.761Zm9-1.408a22.274,22.274,0,0,0,.287,3.323,8.31,8.31,0,0,0,2.454,5.207,25.515,25.515,0,0,0-2.739-8.532Zm10.164-1.4h0s-.608.307-.842,3,.259,4.563,1.509,5.629a4.137,4.137,0,0,0,.969.612,3.447,3.447,0,0,0,.878-1.662,10.114,10.114,0,0,0-1.939-7.158c-.32-.36-.529-.429-.573-.429Z" transform="translate(-64.134 -308.326)" fill="#2e353a"/>
          <g id="Group_52377" data-name="Group 52377" transform="translate(231.585 14.832)">
            <path id="Path_32977" data-name="Path 32977" d="M244.874,334.225l4.379-7.594-4.379-7.594h-4.687l2.648,7.594-2.648,7.594Z" transform="translate(-227.98 -319.037)" fill="#464451"/>
            <path id="Path_32978" data-name="Path 32978" d="M243.027,329.992a3.951,3.951,0,0,1-.012-7.9h.012l-7.443-1.49-1.976,6.013,3.323,5.072Z" transform="translate(-230.512 -318.435)" fill="#464451"/>
            <path id="Path_32979" data-name="Path 32979" d="M244.524,319.038h-8.774l-4.379,7.594,4.379,7.594h8.774l4.379-7.594Zm-4.379,11.552a3.951,3.951,0,1,1,3.942-3.959,3.949,3.949,0,0,1-3.942,3.959Z" transform="translate(-231.372 -319.037)" fill="#bcbfd3"/>
          </g>
          <g id="Group_52378" data-name="Group 52378" transform="translate(550.631 3.049)">
            <path id="Path_32980" data-name="Path 32980" d="M465.021,321.808l-3.251-5.64,3.251-5.64H468.5l-1.966,5.64,1.966,5.64Z" transform="translate(-461.77 -310.528)" fill="#577afa"/>
            <path id="Path_32981" data-name="Path 32981" d="M466.465,318.661a2.934,2.934,0,1,0,0-5.869l5.529-1.108,1.466,4.467-2.468,3.767Z" transform="translate(-459.964 -310.083)" fill="#577afa"/>
            <path id="Path_32982" data-name="Path 32982" d="M467.03,310.528h6.517l3.251,5.637-3.251,5.64H467.03l-3.253-5.64Zm3.253,8.585a2.938,2.938,0,1,1,0-.006Z" transform="translate(-460.998 -310.528)" fill="#2e353a"/>
          </g>
          <g id="Group_52379" data-name="Group 52379" transform="translate(420.322 10.497)">
            <path id="Path_32983" data-name="Path 32983" d="M377.633,326h7.3a3.462,3.462,0,0,0,3.462-3.462h0a3.463,3.463,0,0,0-3.462-3.462h-7.3a3.462,3.462,0,0,0-3.462,3.462h0A3.461,3.461,0,0,0,377.633,326Z" transform="translate(-365.166 -314.686)" fill="#464451"/>
            <path id="Path_32984" data-name="Path 32984" d="M368.48,320.407a7.2,7.2,0,1,1,3.233,9.986A7.428,7.428,0,0,1,368.48,320.407Z" transform="translate(-367.668 -315.61)" fill="#bcbfd3"/>
            <rect id="Rectangle_4564" data-name="Rectangle 4564" width="16.326" height="2.213" transform="matrix(0.426, -0.905, 0.905, 0.426, 2.827, 14.772)" fill="#464451"/>
          </g>
        </g>
      </g>
    </g>
    <g id="Oops_" data-name="Oops!" transform="translate(29.12 -62.938)">
      <g id="Group_52360" data-name="Group 52360" transform="translate(0 0)">
        <path id="Path_32909" data-name="Path 32909" d="M87.036,131.529Q84.61,120.858,89.2,113.557t15.211-9.709q10.88-2.475,18.095,2.029t9.609,15.028q1.735,7.642.276,13.117a18.8,18.8,0,0,1-5.7,9.3,25.168,25.168,0,0,1-11.5,5.474,28.581,28.581,0,0,1-12.739.427,18.817,18.817,0,0,1-9.525-5.654Q88.773,139.173,87.036,131.529Zm13.482-3q1.5,6.6,4.608,8.925a9.524,9.524,0,0,0,13.408-2.984q1.735-3.366.074-10.68-1.4-6.154-4.527-8.429a8.705,8.705,0,0,0-7.379-1.307,8.393,8.393,0,0,0-5.886,4.371Q99,121.87,100.518,128.529Z" transform="translate(-86.197 -74.774)" fill="#263238"/>
        <path id="Path_32910" data-name="Path 32910" d="M118.782,125.5a16.194,16.194,0,0,1,2.17-13.015q3.81-5.792,12.105-7.676,9.486-2.157,15.582,2.241a17.64,17.64,0,0,1,4.257,23.063q-3.774,5.751-12.307,7.691-7.61,1.73-13.188-1.068A15.906,15.906,0,0,1,118.782,125.5Zm12.125-2.786q.957,4.22,3.128,5.855a5.746,5.746,0,0,0,8.6-1.924q1.229-2.375.228-6.773-.933-4.1-3.084-5.726a5.409,5.409,0,0,0-4.648-1.053,5.617,5.617,0,0,0-3.907,3.031Q129.959,118.553,130.906,122.717Z" transform="translate(-66.437 -74.078)" fill="#263238"/>
        <path id="Path_32911" data-name="Path 32911" d="M152.361,147.455l-9.909-43.587,11.328-2.577,1.06,4.668A15.484,15.484,0,0,1,158.246,101a12.677,12.677,0,0,1,5.539-2.727,11.62,11.62,0,0,1,10.9,2.618,20.582,20.582,0,0,1,6.188,11.2q1.794,7.879-1.042,12.884a12.662,12.662,0,0,1-8.6,6.318,13.564,13.564,0,0,1-5.316.207,12.416,12.416,0,0,1-4.758-1.887l3.427,15.073Zm5.831-30.468q.851,3.747,2.839,5.2a5.176,5.176,0,0,0,4.4.908,4.519,4.519,0,0,0,3.143-2.543q1.03-2.065.086-6.227-.872-3.837-2.768-5.295a4.659,4.659,0,0,0-4.036-.976,5.008,5.008,0,0,0-3.453,2.692Q157.265,112.916,158.193,116.986Z" transform="translate(-51.557 -77.903)" fill="#263238"/>
        <path id="Path_32912" data-name="Path 32912" d="M170.2,121.116l11.755-3.862a6.091,6.091,0,0,0,2.777,2.592,6.367,6.367,0,0,0,3.778.11,6.191,6.191,0,0,0,3.539-1.9,2.378,2.378,0,0,0,.6-2.167,2.258,2.258,0,0,0-1.826-1.706,25.606,25.606,0,0,0-5.485-.066,55.723,55.723,0,0,1-9.219-.042,9.472,9.472,0,0,1-4.851-2.225,8.425,8.425,0,0,1-2.836-4.7,8.539,8.539,0,0,1,.591-5.788,11.076,11.076,0,0,1,4.228-4.508,27.224,27.224,0,0,1,8.281-3.054,30.275,30.275,0,0,1,8.536-1.032,11.146,11.146,0,0,1,5.1,1.655,14.346,14.346,0,0,1,4.1,4.227l-11.22,3.74a4.008,4.008,0,0,0-1.992-1.892,6.212,6.212,0,0,0-3.666-.17,5.029,5.029,0,0,0-2.823,1.406,2.228,2.228,0,0,0-.535,1.981,1.928,1.928,0,0,0,1.588,1.48,19.634,19.634,0,0,0,5.416-.107,36.3,36.3,0,0,1,9.41-.139,10.145,10.145,0,0,1,5.295,2.449,8.76,8.76,0,0,1,2.689,4.607,10.013,10.013,0,0,1-.441,5.691,11.474,11.474,0,0,1-4.269,5.3,25.712,25.712,0,0,1-9.329,3.729q-8.652,1.968-12.884.333A11.372,11.372,0,0,1,170.2,121.116Z" transform="translate(-35.711 -81.079)" fill="#263238"/>
        <path id="Path_32913" data-name="Path 32913" d="M193.849,85.594l13.262-.074.058,10.184-2.446,20.473-8.2.045-2.616-20.444Zm.648,33.75,12.378-.069.061,10.945-12.378.069Z" transform="translate(-19.91 -85.52)" fill="#263238"/>
      </g>
    </g>
  </g>
</svg>
