<svg xmlns="http://www.w3.org/2000/svg" width="20.672" height="24.947" viewBox="0 0 20.672 24.947">
  <path id="apple" d="M4.447,23.941A12.745,12.745,0,0,1,2.67,21.779a15.028,15.028,0,0,1-1.88-3.8A14.11,14.11,0,0,1,0,13.459,8.365,8.365,0,0,1,1.067,9.137,6.324,6.324,0,0,1,3.3,6.838a5.948,5.948,0,0,1,3.022-.867,7.01,7.01,0,0,1,2.338.554,7.42,7.42,0,0,0,1.854.554,10.951,10.951,0,0,0,2.056-.653,6.706,6.706,0,0,1,2.795-.5,5.909,5.909,0,0,1,4.647,2.488,5.271,5.271,0,0,0-2.742,4.774,5.306,5.306,0,0,0,1.7,3.968,5.58,5.58,0,0,0,1.7,1.134c-.137.4-.28.787-.433,1.156a13.642,13.642,0,0,1-1.319,2.411,12.236,12.236,0,0,1-1.7,2.088,3.273,3.273,0,0,1-2.185.978,5.388,5.388,0,0,1-2.018-.49,5.723,5.723,0,0,0-2.172-.488,5.915,5.915,0,0,0-2.234.488,5.942,5.942,0,0,1-1.931.517l-.1,0A3.142,3.142,0,0,1,4.447,23.941ZM10.363,5.9a3.891,3.891,0,0,1-.029-.473,5.517,5.517,0,0,1,1.424-3.528A5.49,5.49,0,0,1,13.493.571,5.121,5.121,0,0,1,15.477,0,4.572,4.572,0,0,1,15.5.5,5.37,5.37,0,0,1,14.16,3.989a4.679,4.679,0,0,1-3.505,1.918Q10.51,5.907,10.363,5.9Z" fill="#454545"/>
</svg>
