<svg xmlns="http://www.w3.org/2000/svg" xmlns:xlink="http://www.w3.org/1999/xlink" width="522.359" height="426.171" viewBox="0 0 522.359 426.171">
  <defs>
    <linearGradient id="linear-gradient" x1="1" x2="0" y2="1" gradientUnits="objectBoundingBox">
      <stop offset="0" stop-color="#7f8fa6"/>
      <stop offset="1" stop-color="#464451"/>
    </linearGradient>
  </defs>
  <g id="artwork_search" transform="translate(1.065 1.461)">
    <g id="circle" transform="translate(0.395)">
      <path id="Stroke_1" data-name="Stroke 1" d="M0,0V4.446" transform="translate(14.233 194.122)" fill="none" stroke="#d2d8df" stroke-linecap="round" stroke-miterlimit="10" stroke-width="2.921"/>
      <g id="Group_8" data-name="Group 8" transform="translate(0 196.531)">
        <path id="Stroke_2" data-name="Stroke 2" d="M0,0,3.633,3.739" transform="translate(4.248 0)" fill="none" stroke="#d2d8df" stroke-linecap="round" stroke-miterlimit="10" stroke-width="2.921"/>
        <path id="Stroke_4" data-name="Stroke 4" d="M0,0H5.137" transform="translate(0 9.954)" fill="none" stroke="#d2d8df" stroke-linecap="round" stroke-miterlimit="10" stroke-width="2.921"/>
        <path id="Stroke_6" data-name="Stroke 6" d="M0,3.739,3.633,0" transform="translate(3.833 16.347)" fill="none" stroke="#d2d8df" stroke-linecap="round" stroke-miterlimit="10" stroke-width="2.921"/>
      </g>
      <path id="Stroke_9" data-name="Stroke 9" d="M0,4.446V0" transform="translate(14.233 213.386)" fill="none" stroke="#d2d8df" stroke-linecap="round" stroke-miterlimit="10" stroke-width="2.921"/>
      <path id="Stroke_10" data-name="Stroke 10" d="M2.964,2.964,0,0" transform="translate(18.678 211.904)" fill="none" stroke="#d2d8df" stroke-linecap="round" stroke-miterlimit="10" stroke-width="2.921"/>
      <path id="Stroke_11" data-name="Stroke 11" d="M4.446,0H0" transform="translate(23.124 207.459)" fill="none" stroke="#d2d8df" stroke-linecap="round" stroke-miterlimit="10" stroke-width="2.921"/>
      <path id="Stroke_12" data-name="Stroke 12" d="M2.964,0,0,2.964" transform="translate(21.642 197.086)" fill="none" stroke="#d2d8df" stroke-linecap="round" stroke-miterlimit="10" stroke-width="2.921"/>
      <path id="Stroke_13" data-name="Stroke 13" d="M0,0V2.964" transform="translate(252.81)" fill="none" stroke="#d2d8df" stroke-linecap="round" stroke-miterlimit="10" stroke-width="2.921"/>
      <path id="Stroke_15" data-name="Stroke 15" d="M0,0H2.964" transform="translate(243.919 8.891)" fill="none" stroke="#d2d8df" stroke-linecap="round" stroke-miterlimit="10" stroke-width="2.921"/>
      <path id="Stroke_16" data-name="Stroke 16" d="M0,2.964V0" transform="translate(252.81 14.818)" fill="none" stroke="#d2d8df" stroke-linecap="round" stroke-miterlimit="10" stroke-width="2.921"/>
      <path id="Stroke_17" data-name="Stroke 17" d="M2.964,0H0" transform="translate(257.256 8.891)" fill="none" stroke="#d2d8df" stroke-linecap="round" stroke-miterlimit="10" stroke-width="2.921"/>
      <path id="Stroke_18" data-name="Stroke 18" d="M0,0V4.446" transform="translate(80.916 124.475)" fill="none" stroke="#d2d8df" stroke-linecap="round" stroke-miterlimit="10" stroke-width="2.921"/>
      <path id="Stroke_19" data-name="Stroke 19" d="M0,0H4.446" transform="translate(67.579 137.812)" fill="none" stroke="#d2d8df" stroke-linecap="round" stroke-miterlimit="10" stroke-width="2.921"/>
      <path id="Stroke_20" data-name="Stroke 20" d="M0,4.446V0" transform="translate(80.916 145.221)" fill="none" stroke="#d2d8df" stroke-linecap="round" stroke-miterlimit="10" stroke-width="2.921"/>
      <path id="Stroke_21" data-name="Stroke 21" d="M4.446,0H0" transform="translate(88.325 137.812)" fill="none" stroke="#d2d8df" stroke-linecap="round" stroke-miterlimit="10" stroke-width="2.921"/>
      <g id="Group_42" data-name="Group 42" transform="translate(38.347 41.01)">
        <path id="Stroke_22" data-name="Stroke 22" d="M6.413,0A6.415,6.415,0,1,1,0,6.415" transform="translate(355.129 245.044)" fill="none" stroke="#d2d8df" stroke-linecap="round" stroke-miterlimit="10" stroke-width="2.921"/>
        <path id="Fill_26" data-name="Fill 26" d="M0,10.856C3.808,9.668,9.645,5.011,11,0c1.225,4.429,6.362,9.668,11,10.064C16.776,11.912,11.788,17.4,11,21.71,10.458,17.316,3.559,11.5,0,10.856" transform="translate(390.895 175.988)" fill="#ebecee"/>
        <path id="Fill_28" data-name="Fill 28" d="M0,5.427C1.9,4.833,4.822,2.505,5.5,0,6.11,2.213,8.678,4.833,11,5.032c-2.608.922-5.1,3.667-5.5,5.822C5.228,8.657,1.779,5.747,0,5.427" transform="translate(0 237.64)" fill="#ebecee"/>
        <path id="Fill_30" data-name="Fill 30" d="M9.946,4.974A4.973,4.973,0,1,1,4.973,0,4.973,4.973,0,0,1,9.946,4.974" transform="translate(25.399 31.957)" fill="#d1d8df"/>
        <path id="Fill_32" data-name="Fill 32" d="M16.625,8.314A8.312,8.312,0,1,1,8.313,0a8.314,8.314,0,0,1,8.312,8.314" transform="translate(350.793 41.973)" fill="#ebecee"/>
        <path id="Fill_34" data-name="Fill 34" d="M13.185,6.6A6.593,6.593,0,1,1,6.593,0a6.593,6.593,0,0,1,6.592,6.6" transform="translate(469.366 21.167)" fill="#ebecee"/>
        <path id="Stroke_36" data-name="Stroke 36" d="M8.312,4.158A4.156,4.156,0,1,1,4.155,0,4.157,4.157,0,0,1,8.312,4.158Z" transform="translate(119.974 331.618)" fill="none" stroke="#d2d8df" stroke-linecap="round" stroke-miterlimit="10" stroke-width="2.921"/>
        <path id="Stroke_38" data-name="Stroke 38" d="M9.946,4.974A4.973,4.973,0,1,1,4.973,0,4.973,4.973,0,0,1,9.946,4.974Z" transform="translate(115.867 0)" fill="none" stroke="#d2d8df" stroke-linecap="round" stroke-miterlimit="10" stroke-width="2.921"/>
        <path id="Stroke_40" data-name="Stroke 40" d="M8.347,11.914a6.157,6.157,0,1,1,3.564-7.945A6.157,6.157,0,0,1,8.347,11.914Z" transform="translate(244.317 369.9)" fill="none" stroke="#d2d8df" stroke-linecap="round" stroke-miterlimit="10" stroke-width="2.921"/>
      </g>
    </g>
    <g id="search" transform="translate(131.693 100.766)">
      <g id="documents" transform="translate(0)">
        <path id="Fill_1" data-name="Fill 1" d="M137.073,204.495H15.554A15.626,15.626,0,0,1,0,188.891V15.6A15.623,15.623,0,0,1,15.554,0H137.073A15.624,15.624,0,0,1,152.63,15.6V188.891a15.627,15.627,0,0,1-15.558,15.6" transform="translate(20.747)" fill="#e0e2ee"/>
        <path id="Fill_3" data-name="Fill 3" d="M137.073,204.495H15.554A15.626,15.626,0,0,1,0,188.891V15.6A15.623,15.623,0,0,1,15.554,0H137.073A15.624,15.624,0,0,1,152.63,15.6V188.891a15.627,15.627,0,0,1-15.558,15.6" transform="translate(10.374 7.409)" fill="#e8ebf2"/>
        <path id="Fill_5" data-name="Fill 5" d="M137.356,203.648H15.586A15.61,15.61,0,0,1,0,188.109V15.536A15.607,15.607,0,0,1,15.586,0h121.77a15.607,15.607,0,0,1,15.59,15.536V188.109a15.61,15.61,0,0,1-15.59,15.539" transform="translate(0 14.105)" fill="#d8dbea"/>
        <path id="Fill_8" data-name="Fill 8" d="M137.356,203.648H15.586A15.61,15.61,0,0,1,0,188.109V15.536A15.607,15.607,0,0,1,15.586,0h121.77a15.607,15.607,0,0,1,15.59,15.536V188.109a15.61,15.61,0,0,1-15.59,15.539" transform="translate(0 14.105)" fill="#f1f2f7"/>
        <path id="Fill_11" data-name="Fill 11" d="M94.613,8.891H4.671A4.576,4.576,0,0,1,0,4.447,4.576,4.576,0,0,1,4.671,0H94.613a4.576,4.576,0,0,1,4.671,4.447,4.576,4.576,0,0,1-4.671,4.444" transform="translate(25.192 57.792)" fill="#e0e2ee"/>
        <path id="Fill_13" data-name="Fill 13" d="M94.613,8.891H4.671A4.576,4.576,0,0,1,0,4.447,4.576,4.576,0,0,1,4.671,0H94.613a4.576,4.576,0,0,1,4.671,4.447,4.576,4.576,0,0,1-4.671,4.444" transform="translate(25.192 84.465)" fill="#e0e2ee"/>
        <path id="Fill_15" data-name="Fill 15" d="M94.613,8.891H4.671A4.576,4.576,0,0,1,0,4.447,4.579,4.579,0,0,1,4.671,0H94.613a4.579,4.579,0,0,1,4.671,4.447,4.576,4.576,0,0,1-4.671,4.444" transform="translate(25.192 111.139)" fill="#e0e2ee"/>
        <path id="Fill_17" data-name="Fill 17" d="M94.613,8.891H4.671A4.576,4.576,0,0,1,0,4.447,4.576,4.576,0,0,1,4.671,0H94.613a4.576,4.576,0,0,1,4.671,4.447,4.576,4.576,0,0,1-4.671,4.444" transform="translate(25.192 137.812)" fill="#e0e2ee"/>
        <path id="Fill_19" data-name="Fill 19" d="M51.619,8.891H4.691A4.587,4.587,0,0,1,0,4.447,4.587,4.587,0,0,1,4.691,0H51.619A4.587,4.587,0,0,1,56.31,4.447a4.587,4.587,0,0,1-4.691,4.444" transform="translate(25.192 164.485)" fill="#e0e2ee"/>
      </g>
      <g id="search-2" data-name="search" transform="translate(71.129 40.01)">
        <path id="Fill_21" data-name="Fill 21" d="M88.548,88.521a51.9,51.9,0,0,1-66.041,6.127,54.526,54.526,0,0,1-7.335-6.127A50.164,50.164,0,0,1,6.393,76.764a49.564,49.564,0,0,1-5.438-15A51.863,51.863,0,0,1,61.784.943,51.288,51.288,0,0,1,76.789,6.38a52.141,52.141,0,0,1,8.059,5.471,49.311,49.311,0,0,1,3.666,3.341,51.709,51.709,0,0,1,.034,73.329" transform="translate(11.855 10.373)" fill="rgba(255,255,255,0.1)"/>
        <path id="Fill_23" data-name="Fill 23" d="M61.507,122.995A61.433,61.433,0,1,1,110.874,98.2,62.108,62.108,0,0,1,105,104.986a62.834,62.834,0,0,1-6.782,5.88,61.393,61.393,0,0,1-36.706,12.127h0ZM61.5,13.608A47.892,47.892,0,0,0,27.623,95.352,47.89,47.89,0,1,0,95.349,27.625,47.557,47.557,0,0,0,61.5,13.608Z" transform="translate(0 0)" fill="#e0e2ee"/>
        <path id="Fill_25" data-name="Fill 25" d="M86.869,85.861l-1.008,1.008a17.21,17.21,0,0,1-24.268,0L0,25.276,25.276,0,86.869,61.593a17.21,17.21,0,0,1,0,24.268" transform="translate(112.621 109.657)" fill="url(#linear-gradient)"/>
        <path id="Fill_27" data-name="Fill 27" d="M12.918,0l18.2,18.2L18.2,31.119,0,12.918a64.068,64.068,0,0,0,6.921-6,62.943,62.943,0,0,0,6-6.917" transform="translate(99.284 96.32)" fill="#e0e2ee"/>
        <path id="Fill_29" data-name="Fill 29" d="M29.637,4.525,4.522,29.637,0,25.112,25.112,0Z" transform="translate(168.931 165.967)" fill="#7f8fa6"/>
        <path id="Fill_31" data-name="Fill 31" d="M29.637,3.833l-25.8,25.8L0,25.8,25.8,0Z" transform="translate(109.657 106.693)" fill="#7f8fa6"/>
        <path id="Fill_33" data-name="Fill 33" d="M68.165,4.888,4.885,68.165A44.464,44.464,0,0,1,0,54.677L54.676,0A46.2,46.2,0,0,1,68.165,4.888" transform="translate(14.819 16.3)" fill="rgba(255,255,255,0.5)"/>
        <path id="Fill_35" data-name="Fill 35" d="M78.538,9.556,10.125,74.092a50.853,50.853,0,0,1-6.956-5.48A45.219,45.219,0,0,1,0,65.33L69.246,0c1.212.938,2.364,1.937,3.48,2.993a47.186,47.186,0,0,1,5.812,6.563" transform="translate(25.192 26.673)" fill="rgba(255,255,255,0.5)"/>
      </g>
    </g>
  </g>
</svg>
