<svg id="bag" xmlns="http://www.w3.org/2000/svg" width="20" height="20" viewBox="0 0 20 20">
  <g id="Icon_Shop_2" data-name="Icon/Shop 2">
    <rect id="Box" width="20" height="20" fill="none"/>
    <path id="Icon_bag-16" data-name="Icon/bag-16" d="M.892,20A.9.9,0,0,1,0,19.091V4.215Q0,4.2,0,4.191v0c0-.007,0-.013,0-.02v0a.908.908,0,0,1,.26-.594L3.5.266A.877.877,0,0,1,4.135,0h9.729A.877.877,0,0,1,14.5.266l3.244,3.306a.909.909,0,0,1,.26.594v0c0,.007,0,.013,0,.02v0q0,.012,0,.023V19.091a.9.9,0,0,1-.892.909Zm.892-1.818H16.216V5.124H1.784ZM14.955,3.306,13.5,1.818H4.5L3.045,3.306ZM4.055,8.347a.892.892,0,1,1,1.783,0,3.163,3.163,0,1,0,6.325,0,.892.892,0,1,1,1.783,0,4.946,4.946,0,1,1-9.891,0Z" transform="translate(1)" fill="#464451"/>
  </g>
</svg>
