<svg id="bag_m" xmlns="http://www.w3.org/2000/svg" width="20" height="20" viewBox="0 0 20 20">
  <g id="Icon_Shop_2" data-name="Icon/Shop 2">
    <rect id="Box" width="20" height="20" fill="none"/>
    <path id="Icon_bag-16" data-name="Icon/bag-16" d="M.892,0A.9.9,0,0,0,0,.909V15.785q0,.012,0,.023v0c0,.007,0,.013,0,.02v0a.908.908,0,0,0,.26.594L3.5,19.733A.877.877,0,0,0,4.135,20h9.729a.877.877,0,0,0,.631-.266l3.244-3.306a.909.909,0,0,0,.26-.594v0c0-.007,0-.013,0-.02v0q0-.012,0-.023V.909A.9.9,0,0,0,17.108,0Zm.892,1.818H16.216V14.876H1.784ZM14.955,16.694,13.5,18.182H4.5L3.045,16.694Zm-10.9-5.042a.892.892,0,1,0,1.783,0,3.163,3.163,0,1,1,6.325,0,.892.892,0,1,0,1.783,0,4.946,4.946,0,1,0-9.891,0Z" transform="translate(19 20) rotate(180)" fill="#7f8fa6"/>
  </g>
</svg>
