<svg id="bhrin" xmlns="http://www.w3.org/2000/svg" xmlns:xlink="http://www.w3.org/1999/xlink" width="20.773" height="20.774" viewBox="0 0 20.773 20.774">
  <defs>
    <clipPath id="clip-path">
      <path id="Clip_3078" data-name="Clip 3078" d="M0,10.388A10.387,10.387,0,0,0,10.387,20.774h0A10.387,10.387,0,0,0,20.774,10.388h0A10.387,10.387,0,0,0,10.387,0h0A10.387,10.387,0,0,0,0,10.388Z" fill="none"/>
    </clipPath>
  </defs>
  <g id="Group_3079" data-name="Group 3079" transform="translate(0 0)">
    <path id="Clip_3078-2" data-name="Clip 3078" d="M0,10.388A10.387,10.387,0,0,0,10.387,20.774h0A10.387,10.387,0,0,0,20.774,10.388h0A10.387,10.387,0,0,0,10.387,0h0A10.387,10.387,0,0,0,0,10.388Z" fill="none"/>
    <g id="Group_3079-2" data-name="Group 3079" clip-path="url(#clip-path)">
      <path id="Fill_3077" data-name="Fill 3077" d="M26.51,0H0L5.372,2.13.077,4.3,5.393,6.457.055,8.61l5.339,2.153L.033,12.916,5.35,15.068.033,17.221,5.35,19.374.03,21.526H26.51Z" transform="translate(6.763 -0.455)" fill="#cd1225"/>
    </g>
  </g>
</svg>
