<svg xmlns="http://www.w3.org/2000/svg" width="99.278" height="99.136" viewBox="0 0 99.278 99.136">
  <g id="ciircle" transform="translate(-0.001)">
    <path id="Line" d="M.6,16.751a2.38,2.38,0,0,0,.2,3.362h0a2.381,2.381,0,0,0,3.362-.2h0A45.2,45.2,0,0,1,37.9,4.762h0A45.2,45.2,0,0,1,83.047,49.907h0A45.03,45.03,0,0,1,62.46,87.794h0a2.381,2.381,0,0,0-.7,3.294h0a2.379,2.379,0,0,0,2,1.084h0a2.38,2.38,0,0,0,1.3-.384h0A49.779,49.779,0,0,0,87.809,49.907h0A49.962,49.962,0,0,0,37.9,0h0A49.965,49.965,0,0,0,.6,16.751" transform="translate(87.81 99.136) rotate(180)" fill="#8f92a1" opacity="0.2"/>
    <path id="Line-2" data-name="Line" d="M.6,16.751a2.38,2.38,0,0,0,.2,3.362h0a2.381,2.381,0,0,0,3.362-.2h0A45.2,45.2,0,0,1,37.9,4.762h0A45.2,45.2,0,0,1,83.047,49.907h0A45.03,45.03,0,0,1,62.46,87.794h0a2.381,2.381,0,0,0-.7,3.294h0a2.379,2.379,0,0,0,2,1.084h0a2.38,2.38,0,0,0,1.3-.384h0A49.779,49.779,0,0,0,87.809,49.907h0A49.962,49.962,0,0,0,37.9,0h0A49.965,49.965,0,0,0,.6,16.751" transform="translate(11.47)" fill="#e22453"/>
  </g>
</svg>
