<svg xmlns="http://www.w3.org/2000/svg" width="27.816" height="19.345" viewBox="0 0 27.816 19.345">
  <path id="delivery" d="M-491.506-18.937h-5.167a3.487,3.487,0,0,1-3.363,2.582,3.487,3.487,0,0,1-3.363-2.582h-2.264a.87.87,0,0,1-.87-.87.87.87,0,0,1,.87-.87h2.249a3.487,3.487,0,0,1,3.378-2.64,3.487,3.487,0,0,1,3.377,2.64h5.138a3.487,3.487,0,0,1,3.377-2.64,3.487,3.487,0,0,1,3.378,2.64h1.64v-4.487l-1.267-1.633h-6.768a.87.87,0,0,1-.87-.87V-33.76h-13.633a.87.87,0,0,1-.87-.87.87.87,0,0,1,.87-.869h14.5a.87.87,0,0,1,.87.869v.87h3.713a.871.871,0,0,1,.778.48l2.611,5.192h0l1.623,2.09a.876.876,0,0,1,.183.534v5.656a.87.87,0,0,1-.87.87h-2.525a3.487,3.487,0,0,1-3.363,2.582A3.487,3.487,0,0,1-491.506-18.937Zm1.622-.9a1.742,1.742,0,0,0,1.741,1.741,1.742,1.742,0,0,0,1.741-1.741,1.742,1.742,0,0,0-1.741-1.741A1.743,1.743,0,0,0-489.884-19.836Zm-11.893,0a1.742,1.742,0,0,0,1.741,1.741,1.742,1.742,0,0,0,1.741-1.741,1.743,1.743,0,0,0-1.741-1.741A1.742,1.742,0,0,0-501.777-19.836Zm11.487-8.7h4.926l-1.75-3.481h-3.176Zm-16.418,5.192a.87.87,0,0,1-.87-.87.87.87,0,0,1,.87-.87h4a.87.87,0,0,1,.87.87.87.87,0,0,1-.87.87Zm-1.422-3.423a.87.87,0,0,1-.87-.87.87.87,0,0,1,.87-.87h7.426a.87.87,0,0,1,.87.87.87.87,0,0,1-.87.87Zm1.422-3.423a.87.87,0,0,1-.87-.87.87.87,0,0,1,.87-.87h7.426a.87.87,0,0,1,.87.87.87.87,0,0,1-.87.87Z" transform="translate(509.1 35.6)" fill="#464451" stroke="#fff" stroke-width="0.2"/>
</svg>
