<svg xmlns="http://www.w3.org/2000/svg" width="239" height="66" viewBox="0 0 239 66">
  <path id="dots" d="M223.739,63.5a2.544,2.544,0,1,1,2.544,2.5A2.523,2.523,0,0,1,223.739,63.5Zm-20.347,0a2.544,2.544,0,1,1,2.543,2.5A2.522,2.522,0,0,1,203.392,63.5Zm-20.348,0a2.544,2.544,0,1,1,2.543,2.5A2.522,2.522,0,0,1,183.044,63.5Zm-20.348,0a2.544,2.544,0,1,1,2.543,2.5A2.523,2.523,0,0,1,162.7,63.5Zm-20.347,0a2.544,2.544,0,1,1,2.543,2.5A2.522,2.522,0,0,1,142.349,63.5ZM122,63.5a2.544,2.544,0,1,1,2.543,2.5A2.522,2.522,0,0,1,122,63.5Zm-20.262,0a2.544,2.544,0,1,1,2.544,2.5A2.523,2.523,0,0,1,101.739,63.5Zm-20.347,0A2.544,2.544,0,1,1,83.935,66,2.522,2.522,0,0,1,81.392,63.5Zm-20.348,0A2.544,2.544,0,1,1,63.587,66,2.522,2.522,0,0,1,61.043,63.5ZM40.7,63.5A2.544,2.544,0,1,1,43.239,66,2.523,2.523,0,0,1,40.7,63.5Zm-20.347,0A2.544,2.544,0,1,1,22.892,66,2.522,2.522,0,0,1,20.348,63.5ZM0,63.5A2.522,2.522,0,0,1,2.543,61a2.5,2.5,0,1,1,0,5A2.522,2.522,0,0,1,0,63.5Zm233.913-20a2.544,2.544,0,1,1,2.544,2.5A2.523,2.523,0,0,1,233.913,43.5Zm-20.347,0a2.544,2.544,0,1,1,2.543,2.5A2.522,2.522,0,0,1,213.566,43.5Zm-20.348,0a2.544,2.544,0,1,1,2.543,2.5A2.522,2.522,0,0,1,193.217,43.5Zm-20.348,0a2.544,2.544,0,1,1,2.543,2.5A2.523,2.523,0,0,1,172.869,43.5Zm-20.347,0a2.544,2.544,0,1,1,2.543,2.5A2.522,2.522,0,0,1,152.522,43.5Zm-20.348,0a2.544,2.544,0,1,1,2.543,2.5A2.522,2.522,0,0,1,132.174,43.5Zm-20.262,0a2.544,2.544,0,1,1,2.544,2.5A2.523,2.523,0,0,1,111.912,43.5Zm-20.347,0A2.544,2.544,0,1,1,94.109,46,2.522,2.522,0,0,1,91.565,43.5Zm-20.348,0A2.544,2.544,0,1,1,73.76,46,2.522,2.522,0,0,1,71.217,43.5Zm-20.348,0A2.544,2.544,0,1,1,53.412,46,2.523,2.523,0,0,1,50.869,43.5Zm-20.347,0A2.544,2.544,0,1,1,33.065,46,2.522,2.522,0,0,1,30.522,43.5Zm-20.348,0A2.544,2.544,0,1,1,12.717,46,2.522,2.522,0,0,1,10.174,43.5Zm213.566-21a2.544,2.544,0,1,1,2.544,2.5A2.523,2.523,0,0,1,223.739,22.5Zm-20.347,0a2.544,2.544,0,1,1,2.543,2.5A2.522,2.522,0,0,1,203.392,22.5Zm-20.348,0a2.544,2.544,0,1,1,2.543,2.5A2.522,2.522,0,0,1,183.044,22.5Zm-20.348,0a2.544,2.544,0,1,1,2.543,2.5A2.523,2.523,0,0,1,162.7,22.5Zm-20.347,0a2.544,2.544,0,1,1,2.543,2.5A2.522,2.522,0,0,1,142.349,22.5ZM122,22.5a2.544,2.544,0,1,1,2.543,2.5A2.522,2.522,0,0,1,122,22.5Zm-20.262,0a2.544,2.544,0,1,1,2.544,2.5A2.523,2.523,0,0,1,101.739,22.5Zm-20.347,0A2.544,2.544,0,1,1,83.935,25,2.522,2.522,0,0,1,81.392,22.5Zm-20.348,0A2.544,2.544,0,1,1,63.587,25,2.522,2.522,0,0,1,61.043,22.5ZM40.7,22.5A2.544,2.544,0,1,1,43.239,25,2.523,2.523,0,0,1,40.7,22.5Zm-20.347,0A2.544,2.544,0,1,1,22.892,25,2.522,2.522,0,0,1,20.348,22.5ZM0,22.5A2.522,2.522,0,0,1,2.543,20a2.5,2.5,0,1,1,0,5A2.522,2.522,0,0,1,0,22.5Zm233.913-20A2.544,2.544,0,0,1,239,2.5a2.544,2.544,0,0,1-5.088,0Zm-20.347,0a2.544,2.544,0,0,1,5.087,0,2.544,2.544,0,0,1-5.087,0Zm-20.348,0a2.544,2.544,0,0,1,5.087,0,2.544,2.544,0,0,1-5.087,0Zm-20.348,0a2.544,2.544,0,0,1,5.088,0,2.544,2.544,0,0,1-5.088,0Zm-20.347,0a2.544,2.544,0,0,1,5.087,0,2.544,2.544,0,0,1-5.087,0Zm-20.348,0a2.544,2.544,0,0,1,5.087,0,2.544,2.544,0,0,1-5.087,0Zm-20.262,0A2.544,2.544,0,0,1,117,2.5a2.544,2.544,0,0,1-5.088,0Zm-20.347,0a2.544,2.544,0,0,1,5.087,0,2.544,2.544,0,0,1-5.087,0Zm-20.348,0a2.544,2.544,0,0,1,5.087,0,2.544,2.544,0,0,1-5.087,0Zm-20.348,0a2.544,2.544,0,0,1,5.088,0,2.544,2.544,0,0,1-5.088,0Zm-20.347,0a2.544,2.544,0,0,1,5.087,0,2.544,2.544,0,0,1-5.087,0Zm-20.348,0a2.544,2.544,0,0,1,5.087,0,2.544,2.544,0,0,1-5.087,0Z" fill="#888"/>
</svg>
