<svg xmlns="http://www.w3.org/2000/svg" width="78" height="64" viewBox="0 0 78 64">
  <path id="dual" d="M66.724,61.086a2.845,2.845,0,0,1,2.942-2.9,2.707,2.707,0,0,1,2.615,1.645l-.736.2A2.053,2.053,0,0,0,69.676,58.9a2.19,2.19,0,1,0,1.9,3.263l.746.2a2.953,2.953,0,0,1-5.6-1.276Zm-34.326,0a2.983,2.983,0,1,1,2.982,2.9A2.848,2.848,0,0,1,32.4,61.086Zm1.332,0a1.651,1.651,0,1,0,1.65-1.7A1.6,1.6,0,0,0,33.729,61.086Zm-26.4.189V58.293H8.663v3.1c0,.967.417,1.4,1.243,1.4s1.243-.43,1.243-1.4v-3.1h1.3v2.983c0,1.877-1.014,2.714-2.565,2.714S7.332,63.152,7.332,61.275ZM39.3,63.881v-5.59h1.31v5.59Zm37.924,0V61.365H74.173V63.88H73.4V58.293h.776v2.345h3.051V58.293H78V63.88Zm-15.136,0V58.293h3.907v.728H62.864v1.617h2.415v.708H62.864v1.806h3.181v.728Zm-3.543,0V57.654H56.159V56.9h5.6v.758h-2.4V63.88Zm-8.713,0V59.52H48V58.293h4.971V59.52h-1.83v4.36Zm-4.149,0-2.5-3.562h-.031c0,.01.021.608.021,1.247V63.88H41.856V58.293h1.352l2.5,3.462h.03c0-.009-.01-.528-.01-1.1V58.293h1.313V63.88Zm-18.955,0V56.9h2.436c1.67,0,2.684.849,2.684,2.335,0,1.438-1.014,2.324-2.684,2.324H28.109V63.88Zm1.381-3.542H29.2c.855,0,1.262-.41,1.262-1.087,0-.7-.428-1.088-1.262-1.088H28.109ZM19.377,63.88V58.293h1.312v4.36h2.594V63.88Zm-2.152,0-.4-1.148h-2.3l-.388,1.148H12.8l2.078-5.588H16.5l2.078,5.588Zm-2.038-3.1-.278.829h1.54l-.308-.887c-.319-.918-.437-1.327-.447-1.347h-.03ZM0,63.88V56.9H2.784a3.447,3.447,0,0,1,3.668,3.522A3.4,3.4,0,0,1,2.8,63.88Zm1.383-1.287H2.724a2.11,2.11,0,0,0,2.337-2.176A2.167,2.167,0,0,0,2.7,58.184H1.383Zm38.965-16.91-3.591,3.6V36.394L46.771,26.343h0l.415-.416L41.245,20.1v4.717L31.229,34.869l-4.352,4.368L16.862,49.287v-3.6l-3.591,3.6V36.394L23.286,26.343h0l.415-.416-6.01-5.893,9.947-9.982v3.6l1.886-1.893L27.706,9.982,37.653,0V3.6L41.245,0V4.51L36.068,9.7l5.177,5.2v5.064l9.878-9.914v3.6l1.886-1.892L51.193,9.982,61.139,0V3.6L64.73,0V4.51L59.554,9.7l5.176,5.2v9.917L54.716,34.869l-4.352,4.368L40.348,49.287ZM31.229,14.561l-5.177,5.195,1.9,1.905,5.766-5.786-2.487-2.438Zm23.486,0-5.177,5.195,1.9,1.9L57.2,15.875l-2.487-2.438Z" fill="#cfcfcf"/>
</svg>
