<svg xmlns="http://www.w3.org/2000/svg" xmlns:xlink="http://www.w3.org/1999/xlink" width="20.773" height="20.774" viewBox="0 0 20.773 20.774">
  <defs>
    <clipPath id="clip-path">
      <path id="Clip_192" data-name="Clip 192" d="M0,10.387A10.387,10.387,0,0,0,10.386,20.774h0A10.387,10.387,0,0,0,20.773,10.387h0A10.387,10.387,0,0,0,10.386,0h0A10.387,10.387,0,0,0,0,10.387Z" fill="none"/>
    </clipPath>
  </defs>
  <g id="eg" clip-path="url(#clip-path)">
    <path id="Fill_191" data-name="Fill 191" d="M0,7.285H35.391V0H0Z" transform="translate(-7.309 -0.54)" fill="#cd1225"/>
    <path id="Fill_193" data-name="Fill 193" d="M0,7.289H35.391V0H0Z" transform="translate(-7.309 14.025)"/>
    <path id="Fill_194" data-name="Fill 194" d="M0,7.28H35.391V0H0Z" transform="translate(-7.309 6.744)" fill="#fff"/>
    <path id="Fill_195" data-name="Fill 195" d="M2.514.049s0-.085.259-.032.483.1.483.508a2.035,2.035,0,0,0,.18,1.057,1.59,1.59,0,0,0,.806-.238c.331-.176.818-.291.99.017,0,0,.08.017.08.595s.093,1.824.093,1.824.107,1.9.071,2.1C5.25,5.67,4.013,4.658,4.013,4.658l.323.991s.2-.1.291-.021c.178,0,.271.135.2.344.128,0,.2.181.248.181s.095,0,.095.043-.069.046-.069.046-.026.205-.164.242c0,.139.022.218-.411.3a15.653,15.653,0,0,1-2.389.124A8.442,8.442,0,0,1,.721,6.719s-.173,0-.173-.222A.277.277,0,0,1,.394,6.26a.076.076,0,0,1-.067-.078s.014-.028.093-.028a.287.287,0,0,1,.225-.169c-.022-.188.018-.335.23-.359.056-.052.142,0,.291.024.1-.34.293-.979.293-.979L0,5.891.1,3.564.19,1.527S.274.993.934,1.22a2.7,2.7,0,0,0,1.105.36A1.429,1.429,0,0,0,2.39.456.219.219,0,0,0,2.044.334c-.086-.08-.086-.425.471-.284" transform="translate(7.638 6.936)" fill="#bf920d"/>
    <path id="Fill_196" data-name="Fill 196" d="M.717.235S.753.1,1.076.128c.119,0,.119.324.119.488a1.912,1.912,0,0,0,.23.959c-.146,0-.239-.029-.286-.188A5.968,5.968,0,0,1,1.027.776H.974a2.463,2.463,0,0,0,.225.861c-.216-.069-.274-.1-.3-.19S.872.739.872.739l-.058,0,.04.78-.128.118L.6,1.514a1.782,1.782,0,0,0,.133-.8H.686A1.926,1.926,0,0,1,.54,1.5a1.66,1.66,0,0,1-.235.156l.036-.148A1.62,1.62,0,0,0,.593.718H.549a1.974,1.974,0,0,1-.239.767A.968.968,0,0,1,0,1.6,1.527,1.527,0,0,0,.434.378H.6S.394.084.279.084A.218.218,0,0,0,.053.2C.039.08.1-.028.272.007s.25.157.3.157.076,0,.1.052a.064.064,0,0,0,.048.02" transform="translate(9.65 7.023)" fill="#fff"/>
    <path id="Fill_197" data-name="Fill 197" d="M.526.475A.051.051,0,0,1,.472.522.052.052,0,0,1,.416.475.052.052,0,0,1,.472.427.052.052,0,0,1,.526.475" transform="translate(9.871 6.66)" fill="#fff"/>
    <path id="Fill_198" data-name="Fill 198" d="M3.226.4l.1.1A.546.546,0,0,1,3,.448c.026.075.023.129-.071.1A.906.906,0,0,1,2.657.416L2.491.57,2.336.416S2.144.609,2,.609A1.123,1.123,0,0,0,2.058.416a.686.686,0,0,1-.389.1l.107-.1A1.457,1.457,0,0,1,1.253.308,2.189,2.189,0,0,0,.371,0C.064,0,.02.276,0,.42L.283.288l-.19,4.05.093-.086L.371.35.663.579.5,3.989l.117-.108L.774.682,1,.846.88,3.674l.129-.12L1.128.9,1.3.969V.948A2.078,2.078,0,0,0,2.521.628,1.665,1.665,0,0,0,3.685.957V.981L3.879.895l.116,2.652.125.116L4,.846,4.224.678l.15,3.206.118.108L4.348.576,4.64.35l.178,3.9.092.086L4.733.291l.278.127S5,.008,4.662.007c-.593,0-.9.43-1.436.395" transform="translate(7.882 8.15)" fill="#fff"/>
    <path id="Fill_199" data-name="Fill 199" d="M.441,0,.361,1.8l.133-.4L.543.337S.477.135.441,0" transform="translate(8.776 9.647)" fill="#fff"/>
    <path id="Fill_200" data-name="Fill 200" d="M1.145,2.5h0A2.667,2.667,0,0,1,0,.312,2.458,2.458,0,0,0,1.145,0,2.15,2.15,0,0,0,2.287.312,2.554,2.554,0,0,1,1.146,2.5ZM1.155.066h0A2.193,2.193,0,0,1,.054.36a2.674,2.674,0,0,0,.6,1.612,2.108,2.108,0,0,0,.494.457A2.509,2.509,0,0,0,2.225.372h0A2.293,2.293,0,0,1,1.155.066Z" transform="translate(9.239 8.844)" fill="#fff"/>
    <path id="Fill_201" data-name="Fill 201" d="M.424,2.271l.381-.344V.176A1.419,1.419,0,0,1,.429,0,2.651,2.651,0,0,1,0,.185l.008,1.7a2.2,2.2,0,0,0,.416.386" transform="translate(9.961 8.959)" fill="#fff"/>
    <path id="Fill_202" data-name="Fill 202" d="M.358.365.412,1.451l.132.422L.465,0Z" transform="translate(11.089 9.606)" fill="#fff"/>
    <path id="Fill_203" data-name="Fill 203" d="M.377,0l.2.632L.487.816.239.586.275.168Z" transform="translate(10.889 10.422)" fill="#fff"/>
    <path id="Fill_204" data-name="Fill 204" d="M.532.281.505.567.4.467Z" transform="translate(10.574 10.407)" fill="#fff"/>
    <path id="Fill_205" data-name="Fill 205" d="M.438.13.564.248.544.614.292.3Z" transform="translate(10.487 10.783)" fill="#fff"/>
    <path id="Fill_206" data-name="Fill 206" d="M.465.115.553.2.421.618.327.237Z" transform="translate(10.265 11.012)" fill="#fff"/>
    <path id="Fill_207" data-name="Fill 207" d="M.124.2l.2.222L.385,0,.656.252l.1-.178.2.619L.659.423l-.124.3L.318.479l-.1.447L0,.62Z" transform="translate(10.726 11.065)" fill="#fff"/>
    <path id="Fill_208" data-name="Fill 208" d="M.335.031l.216.3L.48.644Z" transform="translate(10.374 11.724)" fill="#fff"/>
    <path id="Fill_209" data-name="Fill 209" d="M0,.481.194.759.31.436.539.751l.147-.5L.409,0l-.1.312L.084.062Z" transform="translate(10.987 11.568)" fill="#fff"/>
    <path id="Fill_210" data-name="Fill 210" d="M.006.388.068.647.276.638.364.392.506.615H.572L.652.327.448.021.338.343.1.04Z" transform="translate(10.87 12.074)" fill="#fff"/>
    <path id="Fill_211" data-name="Fill 211" d="M.356,0,.582.7.449.729.232.468Z" transform="translate(11.343 11.889)" fill="#fff"/>
    <path id="Fill_212" data-name="Fill 212" d="M.392.324l.163.2L.321.554Z" transform="translate(11.175 12.11)" fill="#fff"/>
    <path id="Fill_213" data-name="Fill 213" d="M.441.389.534.517.388.534Z" transform="translate(10.802 12.175)" fill="#fff"/>
    <path id="Fill_214" data-name="Fill 214" d="M.444,0,.24.631.333.815.58.586.545.168Z" transform="translate(9.048 10.441)" fill="#fff"/>
    <path id="Fill_215" data-name="Fill 215" d="M.4.282.422.567l.11-.1Z" transform="translate(9.255 10.426)" fill="#fff"/>
    <path id="Fill_216" data-name="Fill 216" d="M.417.13.292.248.311.614.564.3Z" transform="translate(9.415 10.802)" fill="#fff"/>
    <path id="Fill_217" data-name="Fill 217" d="M.417.115.327.2.46.618.553.237Z" transform="translate(9.611 11.031)" fill="#fff"/>
    <path id="Fill_218" data-name="Fill 218" d="M.828.2l-.2.222L.567,0,.295.252.2.074,0,.693.293.423l.124.3L.633.479l.1.447L.952.62Z" transform="translate(9.079 11.084)" fill="#fff"/>
    <path id="Fill_219" data-name="Fill 219" d="M.551.03l-.216.3L.405.644Z" transform="translate(9.498 11.743)" fill="#fff"/>
    <path id="Fill_220" data-name="Fill 220" d="M.686.482.491.761.376.437.147.752,0,.257.276,0l.1.313L.6.065Z" transform="translate(9.084 11.57)" fill="#fff"/>
    <path id="Fill_221" data-name="Fill 221" d="M.652.388.589.647.381.639.293.394.152.615H.085L.006.327l.2-.307L.32.344.558.04Z" transform="translate(9.229 12.077)" fill="#fff"/>
    <path id="Fill_222" data-name="Fill 222" d="M.458,0,.232.7.365.729.582.467Z" transform="translate(8.613 11.896)" fill="#fff"/>
    <path id="Fill_223" data-name="Fill 223" d="M.485.324.32.521.555.554Z" transform="translate(8.725 12.111)" fill="#fff"/>
    <path id="Fill_224" data-name="Fill 224" d="M.481.39.388.517.534.534Z" transform="translate(9.057 12.171)" fill="#fff"/>
    <path id="Fill_225" data-name="Fill 225" d="M.039.926,0,1.074s.265-.061.318.057a.105.105,0,0,1,.146.1H.556A.128.128,0,0,1,.7,1.121c.058-.054.071-.072.318-.054L.98.918l-.1.091L.744.91.6,0,.648.912l-.136.167L.373.9.417,0,.275.91l-.144.1Z" transform="translate(9.877 11.655)" fill="#fff"/>
    <path id="Fill_226" data-name="Fill 226" d="M1.163.384A1.053,1.053,0,0,1,.895.358C.906.256.864.187.783.175l-.019,0C.7.174.647.226.621.313A6.1,6.1,0,0,1,0,.182a.011.011,0,0,1,0,0A.293.293,0,0,1,.028.011.032.032,0,0,1,.052,0,1.025,1.025,0,0,1,.214.034a3.94,3.94,0,0,0,.492.1,5.341,5.341,0,0,0,.683.056c.049,0,.1,0,.144,0h.016a.083.083,0,0,1,.076.053.038.038,0,0,1,0,.041L1.529.363h0C1.467.37,1.313.384,1.163.384Z" transform="translate(8.543 12.574)" fill="#fff"/>
    <path id="Fill_227" data-name="Fill 227" d="M.462.385C.284.385.1.365.1.365L.007.279a.037.037,0,0,1,0-.04A.082.082,0,0,1,.079.185L.1.187c.047,0,.094,0,.142,0A5.429,5.429,0,0,0,.921.134a3.957,3.957,0,0,0,.492-.1A1.033,1.033,0,0,1,1.577,0,.031.031,0,0,1,1.6.011c.036.039.026.171.026.173l-.015,0a5.352,5.352,0,0,1-.6.128C.98.227.927.174.863.174H.844C.762.189.722.256.732.359A1.034,1.034,0,0,1,.462.385ZM.14.256c-.023,0-.033.01-.033.02a.019.019,0,0,0,.01.015A.059.059,0,0,0,.148.3C.2.3.334.319.34.32.361.313.37.306.369.3.365.271.178.256.14.256Z" transform="translate(10.602 12.578)" fill="#fff"/>
    <path id="Fill_228" data-name="Fill 228" d="M.465.559S.364.486.364.451.369.308.441.308A.107.107,0,0,1,.535.453.227.227,0,0,1,.465.559" transform="translate(11.018 12.478)" fill="#fff"/>
    <path id="Fill_229" data-name="Fill 229" d="M.432.289A1.511,1.511,0,0,0,.545.425C.487.479.394.523.394.565.356.495.314.325.432.289" transform="translate(10.112 12.531)" fill="#fff"/>
    <path id="Fill_230" data-name="Fill 230" d="M.441.559s.1-.075.1-.11S.536.306.465.306A.107.107,0,0,0,.37.452.246.246,0,0,0,.441.559" transform="translate(8.849 12.474)" fill="#fff"/>
    <path id="Fill_231" data-name="Fill 231" d="M.467.289A1.537,1.537,0,0,1,.355.426c.058.053.15.1.15.139C.543.5.585.325.467.289" transform="translate(9.761 12.525)" fill="#fff"/>
    <path id="Fill_232" data-name="Fill 232" d="M.537.329V.468L.383.553S.35.329.537.329" transform="translate(7.955 12.286)" fill="#fff"/>
    <path id="Fill_233" data-name="Fill 233" d="M.378.331V.468L.534.552A.183.183,0,0,0,.378.331" transform="translate(11.907 12.281)" fill="#fff"/>
    <path id="Fill_234" data-name="Fill 234" d="M3.486.124S4,.037,4.109,0c.129-.014.18.084.18.181.124,0,.224.13.25.155a.255.255,0,0,1-.15.224c0,.131-.009.2-.219.242A9.619,9.619,0,0,1,2.7.943,11.438,11.438,0,0,1,.629.842C.156.753.153.755.153.572A.265.265,0,0,1,0,.343C.128.224.133.19.242.19A.177.177,0,0,1,.457.007c.118.029.416.09.587.112a.41.41,0,0,0,.094.144s.035.142.068,0a.27.27,0,0,0,.1-.1,3.145,3.145,0,0,0,.649.012c.112.076.178.129.178.191.067,0,.1-.2.1-.2H2.3s.024.173.1.191A.318.318,0,0,1,2.6.167a2.11,2.11,0,0,0,.635,0,.584.584,0,0,0,.087.107s.02.107.068.062C3.4.316,3.4.257,3.4.257A.869.869,0,0,0,3.486.124" transform="translate(8.12 12.81)" fill="#fff"/>
    <path id="Fill_235" data-name="Fill 235" d="M1.065.639a.1.1,0,0,1-.1-.093h0C.944.542.9.53.9.513V.507C.9.5.9.487.9.482a.018.018,0,0,0-.013,0C.863.478.827.494.827.509S.816.515.794.515C.748.515.667.506.658.505A.107.107,0,0,1,.553.568.248.248,0,0,1,.475.553C.475.542.489.539.508.536.55.528.613.516.613.4L.591.363.638.3h0l0,0A.18.18,0,0,1,.675.44.451.451,0,0,0,.791.467L.832.415.744.376A.084.084,0,0,1,.765.319.085.085,0,0,1,.829.3C.843.278.876.239.912.239S.967.267.985.322c.045.042.067.077.059.1S1.024.438,1,.438a.247.247,0,0,1-.04,0V.467c.054.006.065.026.065.041s.014.077.033.077.016-.011.023-.032a1.5,1.5,0,0,0,.026-.3L1.086.231l.1-.059a.028.028,0,0,1,0,.011C1.178.353,1.147.639,1.065.639ZM.47.455h0S.086.363,0,.348A.078.078,0,0,1,.012.28.223.223,0,0,1,.151.213L.2.068H.136A.073.073,0,0,1,.093.093.018.018,0,0,1,.077.082.073.073,0,0,1,.071.049C.071.031.079.022.095.022A.113.113,0,0,1,.139.036L.272,0S.265.028.255.06C.236.125.207.222.188.281a.057.057,0,0,0,0,.052.061.061,0,0,0,.05.019.143.143,0,0,0,.024,0L.286.259.259.234.366.186S.349.283.339.338A.028.028,0,0,0,.346.361a.109.109,0,0,0,.076.02h.03L.476.3.445.267.555.228A.979.979,0,0,0,.535.393.059.059,0,0,1,.47.455Z" transform="translate(8.477 12.932)" fill="#bf920d"/>
    <path id="Fill_236" data-name="Fill 236" d="M.487.3.449.583S.407.62.407.545.437.2.437.2L.528.286Z" transform="translate(9.287 12.908)" fill="#bf920d"/>
    <path id="Fill_237" data-name="Fill 237" d="M.4.363a.134.134,0,0,1,.065.1c0,.061-.1.105-.1.105S.541.6.541.472a.29.29,0,0,0-.076-.2Z" transform="translate(10.72 13.03)" fill="#bf920d"/>
    <path id="Fill_238" data-name="Fill 238" d="M.608.517C.53.517.517.417.516.416H.5c-.03,0-.121,0-.3-.014C.2.489.118.507.055.507A.32.32,0,0,1,0,.5V.465S.116.464.142.4.093.288.092.288L.162.227A.213.213,0,0,1,.225.339H.283V.259L.239.216l0,0A.151.151,0,0,1,.322.169C.353.169.36.257.36.258H.641c.034,0,.047.006.051.011a.007.007,0,0,1,0,.005V.357H.73A.184.184,0,0,1,.892.228a.027.027,0,0,1,.018,0c.02.019,0,.178,0,.2H.688A.082.082,0,0,1,.608.517Zm.419-.1h0A.137.137,0,0,1,1.115.239L1.1.091a.053.053,0,0,1-.018,0,.017.017,0,0,1-.013,0,.021.021,0,0,1,0-.014L1.145,0A.142.142,0,0,1,1.15.024,2.138,2.138,0,0,1,1.186.3c0,.046.025.056.047.056A.115.115,0,0,0,1.274.342V.259L1.24.227,1.328.172l.031.214H1.353C1.262.4,1.126.41,1.027.416Z" transform="translate(9.724 13.122)" fill="#bf920d"/>
    <path id="Fill_239" data-name="Fill 239" d="M.093.611A.229.229,0,0,1,.017.6S.095.576.112.542a.032.032,0,0,0,0-.028.073.073,0,0,1-.05.021A.062.062,0,0,1,.018.518.061.061,0,0,1,0,.473C0,.417.1.347.124.347S.156.439.156.44l.059,0A.126.126,0,0,1,.291.292V.266L.257.235.339.159s.024.011.024.1C.5.295.521.376.522.376H.563C.587.323.619.3.657.3A.147.147,0,0,1,.749.341L.8.325A.651.651,0,0,1,.765.219.413.413,0,0,0,.708.07.034.034,0,0,0,.684.061C.651.061.614.1.614.1L.546.04C.547.035.554.024.589.01A.2.2,0,0,1,.654,0,.157.157,0,0,1,.813.15C.842.3.889.314.9.314L.972.253,1.046.32A2.547,2.547,0,0,1,.758.4C.736.446.706.471.669.471A.141.141,0,0,1,.587.437L.531.45a.126.126,0,0,1-.021.1.063.063,0,0,1-.05.021A.117.117,0,0,1,.352.481.8.8,0,0,0,.186.507C.186.593.135.611.093.611Z" transform="translate(11.308 12.967)" fill="#bf920d"/>
    <path id="Fill_240" data-name="Fill 240" d="M.52.485C.52.5.5.513.477.513S.434.5.434.485.453.458.477.458.52.47.52.485" transform="translate(8.087 12.585)" fill="#bf920d"/>
    <path id="Fill_241" data-name="Fill 241" d="M.514.486a.031.031,0,0,1-.061,0,.031.031,0,0,1,.061,0" transform="translate(8.089 12.875)" fill="#bf920d"/>
    <path id="Fill_242" data-name="Fill 242" d="M.517.485C.517.5.5.512.48.512A.032.032,0,0,1,.444.485C.444.471.46.46.48.46S.517.471.517.485" transform="translate(8.193 12.903)" fill="#bf920d"/>
    <path id="Fill_243" data-name="Fill 243" d="M.516.486C.516.5.5.512.482.512A.031.031,0,0,1,.448.486C.448.472.463.461.482.461S.516.472.516.486" transform="translate(8.35 12.958)" fill="#bf920d"/>
    <path id="Fill_244" data-name="Fill 244" d="M.518.481A.038.038,0,0,1,.479.517.037.037,0,0,1,.442.481.038.038,0,0,1,.479.445.038.038,0,0,1,.518.481" transform="translate(10.257 12.732)" fill="#bf920d"/>
    <path id="Fill_245" data-name="Fill 245" d="M.517.483a.037.037,0,0,1-.074,0A.034.034,0,0,1,.48.452.034.034,0,0,1,.517.483" transform="translate(10.263 12.827)" fill="#bf920d"/>
    <path id="Fill_246" data-name="Fill 246" d="M.518.484A.035.035,0,0,1,.48.514.035.035,0,0,1,.443.484.034.034,0,0,1,.48.454a.035.035,0,0,1,.037.03" transform="translate(10.366 13.109)" fill="#bf920d"/>
    <path id="Fill_247" data-name="Fill 247" d="M.515.485A.031.031,0,0,1,.482.513.03.03,0,0,1,.45.485.03.03,0,0,1,.482.459.03.03,0,0,1,.515.485" transform="translate(10.463 13.11)" fill="#bf920d"/>
    <path id="Fill_248" data-name="Fill 248" d="M.519.483A.037.037,0,0,1,.478.516.036.036,0,0,1,.438.483.037.037,0,0,1,.478.449.038.038,0,0,1,.519.483" transform="translate(11.728 12.919)" fill="#bf920d"/>
  </g>
</svg>
