<svg xmlns="http://www.w3.org/2000/svg" width="20" height="22" viewBox="0 0 20 22">
  <path id="gift" d="M17,22H3A3,3,0,0,1,.005,19.176L0,19V8A3.014,3.014,0,0,1,2.37,5.066,3.5,3.5,0,0,1,5.5,0C7.226,0,8.7,1.184,10,3.62,11.309,1.184,12.782,0,14.507,0a3.5,3.5,0,0,1,3.5,3.5,3.455,3.455,0,0,1-.371,1.569,3,3,0,0,1,2.358,2.745L20,8V19a3,3,0,0,1-2.823,3ZM11,7V20h6a1,1,0,0,0,1-1V8a1,1,0,0,0-1-1ZM3,7A1,1,0,0,0,2,8V19a1,1,0,0,0,1,1H9V7ZM14.507,2c-.97,0-1.99,1.026-2.949,2.966L11.541,5h2.966A1.494,1.494,0,0,0,16,3.644l.007-.144A1.5,1.5,0,0,0,14.507,2ZM5.5,2A1.5,1.5,0,0,0,4,3.5l.007.144.02.141A1.5,1.5,0,0,0,5.5,5H8.466l-.148-.292C7.4,2.937,6.425,2,5.5,2Z" fill="#9c6ade"/>
</svg>
