<svg xmlns="http://www.w3.org/2000/svg" width="138" height="138" viewBox="0 0 138 138">
  <g id="gift_icon" transform="translate(503 -240.5)">
    <g id="ellipse03" transform="translate(-503 240.5)" fill="none" stroke="#fff" stroke-width="1">
      <circle cx="69" cy="69" r="69" stroke="none"/>
      <circle cx="69" cy="69" r="68.5" fill="none"/>
    </g>
    <circle id="ellipse02" cx="64" cy="64" r="64" transform="translate(-498 245.5)" fill="#fff"/>
    <circle id="ellipse01" cx="59" cy="59" r="59" transform="translate(-493 250.5)" fill="#e22453"/>
    <g id="gift" transform="translate(-462.742 280.733)">
      <path id="Path_6301" data-name="Path 6301" d="M52.32,9.89H39.29a6.287,6.287,0,0,0-9.6-8.039A5.019,5.019,0,0,0,28.743,3.2,5.022,5.022,0,0,0,27.8,1.851,6.287,6.287,0,0,0,18.2,9.89H5.165A5.171,5.171,0,0,0,0,15.055V19.1a5.173,5.173,0,0,0,3.593,4.919V52.33a5.171,5.171,0,0,0,5.165,5.165h39.97a5.171,5.171,0,0,0,5.165-5.165V24.016A5.173,5.173,0,0,0,57.485,19.1V15.055A5.171,5.171,0,0,0,52.32,9.89ZM30.539,20.668H26.946V13.483h3.593Zm.423-12.3c.555-3.191,1.194-3.907,1.265-3.978A2.695,2.695,0,0,1,36.037,8.2c-.071.071-.781.706-3.949,1.26-.461.081-.911.148-1.326.2C30.817,9.261,30.883,8.821,30.961,8.369ZM21.448,4.392a2.7,2.7,0,0,1,3.811,0c.071.071.706.781,1.26,3.949.081.461.148.911.2,1.326-.406-.055-.845-.12-1.3-.2-3.191-.555-3.907-1.194-3.978-1.265a2.7,2.7,0,0,1,0-3.811ZM3.593,15.055a1.574,1.574,0,0,1,1.572-1.572H23.353v7.186H5.165A1.574,1.574,0,0,1,3.593,19.1ZM7.186,52.33V24.261H23.353V53.9H8.757A1.574,1.574,0,0,1,7.186,52.33ZM26.946,53.9V24.261h3.593V53.9ZM50.3,52.33A1.574,1.574,0,0,1,48.727,53.9h-14.6V24.261H50.3ZM53.892,19.1a1.574,1.574,0,0,1-1.572,1.572H34.132V13.483H52.32a1.574,1.574,0,0,1,1.572,1.572Z" transform="translate(0 0)" fill="#fff"/>
    </g>
  </g>
</svg>
