<svg xmlns="http://www.w3.org/2000/svg" width="23.637" height="25.469" viewBox="0 0 23.637 25.469">
  <g id="google" transform="translate(0 0)">
    <g id="google-2" data-name="google">
      <path id="Path_11533" data-name="Path 11533" d="M-121.262-129.166l-12.79,12.316a2.176,2.176,0,0,1-.948-1.816v-21a2.176,2.176,0,0,1,.948-1.816Zm0,0" transform="translate(135 141.903)" fill="#00d3ff"/>
      <path id="Path_11534" data-name="Path 11534" d="M-104.613-138.872l-4.475,4.3-12.79-12.316a1.781,1.781,0,0,1,.15-.1,2.189,2.189,0,0,1,2.209-.035Zm0,0" transform="translate(122.826 147.307)" fill="#00f468"/>
      <path id="Path_11535" data-name="Path 11535" d="M64.982-26.3a2.211,2.211,0,0,1-1.156,1.966L59.558-22l-4.475-4.3,4.475-4.3,4.267,2.336A2.211,2.211,0,0,1,64.982-26.3Zm0,0" transform="translate(-41.345 39.038)" fill="#ffc500"/>
      <path id="Path_11536" data-name="Path 11536" d="M-104.613,33.219l-14.906,8.153a2.217,2.217,0,0,1-2.209-.035,1.7,1.7,0,0,1-.15-.1l12.79-12.316Zm0,0" transform="translate(122.826 -16.18)" fill="#ff003c"/>
    </g>
  </g>
</svg>
