<svg xmlns="http://www.w3.org/2000/svg" width="94" height="48" viewBox="0 0 94 48">
  <path id="hexa" d="M13.612,41.441V28.322l2.861-1.675-1.428-2.66L11.2,26.238,0,19.678V6.559L11.2,0,22.4,6.559V19.678l-2.959,1.732,1.427,2.661,3.943-2.309,11.2,6.559V41.441L24.813,48ZM16.82,30.2v9.361l7.993,4.68,7.992-4.68V30.2l-7.992-4.681ZM3.209,8.437V17.8L11.2,22.479,19.194,17.8V8.437L11.2,3.757Zm14.81,30.422V30.9l6.795-3.979L31.607,30.9v7.958l-6.794,3.979Zm45.7-4.291A6.948,6.948,0,0,1,70.879,27.3a6.69,6.69,0,0,1,6.41,3.974l-2.73.762a4.212,4.212,0,0,0-3.8-2.108c-2.552,0-4.273,1.847-4.273,4.657,0,2.87,1.821,4.676,4.253,4.676a4.231,4.231,0,0,0,4-2.449l2.712.724a6.862,6.862,0,0,1-6.569,4.353A6.952,6.952,0,0,1,63.717,34.568Zm24.428,7.064v-5.86H82.052v5.86H79.3V27.585h2.75v5.5h6.094v-5.5H90.9V41.632Zm-35.366,0V27.585h9.834v2.589H55.529v2.95H60.85v2.609H55.529v3.311h7.162v2.589Zm-9.056,0V30.174H39.311V27.585H50.885v2.589H46.473V41.632ZM91.052,23.9,90,21.088H83.771L82.724,23.9h-2.91L85.354,9.85H88.46L94,23.9Zm-5.164-8.428-1.167,3.09h4.313l-1.147-3.09c-.475-1.2-.95-2.449-.969-2.469h-.059C86.838,13.02,86.363,14.245,85.888,15.469ZM75.408,23.9l-1.959-2.81C72.54,19.742,72,18.94,71.986,18.94h-.021c-.02,0-.574.8-1.543,2.168L68.5,23.9H65.178L70.4,16.632,65.477,9.85h3.342l1.88,2.689c.852,1.183,1.425,2.026,1.445,2.026h.019c.04,0,.594-.861,1.365-2.045l1.781-2.67h3.3l-4.868,6.8,5.1,7.246Zm-21.421,0V9.85H63.82v2.589H56.736v2.951h5.322V18H56.736v3.312H63.9V23.9Zm-5.239,0V18.038H42.655V23.9H39.9V9.85h2.751v5.5h6.094V9.85H51.5V23.9ZM4.407,17.1V9.139L11.2,5.161,18,9.139V17.1L11.2,21.075Z" fill="#cfcfcf"/>
</svg>
