<svg xmlns="http://www.w3.org/2000/svg" width="138" height="138" viewBox="0 0 138 138">
  <g id="icon_done" transform="translate(503 -358.5)">
    <g id="Ellipse_3" data-name="Ellipse 3" transform="translate(-503 358.5)" fill="none" stroke="#fff" stroke-width="1">
      <circle cx="69" cy="69" r="69" stroke="none"/>
      <circle cx="69" cy="69" r="68.5" fill="none"/>
    </g>
    <circle id="Ellipse_2" data-name="Ellipse 2" cx="64" cy="64" r="64" transform="translate(-498 363.5)" fill="#fff"/>
    <g id="bg" transform="translate(-485.332 372.547)">
      <path id="Shape" d="M54.266,108.532A54.28,54.28,0,0,1,33.144,4.264a54.28,54.28,0,0,1,42.246,100A53.928,53.928,0,0,1,54.266,108.532ZM13.739,57.7a34.345,34.345,0,1,0,68.691,0l-.015.008A83.079,83.079,0,0,1,72.37,60.957,102.981,102.981,0,0,1,61.453,63.2a91.326,91.326,0,0,1-13.369,1.018A91.332,91.332,0,0,1,34.715,63.2,102.984,102.984,0,0,1,23.8,60.957,81.766,81.766,0,0,1,13.739,57.7ZM64.571,35.719a4.122,4.122,0,1,0,4.121,4.122A4.127,4.127,0,0,0,64.571,35.719Zm-23.355,0a4.122,4.122,0,1,0,4.121,4.122A4.127,4.127,0,0,0,41.215,35.719Z" transform="translate(0 0)" fill="#8fdf6d"/>
    </g>
    <path id="Shape-2" data-name="Shape" d="M12.632,96.511a2.061,2.061,0,0,1,3.249-2.536,55.644,55.644,0,0,0,89.235-66.452,2.061,2.061,0,0,1,3.358-2.39A59.766,59.766,0,0,1,12.632,96.511Zm6.6-35.375a2.06,2.06,0,0,1,2.865-1.9l.753.3.824.314c.438.164.917.337,1.433.518,2.469.867,5.279,1.736,8.377,2.548a109.62,109.62,0,0,0,27.65,3.711,109.614,109.614,0,0,0,27.65-3.711c3.1-.812,5.909-1.681,8.378-2.548q.774-.273,1.432-.518l1.3-.5c.126-.05.22-.089.28-.114a2.06,2.06,0,0,1,2.865,1.9,41.8,41.8,0,0,1-2.921,15.4,2.061,2.061,0,0,1-3.833-1.516,37.537,37.537,0,0,0,2.484-10.509l.027-.347-.265.1c-2.286.8-4.845,1.6-7.64,2.364l-1.059.283a113.681,113.681,0,0,1-28.695,3.845,113.674,113.674,0,0,1-28.694-3.845c-2.854-.748-5.477-1.543-7.83-2.345l-1.137-.4.005.069A37.784,37.784,0,0,0,60.511,98.91l.625.005A37.627,37.627,0,0,0,86.461,89.17a2.061,2.061,0,0,1,2.764,3.057A41.9,41.9,0,0,1,19.233,61.135ZM8.35,90.248Q7.23,88.362,6.25,86.4a2.061,2.061,0,0,1,3.688-1.839q.911,1.828,1.956,3.586A2.061,2.061,0,1,1,8.35,90.248Zm83.306-3.42a2.06,2.06,0,0,1-.4-2.887,37.642,37.642,0,0,0,2.164-3.175,2.061,2.061,0,0,1,3.519,2.145,41.74,41.74,0,0,1-2.4,3.521,2.061,2.061,0,0,1-2.887.4ZM2.809,77.919A59.743,59.743,0,0,1,0,59.761a2.061,2.061,0,0,1,4.121,0A55.6,55.6,0,0,0,6.737,76.668a2.061,2.061,0,1,1-3.928,1.251Zm.839-31.813a2.061,2.061,0,0,1-1.427-2.542A59.792,59.792,0,0,1,90.877,8.729a2.061,2.061,0,1,1-2.148,3.517A55.664,55.664,0,0,0,6.189,44.68a2.059,2.059,0,0,1-2.542,1.427ZM68,42.589a3.434,3.434,0,1,1,3.434,3.434A3.435,3.435,0,0,1,68,42.589Zm-23.356,0a3.435,3.435,0,1,1,3.435,3.434A3.435,3.435,0,0,1,44.649,42.589Zm55.436-21.166q-1.416-1.489-2.938-2.871a2.061,2.061,0,1,1,2.77-3.052q1.634,1.484,3.155,3.082a2.061,2.061,0,1,1-2.986,2.84Z" transform="translate(-494.262 367.738)" fill="#171717"/>
  </g>
</svg>
