<svg xmlns="http://www.w3.org/2000/svg" width="157.905" height="37.662" viewBox="0 0 157.905 37.662">
  <g id="logo" transform="translate(-361.169 -519.351)">
    <g id="Group_54975" data-name="Group 54975" transform="translate(361.702 519.351)">
      <g id="Group_54974" data-name="Group 54974" transform="translate(0)">
        <path id="Path_32942" data-name="Path 32942" d="M366.623,519.351a.634.634,0,0,1,.709.709v10.694c0,2.455.573,3.082,2.946,3.082H381.3a.643.643,0,0,1,.737.709v3.192a.643.643,0,0,1-.737.709H370.087c-5.592,0-7.719-1.964-7.719-7.2V520.06a.634.634,0,0,1,.709-.709Z" transform="translate(-362.368 -519.351)" fill="#71001c"/>
        <path id="Path_32943" data-name="Path 32943" d="M414.991,519.351a.634.634,0,0,1,.709.709v10.694c0,2.455.573,3.082,2.946,3.082H426.2c2.373,0,2.973-.627,2.973-3.082V520.06a.623.623,0,0,1,.709-.709H433.4a.634.634,0,0,1,.709.709v11.184c0,5.238-2.128,7.2-7.72,7.2h-7.938c-5.592,0-7.72-1.964-7.72-7.2V520.06a.634.634,0,0,1,.71-.709Z" transform="translate(-389.215 -519.351)" fill="#71001c"/>
        <path id="Path_32944" data-name="Path 32944" d="M490.654,519.351c.573,0,.573.518.3.818l-7.938,8.4,8.4,9.057c.273.3.273.818-.3.818h-4.447a1.119,1.119,0,0,1-1.036-.464l-5.92-6.492-6,6.492a1.15,1.15,0,0,1-1.037.464h-4.2c-.573,0-.6-.546-.327-.818l8.565-9.247-7.638-8.211c-.273-.3-.273-.818.3-.818h4.446a1.148,1.148,0,0,1,1.037.464l5.237,5.728,5.319-5.728a1.072,1.072,0,0,1,1.01-.464Z" transform="translate(-420.992 -519.351)" fill="#71001c"/>
        <path id="Path_32945" data-name="Path 32945" d="M529.992,519.351a.634.634,0,0,1,.71.709v10.694c0,2.455.573,3.082,2.946,3.082H541.2c2.373,0,2.973-.627,2.973-3.082V520.06a.623.623,0,0,1,.709-.709h3.519a.634.634,0,0,1,.709.709v11.184c0,5.238-2.128,7.2-7.72,7.2h-7.938c-5.592,0-7.72-1.964-7.72-7.2V520.06a.634.634,0,0,1,.71-.709Z" transform="translate(-453.051 -519.351)" fill="#71001c"/>
        <path id="Path_32946" data-name="Path 32946" d="M601.573,519.351c4.283,0,5.974,1.964,5.974,5.647v1.664c0,3-1.119,4.829-3.846,5.428l4.392,5.565a.481.481,0,0,1-.409.792h-4.2a.9.9,0,0,1-.873-.382l-4.01-5.456h-7.638v5.129a.634.634,0,0,1-.709.709h-3.546a.634.634,0,0,1-.709-.709V520.169a.723.723,0,0,1,.818-.818Zm-10.611,9.356h9.629c1.5,0,1.991-.6,1.991-1.882v-1.172c0-1.282-.491-1.882-1.991-1.882h-9.3c-.219,0-.328.109-.328.355Z" transform="translate(-486.5 -519.351)" fill="#71001c"/>
        <path id="Path_32947" data-name="Path 32947" d="M645.977,519.351a.634.634,0,0,1,.709.709v17.677a.634.634,0,0,1-.709.709H642.43a.634.634,0,0,1-.709-.709V520.06a.634.634,0,0,1,.709-.709Z" transform="translate(-517.431 -519.351)" fill="#71001c"/>
        <path id="Path_32948" data-name="Path 32948" d="M671.347,519.351c1.637,0,2.591.464,3.628,2.4l8.511,15.958c.246.436.163.737-.382.737h-4.147a.691.691,0,0,1-.709-.382l-1.664-3.191H664.746l-1.637,3.191a.67.67,0,0,1-.709.382h-4.256c-.518,0-.6-.3-.382-.737l8.374-15.958c1.01-1.937,2.019-2.4,3.3-2.4Zm-4.692,11.784h7.993l-3.655-7.011a.318.318,0,0,0-.3-.191h-.136a.386.386,0,0,0-.327.191Z" transform="translate(-526.272 -519.351)" fill="#71001c"/>
      </g>
    </g>
    <g id="Group_54977" data-name="Group 54977" transform="translate(361.169 540.834)">
      <g id="Group_54976" data-name="Group 54976" transform="translate(0 0)">
        <path id="Path_32949" data-name="Path 32949" d="M362.436,567.635a.2.2,0,0,1,.233.233V579.9a.2.2,0,0,1-.233.233h-1.017c-.166,0-.25-.083-.25-.233V567.868c0-.15.084-.233.25-.233Z" transform="translate(-361.169 -567.635)" fill="#2f0f1a"/>
        <path id="Path_32950" data-name="Path 32950" d="M370.86,575.762a.2.2,0,0,1,.234.234v5.049c0,1.666.516,2.249,2.449,2.249h4.349c1.933,0,2.516-.583,2.516-2.249V576c0-.167.067-.234.233-.234h1.017c.166,0,.25.066.25.234v5.365c0,2.349-.949,3.282-3.882,3.282h-4.549c-2.933,0-3.882-.933-3.882-3.282V576a.2.2,0,0,1,.233-.234Z" transform="translate(-365.846 -572.146)" fill="#2f0f1a"/>
        <path id="Path_32951" data-name="Path 32951" d="M402.338,575.762a.408.408,0,0,1,.333.117l4.116,3.449,4.266-3.449a.428.428,0,0,1,.316-.117h1.216c.183,0,.234.183.1.3l-4.932,4.082,5.032,4.2a.162.162,0,0,1-.1.3h-1.349a.415.415,0,0,1-.334-.133l-4.366-3.632-4.482,3.632a.477.477,0,0,1-.333.133h-1.2a.164.164,0,0,1-.117-.3l5.149-4.283-4.765-4c-.117-.117-.083-.3.116-.3Z" transform="translate(-382.963 -572.146)" fill="#2f0f1a"/>
        <path id="Path_32952" data-name="Path 32952" d="M442.61,575.762c.15,0,.217.117.134.267l-7.215,11.381a2.239,2.239,0,0,1-2.149.916h-.917a.177.177,0,0,1-.2-.2v-.867a.177.177,0,0,1,.2-.2h.816a1.055,1.055,0,0,0,1.016-.45l1.3-2.033c-.266-.033-.4-.183-.566-.433l-5.265-8.115a.164.164,0,0,1,.15-.267H431.1a.292.292,0,0,1,.283.15l4.733,7.248a.634.634,0,0,0,.25.233l4.816-7.481a.283.283,0,0,1,.267-.15Z" transform="translate(-399.226 -572.146)" fill="#2f0f1a"/>
        <path id="Path_32953" data-name="Path 32953" d="M468.479,575.762c.133,0,.2.05.2.2v.883a.177.177,0,0,1-.2.2h-4.516c-1.95,0-2.516.583-2.516,2.249v5.116a.211.211,0,0,1-.234.233h-1.033a.211.211,0,0,1-.234-.233v-5.382c0-2.333.95-3.266,3.882-3.266Z" transform="translate(-415.999 -572.146)" fill="#2f0f1a"/>
        <path id="Path_32954" data-name="Path 32954" d="M493.947,575.762c.15,0,.217.117.133.267l-7.215,11.381a2.239,2.239,0,0,1-2.149.916H483.8a.177.177,0,0,1-.2-.2v-.867a.177.177,0,0,1,.2-.2h.816a1.055,1.055,0,0,0,1.016-.45l1.3-2.033c-.267-.033-.4-.183-.566-.433l-5.265-8.115a.164.164,0,0,1,.15-.267h1.183a.292.292,0,0,1,.283.15l4.733,7.248a.634.634,0,0,0,.25.233l4.815-7.481a.284.284,0,0,1,.267-.15Z" transform="translate(-427.722 -572.146)" fill="#2f0f1a"/>
        <path id="Path_32955" data-name="Path 32955" d="M537,569.508a.2.2,0,0,1,.233.233v1a.2.2,0,0,1-.233.233h-7.249c-2.249,0-3.016.767-3.016,3.033v.75H536.9a.221.221,0,0,1,.25.25v.833c0,.15-.083.234-.25.234H526.739v4.865a.211.211,0,0,1-.233.233h-1.133a.211.211,0,0,1-.234-.233v-7.032c0-3.2,1.267-4.4,4.566-4.4Z" transform="translate(-452.185 -568.675)" fill="#2f0f1a"/>
        <path id="Path_32956" data-name="Path 32956" d="M563.068,575.762c2.933,0,3.882.916,3.882,3.266v4.316c0,1.066-.266,1.3-1.2,1.3h-7.765c-1.932,0-2.516-.7-2.516-2.3v-.683c0-1.366.583-2.116,2.516-2.116h7.465v-.45c0-1.483-.583-2.049-2.516-2.049h-7a.177.177,0,0,1-.2-.2v-.883c0-.149.066-.2.2-.2Zm2.383,6.982v-2.216h-7.082c-1.083,0-1.433.433-1.433,1.2v.433c0,.9.35,1.283,1.433,1.283H564.8C565.284,583.444,565.451,583.293,565.451,582.744Z" transform="translate(-469.021 -572.146)" fill="#2f0f1a"/>
        <path id="Path_32957" data-name="Path 32957" d="M595.777,575.762c.133,0,.2.05.2.2v.833c0,.15-.067.2-.2.2h-7.715c-1.083,0-1.433.4-1.433,1.133v.3c0,.683.35,1.1,1.433,1.1h5.765c1.866,0,2.532.767,2.532,2.083v.784c0,1.482-.616,2.249-2.532,2.249h-8.465c-.15,0-.2-.067-.2-.2v-.85c0-.133.05-.2.2-.2h8.1c1.083,0,1.433-.367,1.433-1.233v-.5c0-.65-.35-1.066-1.433-1.066H587.7c-1.866,0-2.533-.767-2.533-2.116V577.9c0-1.333.617-2.133,2.533-2.133Z" transform="translate(-485.503 -572.146)" fill="#2f0f1a"/>
        <path id="Path_32958" data-name="Path 32958" d="M616.048,567.635a.2.2,0,0,1,.233.233v3.383H623.2c2.932,0,3.882.933,3.882,3.266V579.9c0,.15-.083.233-.25.233h-1.016a.2.2,0,0,1-.234-.233V574.85c0-1.666-.517-2.25-2.466-2.25h-6.832v7.3a.2.2,0,0,1-.233.233h-1.017c-.166,0-.25-.083-.25-.233V567.868c0-.15.083-.233.25-.233Z" transform="translate(-501.944 -567.635)" fill="#2f0f1a"/>
        <path id="Path_32959" data-name="Path 32959" d="M648.7,568.459c.15,0,.233.083.233.25v1.516a.211.211,0,0,1-.233.233h-1.033a.211.211,0,0,1-.234-.233v-1.516c0-.167.083-.25.234-.25Zm0,3.249c.166,0,.233.066.233.234v8.414a.2.2,0,0,1-.233.233h-1.017c-.167,0-.25-.083-.25-.233v-8.414c0-.167.083-.234.25-.234Z" transform="translate(-520.068 -568.092)" fill="#2f0f1a"/>
        <path id="Path_32960" data-name="Path 32960" d="M664.132,575.762c2.932,0,3.882.916,3.882,3.266v2.333c0,2.349-.949,3.282-3.882,3.282h-4.616c-2.933,0-3.883-.933-3.883-3.282v-2.333c0-2.35.95-3.266,3.883-3.266Zm-7,5.365c0,1.667.566,2.25,2.516,2.25H664c1.933,0,2.516-.583,2.516-2.25v-1.866c0-1.666-.583-2.25-2.516-2.25h-4.35c-1.949,0-2.516.583-2.516,2.25Z" transform="translate(-524.62 -572.146)" fill="#2f0f1a"/>
        <path id="Path_32961" data-name="Path 32961" d="M696.663,575.762c2.933,0,3.882.933,3.882,3.266v5.382c0,.15-.083.233-.25.233h-1.017a.2.2,0,0,1-.233-.233v-5.049c0-1.666-.516-2.25-2.466-2.25h-4.466c-1.95,0-2.516.583-2.516,2.25v5.049a.211.211,0,0,1-.233.233h-1.034a.211.211,0,0,1-.233-.233v-5.382c0-2.333.949-3.266,3.882-3.266Z" transform="translate(-542.641 -572.146)" fill="#2f0f1a"/>
      </g>
    </g>
  </g>
</svg>
