<svg id="mada" xmlns="http://www.w3.org/2000/svg" width="70.43" height="23.485" viewBox="0 0 70.43 23.485">
  <rect id="Rectangle_4" data-name="Rectangle 4" width="29.792" height="9.925" transform="translate(0 13.543)" fill="#84b740"/>
  <rect id="Rectangle_5" data-name="Rectangle 5" width="29.792" height="9.934" fill="#259bd6"/>
  <path id="Path_1" data-name="Path 1" d="M621,142.413l-.133.027a4.344,4.344,0,0,1-.964.124c-.778,0-1.7-.4-1.7-2.273,0-.964.159-2.247,1.61-2.247h.009a4.356,4.356,0,0,1,1.061.2l.115.035v4.131Zm.239-9.35-.239.044v3.468l-.212-.062-.062-.018a4.883,4.883,0,0,0-1.318-.23c-2.9,0-3.512,2.194-3.512,4.034,0,2.521,1.415,3.972,3.883,3.972a7.872,7.872,0,0,0,2.592-.363,1.145,1.145,0,0,0,.973-1.256V132.7c-.69.124-1.406.248-2.105.363" transform="translate(-561.419 -120.962)" fill="#27292d"/>
  <path id="Path_2" data-name="Path 2" d="M719.6,178.754l-.124.035-.442.115a4.611,4.611,0,0,1-1.07.168c-.681,0-1.088-.336-1.088-.911,0-.372.168-1,1.283-1H719.6Zm-1.017-6.254a9.789,9.789,0,0,0-2.954.513l-.743.221.248,1.681.725-.239a8.528,8.528,0,0,1,2.415-.407c.318,0,1.292,0,1.292,1.053v.46h-1.353c-2.468,0-3.609.787-3.609,2.477,0,1.442,1.053,2.309,2.822,2.309a9.121,9.121,0,0,0,1.964-.265l.035-.009.035.009.221.035c.69.124,1.406.248,2.105.38V175.2c0-1.787-1.079-2.7-3.2-2.7" transform="translate(-651.389 -157.241)" fill="#27292d"/>
  <path id="Path_3" data-name="Path 3" d="M525.3,178.754l-.124.035-.442.115a4.543,4.543,0,0,1-1.07.168c-.681,0-1.088-.336-1.088-.911,0-.372.168-1,1.274-1h1.442l.009,1.592Zm-1.008-6.254a9.745,9.745,0,0,0-2.954.513l-.743.221.248,1.681.725-.239a8.528,8.528,0,0,1,2.415-.407c.318,0,1.291,0,1.291,1.053v.46h-1.353c-2.468,0-3.618.787-3.618,2.477,0,1.442,1.053,2.309,2.831,2.309a9.123,9.123,0,0,0,1.964-.265l.035-.009.035.009.212.035c.7.124,1.406.248,2.105.389v-5.52c.009-1.8-1.07-2.707-3.193-2.707" transform="translate(-474.276 -157.241)" fill="#27292d"/>
  <path id="Path_4" data-name="Path 4" d="M386,172.609a5.969,5.969,0,0,0-2.4.531l-.088.044-.08-.062a3.629,3.629,0,0,0-2.149-.522,8.793,8.793,0,0,0-2.539.38c-.752.23-1.044.593-1.044,1.274v6.307h2.353v-5.829l.115-.035a2.994,2.994,0,0,1,1.035-.186.931.931,0,0,1,1.026,1.07v4.989h2.318v-5.086a1.711,1.711,0,0,0-.071-.513l-.08-.15.159-.071a2.789,2.789,0,0,1,1.15-.239.937.937,0,0,1,1.026,1.07v4.989h2.309v-5.219c0-1.849-.991-2.742-3.043-2.742" transform="translate(-344.29 -157.332)" fill="#27292d"/>
  <path id="Path_5" data-name="Path 5" d="M595.991,6.475a8.027,8.027,0,0,1-1.371-.124l-.133-.027V2.919a1.666,1.666,0,0,0-.062-.487l-.071-.142.15-.062c.035-.018.071-.027.115-.044l.027-.018.159-.053a.225.225,0,0,1,.062-.018,5.492,5.492,0,0,1,1.212-.142h.009c1.442,0,1.61,1.283,1.61,2.247-.009,1.875-.938,2.273-1.707,2.273M595.982,0h-.062c-1.353,0-2.742.372-3.237,1.1a2.213,2.213,0,0,0-.425,1.318h0V5.927a1.039,1.039,0,0,1-.071.442l-.08.15h-4.272V4.078h-.009C587.773,1.5,586.252.088,584.049.088H581.9c-.088.628-.159,1.07-.248,1.7h2.141c1.123,0,1.716.955,1.716,2.424V6.67l-.15-.08a1.624,1.624,0,0,0-.5-.071h-3.7c-.071.469-.159,1.079-.257,1.69h11.367c.389-.08.84-.15,1.23-.212a6.4,6.4,0,0,0,2.379.433,3.881,3.881,0,0,0,4.069-4.2A3.9,3.9,0,0,0,595.982,0" transform="translate(-529.515)" fill="#27292d"/>
  <path id="Path_6" data-name="Path 6" d="M390.827,10.246h.106c2.468,0,3.618-.814,3.618-2.822a2.584,2.584,0,0,0-2.822-2.592h-2.273a.98.98,0,0,1-1.088-1.044c0-.442.168-.991,1.283-.991h4.971c.106-.646.159-1.053.257-1.7h-5.166c-2.406,0-3.618,1.008-3.618,2.689,0,1.663,1.053,2.53,2.822,2.53h2.273a1.074,1.074,0,0,1,1.088,1.106A1.111,1.111,0,0,1,391,8.566h-.38l-7.28-.018h-1.327c-1.123,0-1.911-.637-1.911-2.114V5.417c0-1.539.61-2.494,1.911-2.494h2.158c.1-.655.159-1.07.248-1.69h-2.946c-2.2,0-3.724,1.477-3.777,4.051h0v1.15c.053,2.574,1.575,3.8,3.777,3.8h2.15l3.945.009h3.255Z" transform="translate(-344.29 -1.003)" fill="#27292d"/>
</svg>
