<svg xmlns="http://www.w3.org/2000/svg" width="39.143" height="23.486" viewBox="0 0 39.143 23.486">
  <g id="mastercard" transform="translate(0 -100.8)">
    <path id="Path_7" data-name="Path 7" d="M225.086,112.543a11.743,11.743,0,1,1-23.486,0h0a11.743,11.743,0,1,1,23.486,0Z" transform="translate(-185.943 0)" fill="#ffb600"/>
    <path id="Path_8" data-name="Path 8" d="M213.343,100.8a11.773,11.773,0,0,1,11.743,11.743h0a11.743,11.743,0,1,1-23.486,0" transform="translate(-185.943)" fill="#f7981d"/>
    <path id="Path_9" data-name="Path 9" d="M352.8,100.8a11.773,11.773,0,0,1,11.743,11.743h0A11.733,11.733,0,0,1,352.8,124.286" transform="translate(-325.4)" fill="#ff8500"/>
    <path id="Path_10" data-name="Path 10" d="M11.619,100.8a11.743,11.743,0,0,0,.124,23.486,11.88,11.88,0,0,0,7.891-3.044h0A11.164,11.164,0,0,0,20.814,120H18.391a14.333,14.333,0,0,1-.87-1.18h4.163a7.96,7.96,0,0,0,.683-1.243h-5.53a7.4,7.4,0,0,1-.5-1.243H22.8a12.337,12.337,0,0,0,.621-3.728,16.037,16.037,0,0,0-.249-2.485H15.968a9.083,9.083,0,0,1,.311-1.243H22.74a7.405,7.405,0,0,0-.5-1.243H16.775a12.321,12.321,0,0,1,.683-1.243h4.163a5.909,5.909,0,0,0-.932-1.243h-2.3a10.59,10.59,0,0,1,1.18-1.18,11.465,11.465,0,0,0-7.891-3.044C11.681,100.8,11.681,100.8,11.619,100.8Z" fill="#ff5050"/>
    <path id="Path_11" data-name="Path 11" d="M0,114.019a11.733,11.733,0,0,0,11.743,11.743,11.879,11.879,0,0,0,7.891-3.044h0a11.165,11.165,0,0,0,1.18-1.243H18.391a14.334,14.334,0,0,1-.87-1.18h4.163a7.96,7.96,0,0,0,.683-1.243h-5.53a7.405,7.405,0,0,1-.5-1.243H22.8a12.337,12.337,0,0,0,.621-3.728,16.037,16.037,0,0,0-.249-2.485H15.968a9.083,9.083,0,0,1,.311-1.243H22.74a7.405,7.405,0,0,0-.5-1.243H16.775a12.322,12.322,0,0,1,.683-1.243h4.163a5.908,5.908,0,0,0-.932-1.243h-2.3a10.591,10.591,0,0,1,1.18-1.18,11.465,11.465,0,0,0-7.891-3.044h-.062" transform="translate(0 -1.476)" fill="#e52836"/>
    <path id="Path_12" data-name="Path 12" d="M149.724,125.761a11.879,11.879,0,0,0,7.891-3.044h0a11.165,11.165,0,0,0,1.18-1.243h-2.423a14.333,14.333,0,0,1-.87-1.18h4.163a7.959,7.959,0,0,0,.683-1.243h-5.53a7.406,7.406,0,0,1-.5-1.243h6.462a12.337,12.337,0,0,0,.621-3.728,16.037,16.037,0,0,0-.249-2.485h-7.207a9.081,9.081,0,0,1,.311-1.243h6.462a7.4,7.4,0,0,0-.5-1.243h-5.468a12.324,12.324,0,0,1,.683-1.243H159.6a5.909,5.909,0,0,0-.932-1.243h-2.3a10.591,10.591,0,0,1,1.18-1.18,11.465,11.465,0,0,0-7.891-3.044H149.6" transform="translate(-137.981 -1.476)" fill="#cb2026"/>
    <g id="Group_3" data-name="Group 3" transform="translate(1.118 109.498)">
      <path id="Path_13" data-name="Path 13" d="M183.4,225.468l.186-1.056a2.691,2.691,0,0,1-.311.062c-.435,0-.5-.249-.435-.373l.373-2.175h.683l.186-1.18h-.621l.124-.746h-1.243s-.746,4.1-.746,4.6a.933.933,0,0,0,.994,1.056A1.908,1.908,0,0,0,183.4,225.468Z" transform="translate(-168.615 -219.441)" fill="#fff"/>
      <path id="Path_14" data-name="Path 14" d="M210.4,231.5a1.976,1.976,0,0,0,2.175,2.175,3.226,3.226,0,0,0,1.3-.186l.249-1.18a3.724,3.724,0,0,1-1.3.311c-1.367,0-1.118-.994-1.118-.994h2.547a8.056,8.056,0,0,0,.186-1.118,1.683,1.683,0,0,0-1.8-1.8C211.332,228.582,210.4,229.949,210.4,231.5Zm2.175-1.8c.683,0,.559.808.559.87h-1.367C211.767,230.508,211.891,229.7,212.575,229.7Z" transform="translate(-195.178 -227.464)" fill="#fff"/>
      <path id="Path_15" data-name="Path 15" d="M299.417,218.827l.249-1.367a3.054,3.054,0,0,1-1.056.311c-.87,0-1.243-.683-1.243-1.429,0-1.491.746-2.3,1.615-2.3a2.075,2.075,0,0,1,1.118.373l.186-1.3a4.368,4.368,0,0,0-1.429-.311c-1.429,0-2.858,1.243-2.858,3.6,0,1.553.746,2.609,2.237,2.609A5.576,5.576,0,0,0,299.417,218.827Z" transform="translate(-274.13 -212.8)" fill="#fff"/>
      <path id="Path_16" data-name="Path 16" d="M88.761,227.2a4.4,4.4,0,0,0-1.491.249l-.186,1.056a3.673,3.673,0,0,1,1.367-.249c.435,0,.808.062.808.435,0,.249-.062.311-.062.311h-.559c-1.056,0-2.237.435-2.237,1.864,0,1.118.746,1.367,1.18,1.367a1.867,1.867,0,0,0,1.3-.559l-.062.5h1.118l.5-3.417A1.473,1.473,0,0,0,88.761,227.2Zm.249,2.8c0,.186-.124,1.18-.87,1.18a.485.485,0,0,1-.5-.5c0-.311.186-.746,1.118-.746A.98.98,0,0,0,89.009,230Z" transform="translate(-80.808 -226.082)" fill="#fff"/>
      <path id="Path_17" data-name="Path 17" d="M136.629,231.495a1.592,1.592,0,0,0,1.864-1.615c0-1.553-1.491-1.243-1.491-1.864,0-.311.249-.435.683-.435.186,0,.87.062.87.062l.186-1.118a4.719,4.719,0,0,0-1.18-.124c-.932,0-1.864.373-1.864,1.615,0,1.429,1.553,1.3,1.553,1.864,0,.373-.435.435-.746.435a4.064,4.064,0,0,1-1.118-.186l-.186,1.118C135.262,231.37,135.573,231.495,136.629,231.495Z" transform="translate(-125.818 -225.344)" fill="#fff"/>
      <path id="Path_18" data-name="Path 18" d="M430.741,214.4l-.249,1.678a1.723,1.723,0,0,0-1.18-.621c-1.118,0-2.112,1.367-2.112,2.982,0,.994.5,2.05,1.553,2.05a1.659,1.659,0,0,0,1.181-.5l-.062.435h1.243l.932-5.965Zm-.559,3.293c0,.683-.311,1.553-.994,1.553-.435,0-.683-.373-.683-.994,0-.994.435-1.615.994-1.615C429.934,216.637,430.182,216.947,430.182,217.693Z" transform="translate(-395.14 -214.276)" fill="#fff"/>
      <path id="Path_19" data-name="Path 19" d="M15.58,220.365l.746-4.473.124,4.473h.87l1.615-4.473-.683,4.473h1.3l.994-5.965H18.5l-1.243,3.666L17.2,214.4h-1.8l-.994,5.965Z" transform="translate(-14.4 -214.276)" fill="#fff"/>
      <path id="Path_20" data-name="Path 20" d="M261.367,233.646c.373-2.05.435-3.728,1.3-3.417a4.874,4.874,0,0,1,.435-1.429h-.249c-.559,0-.994.746-.994.746l.124-.683h-1.181L260,233.708h1.367Z" transform="translate(-240.926 -227.557)" fill="#fff"/>
      <path id="Path_21" data-name="Path 21" d="M348.761,227.2a4.4,4.4,0,0,0-1.491.249l-.186,1.056a3.673,3.673,0,0,1,1.367-.249c.435,0,.808.062.808.435,0,.249-.062.311-.062.311h-.559c-1.056,0-2.237.435-2.237,1.864,0,1.118.746,1.367,1.18,1.367a1.867,1.867,0,0,0,1.3-.559l-.062.5h1.118l.5-3.417A1.451,1.451,0,0,0,348.761,227.2Zm.311,2.8c0,.186-.124,1.18-.87,1.18a.485.485,0,0,1-.5-.5c0-.311.186-.746,1.118-.746C349.01,230,349.01,230,349.072,230Z" transform="translate(-320.616 -226.082)" fill="#fff"/>
      <path id="Path_22" data-name="Path 22" d="M395.767,233.646c.373-2.05.435-3.728,1.3-3.417a4.874,4.874,0,0,1,.435-1.429h-.249c-.559,0-.994.746-.994.746l.124-.683h-1.18l-.808,4.846h1.367Z" transform="translate(-364.888 -227.557)" fill="#fff"/>
    </g>
    <g id="Group_4" data-name="Group 4" transform="translate(1.118 109.498)">
      <path id="Path_23" data-name="Path 23" d="M180,224.6a.933.933,0,0,0,.994,1.056,2.365,2.365,0,0,0,.932-.186l.186-1.056a2.693,2.693,0,0,1-.311.062c-.435,0-.5-.249-.435-.373l.373-2.175h.683l.186-1.18h-.621l.124-.746" transform="translate(-167.139 -219.441)" fill="#dce5e5"/>
      <path id="Path_24" data-name="Path 24" d="M218.4,231.5c0,1.74.559,2.175,1.553,2.175a3.226,3.226,0,0,0,1.3-.186l.249-1.18a3.725,3.725,0,0,1-1.3.311c-1.367,0-1.118-.994-1.118-.994h2.547a8.056,8.056,0,0,0,.186-1.118,1.683,1.683,0,0,0-1.8-1.8C218.711,228.582,218.4,229.949,218.4,231.5Zm1.553-1.8c.683,0,.808.808.808.87h-1.615C219.146,230.508,219.27,229.7,219.953,229.7Z" transform="translate(-202.557 -227.464)" fill="#dce5e5"/>
      <path id="Path_25" data-name="Path 25" d="M306.8,218.827l.249-1.367a3.053,3.053,0,0,1-1.056.311c-.87,0-1.243-.683-1.243-1.429,0-1.491.746-2.3,1.615-2.3a2.075,2.075,0,0,1,1.118.373l.186-1.3a4.368,4.368,0,0,0-1.429-.311c-1.429,0-2.237,1.243-2.237,3.6,0,1.553.124,2.609,1.615,2.609A5.576,5.576,0,0,0,306.8,218.827Z" transform="translate(-281.509 -212.8)" fill="#dce5e5"/>
      <path id="Path_26" data-name="Path 26" d="M87.083,230.043a3.673,3.673,0,0,1,1.367-.249c.435,0,.808.062.808.435,0,.249-.062.311-.062.311h-.559c-1.056,0-2.237.435-2.237,1.864,0,1.118.746,1.367,1.18,1.367a1.867,1.867,0,0,0,1.3-.559l-.062.5h1.118l.5-3.417c0-1.429-1.243-1.491-1.74-1.491m.932,2.672a2.034,2.034,0,0,1-1.491,1.181.485.485,0,0,1-.5-.5c0-.311.186-.746,1.118-.746A5.077,5.077,0,0,0,89.631,231.472Z" transform="translate(-80.808 -227.557)" fill="#dce5e5"/>
      <path id="Path_27" data-name="Path 27" d="M136,231.37a5.258,5.258,0,0,0,1.429.124,1.592,1.592,0,0,0,1.864-1.615c0-1.553-1.491-1.243-1.491-1.864,0-.311.249-.435.683-.435.186,0,.87.062.87.062l.186-1.118a4.719,4.719,0,0,0-1.18-.124c-.932,0-1.243.373-1.243,1.615,0,1.429.932,1.3.932,1.864,0,.373-.435.435-.746.435" transform="translate(-126.556 -225.344)" fill="#dce5e5"/>
      <path id="Path_28" data-name="Path 28" d="M437.818,216.815a1.723,1.723,0,0,0-1.18-.621c-1.118,0-1.491,1.367-1.491,2.982,0,.994-.124,2.05.932,2.05a1.659,1.659,0,0,0,1.181-.5l-.062.435h1.243l.932-5.965m-1.615,3.231c0,.683-.559,1.553-1.243,1.553-.435,0-.683-.373-.683-.994,0-.994.435-1.615.994-1.615A.949.949,0,0,1,437.756,218.431Z" transform="translate(-402.465 -215.014)" fill="#dce5e5"/>
      <path id="Path_29" data-name="Path 29" d="M15.58,220.365l.746-4.473.124,4.473h.87l1.615-4.473-.683,4.473h1.3l.994-5.965H19l-1.74,3.666L17.2,214.4h-.683L14.4,220.365Z" transform="translate(-14.4 -214.276)" fill="#dce5e5"/>
      <path id="Path_30" data-name="Path 30" d="M260.8,233.646h1.3c.373-2.05.435-3.728,1.3-3.417a4.876,4.876,0,0,1,.435-1.429H263.6c-.559,0-.994.746-.994.746l.124-.683" transform="translate(-241.664 -227.557)" fill="#dce5e5"/>
      <path id="Path_31" data-name="Path 31" d="M347.083,230.043a3.672,3.672,0,0,1,1.367-.249c.435,0,.808.062.808.435,0,.249-.062.311-.062.311h-.559c-1.056,0-2.237.435-2.237,1.864,0,1.118.746,1.367,1.18,1.367a1.866,1.866,0,0,0,1.3-.559l-.062.5h1.118l.5-3.417c0-1.429-1.243-1.491-1.74-1.491m.932,2.672a2.034,2.034,0,0,1-1.491,1.181.485.485,0,0,1-.5-.5c0-.311.186-.746,1.118-.746A5.467,5.467,0,0,0,349.631,231.472Z" transform="translate(-320.616 -227.557)" fill="#dce5e5"/>
      <path id="Path_32" data-name="Path 32" d="M395.2,233.646h1.3c.373-2.05.435-3.728,1.3-3.417a4.873,4.873,0,0,1,.435-1.429H398c-.559,0-.994.746-.994.746l.124-.683" transform="translate(-365.626 -227.557)" fill="#dce5e5"/>
    </g>
  </g>
</svg>
