<svg xmlns="http://www.w3.org/2000/svg" width="12.387" height="18.018" viewBox="0 0 12.387 18.018">
  <path id="mobile" d="M786.193,5698.739a1.641,1.641,0,1,0,1.548,1.638A1.6,1.6,0,0,0,786.193,5698.739ZM781.548,5684a1.641,1.641,0,1,0,1.548,1.638A1.6,1.6,0,0,0,781.548,5684Zm0,4.914a1.641,1.641,0,1,0,1.548,1.639A1.6,1.6,0,0,0,781.548,5688.912Zm0,4.914a1.641,1.641,0,1,0,1.548,1.638A1.6,1.6,0,0,0,781.548,5693.826Zm9.29-6.551a1.641,1.641,0,1,0-1.548-1.638A1.6,1.6,0,0,0,790.838,5687.274Zm-4.645,6.551a1.641,1.641,0,1,0,1.548,1.638A1.6,1.6,0,0,0,786.193,5693.826Zm4.645,0a1.641,1.641,0,1,0,1.548,1.638A1.6,1.6,0,0,0,790.838,5693.826Zm0-4.914a1.641,1.641,0,1,0,1.548,1.639A1.6,1.6,0,0,0,790.838,5688.912Zm-4.645,0a1.641,1.641,0,1,0,1.548,1.639A1.6,1.6,0,0,0,786.193,5688.912Zm0-4.914a1.641,1.641,0,1,0,1.548,1.638A1.6,1.6,0,0,0,786.193,5684Z" transform="translate(-780 -5683.998)" fill="#e22453"/>
</svg>
