<svg xmlns="http://www.w3.org/2000/svg" width="138" height="138" viewBox="0 0 138 138">
  <g id="profile_pass" transform="translate(-0.5)">
    <g id="ellipse03" transform="translate(0.5)" fill="none" stroke="#fff" stroke-width="1">
      <circle cx="69" cy="69" r="69" stroke="none"/>
      <circle cx="69" cy="69" r="68.5" fill="none"/>
    </g>
    <circle id="ellipse02" cx="64" cy="64" r="64" transform="translate(5.5 5)" fill="#fff"/>
    <g id="spyware" transform="translate(13.133 11.133)">
      <g id="Group_10719" data-name="Group 10719">
        <path id="Path_9073" data-name="Path 9073" d="M105.332,90.968a57.867,57.867,0,1,0-94.931,0Z" fill="#f4f4f4"/>
      </g>
      <g id="Group_10720" data-name="Group 10720" transform="translate(10.398 6.781)">
        <path id="Path_9074" data-name="Path 9074" d="M140.938,36.781v77.406a57.876,57.876,0,0,1-94.938,0V36.781L58.471,35l35-5,35,5Z" transform="translate(-46 -30)" fill="#cbe2ff"/>
      </g>
      <g id="Group_10721" data-name="Group 10721" transform="translate(10.398 10.99)">
        <path id="Path_9075" data-name="Path 9075" d="M64.009,48.62l-5.538.791L46,51.192V128.6a57.876,57.876,0,0,0,94.938,0A76.929,76.929,0,0,1,64.009,51.67V48.62Z" transform="translate(-46 -48.62)" fill="#bcd5f8"/>
      </g>
      <g id="Group_10722" data-name="Group 10722" transform="translate(51.085 89.523)">
        <path id="Path_9076" data-name="Path 9076" d="M226,396.046h13.562V415.08H226Z" transform="translate(-226 -396.046)" fill="#fff"/>
      </g>
      <g id="Group_10723" data-name="Group 10723" transform="translate(48.825 101.719)">
        <path id="Path_9077" data-name="Path 9077" d="M225.042,464.015a58.305,58.305,0,0,0,9.042-.7V452.26a2.26,2.26,0,0,0-2.26-2.26H218.26a2.26,2.26,0,0,0-2.26,2.26v11.052A58.268,58.268,0,0,0,225.042,464.015Z" transform="translate(-216 -450)" fill="#4a80aa"/>
      </g>
      <g id="Group_10724" data-name="Group 10724" transform="translate(48.825 101.719)">
        <path id="Path_9078" data-name="Path 9078" d="M225.042,452.26A2.26,2.26,0,0,1,227.3,450H218.26a2.26,2.26,0,0,0-2.26,2.26v11.052a58.306,58.306,0,0,0,9.042.7Z" transform="translate(-216 -450)" fill="#365e7d"/>
      </g>
      <g id="Group_10725" data-name="Group 10725" transform="translate(10.398)">
        <path id="Path_9079" data-name="Path 9079" d="M140.938,13.563H46V4.521A4.521,4.521,0,0,1,50.521,0h85.9a4.521,4.521,0,0,1,4.521,4.521Z" transform="translate(-46)" fill="#365e7d"/>
      </g>
      <g id="Group_10726" data-name="Group 10726" transform="translate(10.398)">
        <path id="Path_9080" data-name="Path 9080" d="M61.5,11.3a2.26,2.26,0,0,1,2.26-2.26V4.521a2.26,2.26,0,1,1,0-4.521H50.521A4.521,4.521,0,0,0,46,4.521v9.042H63.757A2.26,2.26,0,0,1,61.5,11.3Z" transform="translate(-46)" fill="#467192"/>
      </g>
      <g id="Group_10727" data-name="Group 10727" transform="translate(93.468 4.521)">
        <circle id="Ellipse_14" data-name="Ellipse 14" cx="2.26" cy="2.26" r="2.26" fill="#fff"/>
      </g>
      <g id="Group_10728" data-name="Group 10728" transform="translate(85.557 4.521)">
        <circle id="Ellipse_15" data-name="Ellipse 15" cx="2.26" cy="2.26" r="2.26" fill="#fff"/>
      </g>
      <g id="Group_10729" data-name="Group 10729" transform="translate(77.645 4.521)">
        <circle id="Ellipse_16" data-name="Ellipse 16" cx="2.26" cy="2.26" r="2.26" fill="#fff"/>
      </g>
      <g id="Group_10730" data-name="Group 10730" transform="translate(17.744 4.521)">
        <path id="Path_9081" data-name="Path 9081" d="M80.76,24.521h48.6a2.26,2.26,0,0,0,0-4.521H80.76a2.26,2.26,0,0,0,0,4.521Z" transform="translate(-78.5 -20)" fill="#4a80aa"/>
      </g>
      <g id="Group_10731" data-name="Group 10731" transform="translate(21.24 22.739)">
        <circle id="Ellipse_17" data-name="Ellipse 17" cx="35.5" cy="35.5" r="35.5" transform="translate(0.127 0.127)" fill="#4a80aa"/>
      </g>
      <g id="Group_10732" data-name="Group 10732" transform="translate(21.7 33.197)">
        <path id="Path_9082" data-name="Path 9082" d="M96,172.151a35.48,35.48,0,0,0,60.649,25.288,3.315,3.315,0,0,1-4.71,0,3.368,3.368,0,0,1,0-4.742L111.116,151.6a3.315,3.315,0,0,1-4.71,0,3.368,3.368,0,0,1,0-4.742A35.77,35.77,0,0,0,96,172.151Z" transform="translate(-96 -146.863)" fill="#365e7d"/>
      </g>
      <g id="Group_10733" data-name="Group 10733" transform="translate(28.767 30.266)">
        <circle id="Ellipse_18" data-name="Ellipse 18" cx="29" cy="29" r="29" transform="translate(-0.4 -0.4)" fill="#7f8fa6"/>
      </g>
      <g id="Group_10742" data-name="Group 10742" transform="translate(35.828 41.678)">
        <g id="Group_10735" data-name="Group 10735">
          <g id="Group_10734" data-name="Group 10734">
            <path id="Path_9083" data-name="Path 9083" d="M183.348,184.915a3.789,3.789,0,0,1,0,4.356c-3.237,4.606-11.575,14.915-21.351,14.915s-18.113-10.309-21.351-14.915a3.789,3.789,0,0,1,0-4.356C143.885,180.309,152.222,170,162,170S180.111,180.309,183.348,184.915Z" transform="translate(-139.958 -170)" fill="#fff"/>
          </g>
        </g>
        <g id="Group_10737" data-name="Group 10737" transform="translate(10.503 6.152)">
          <g id="Group_10736" data-name="Group 10736" transform="translate(0 0)">
            <ellipse id="Ellipse_19" data-name="Ellipse 19" cx="12" cy="10.5" rx="12" ry="10.5" transform="translate(0.036 0.037)" fill="#365e7d"/>
          </g>
        </g>
        <g id="Group_10739" data-name="Group 10739" transform="translate(14.267 9.917)">
          <g id="Group_10738" data-name="Group 10738" transform="translate(0 0)">
            <circle id="Ellipse_20" data-name="Ellipse 20" cx="7.5" cy="7.5" r="7.5" transform="translate(0.273 0.272)" fill="#7f8fa6"/>
          </g>
        </g>
        <g id="Group_10741" data-name="Group 10741" transform="translate(23.048 9.917)">
          <g id="Group_10740" data-name="Group 10740" transform="translate(0 0)">
            <circle id="Ellipse_21" data-name="Ellipse 21" cx="3.5" cy="3.5" r="3.5" transform="translate(0.491 0.272)" fill="#fff"/>
          </g>
        </g>
      </g>
    </g>
  </g>
</svg>
