<svg xmlns="http://www.w3.org/2000/svg" width="138" height="138" viewBox="0 0 138 138">
  <g id="profile_login" transform="translate(503 -240.5)">
    <g id="ellipse03" transform="translate(-503 240.5)" fill="none" stroke="#fff" stroke-width="1">
      <circle cx="69" cy="69" r="69" stroke="none"/>
      <circle cx="69" cy="69" r="68.5" fill="none"/>
    </g>
    <circle id="ellipse02" cx="64" cy="64" r="64" transform="translate(-498 245.5)" fill="#fff"/>
    <g id="profile" transform="translate(-493.762 249.738)">
      <g id="Group_10635" data-name="Group 10635" transform="translate(0 0)">
        <g id="Group_10621" data-name="Group 10621" transform="translate(0 0.035)">
          <path id="Path_6284" data-name="Path 6284" d="M59.768,112.946l23.678-5.979A61.191,61.191,0,0,0,57.711.149,59.76,59.76,0,0,0,17.7,102.325Z" transform="translate(0 -0.149)" fill="#cbe2ff"/>
        </g>
        <g id="Group_10622" data-name="Group 10622" transform="translate(52.165)">
          <path id="Path_6285" data-name="Path 6285" d="M275.622,59.762a59.669,59.669,0,0,1-23.99,47.875l21.484-5.425A59.759,59.759,0,0,0,231.054,0a60.344,60.344,0,0,0-7.6.479,59.773,59.773,0,0,1,52.165,59.283Z" transform="translate(-223.457 0)" fill="#bed8fb"/>
        </g>
        <g id="Group_10634" data-name="Group 10634" transform="translate(16.349 17.106)">
          <g id="Group_10633" data-name="Group 10633">
            <g id="Group_10632" data-name="Group 10632">
              <path id="Path_6286" data-name="Path 6286" d="M197.171,78.8a5.527,5.527,0,0,0-5.527-5.527H172.6A12.719,12.719,0,0,0,159.88,86v14.122h44.87V86.2a5.527,5.527,0,0,0-5.527-5.527h-.186A1.866,1.866,0,0,1,197.171,78.8Z" transform="translate(-138.905 -73.278)" fill="#365e7d"/>
              <path id="Path_6287" data-name="Path 6287" d="M296.67,80.67h-.186a1.867,1.867,0,0,1-1.867-1.867,5.527,5.527,0,0,0-5.527-5.527H287v26.841H302.2V86.2A5.526,5.526,0,0,0,296.67,80.67Z" transform="translate(-236.351 -73.277)" fill="#2b4d66"/>
              <path id="Path_6288" data-name="Path 6288" d="M152.908,342.8a13.249,13.249,0,0,0-5.32-3.209l-16.316-5.166-17.823-.626-17.831.626L79.3,339.591a13.279,13.279,0,0,0-9.271,12.659v4.457a59.589,59.589,0,0,0,41.362,18.657A61.3,61.3,0,0,0,152.908,342.8Z" transform="translate(-70.032 -272.981)" fill="#4a80aa"/>
              <path id="Path_6289" data-name="Path 6289" d="M274.513,383.4v-4.457a13.276,13.276,0,0,0-4.927-10.321,59.812,59.812,0,0,1-46.069,32.99,60.312,60.312,0,0,0,7.476.48,63.9,63.9,0,0,0,7.2-.416A59.608,59.608,0,0,0,274.513,383.4Z" transform="translate(-187.687 -299.677)" fill="#407093"/>
              <path id="Path_6290" data-name="Path 6290" d="M217.365,360.907c3.616-7.179,13.031-27.562,10.346-40.295l-11.7-4.552-11.707,4.552c-2.768,13.125,7.323,34.381,10.664,40.921Q216.178,361.244,217.365,360.907Z" transform="translate(-172.598 -259.383)" fill="#e4f6ff"/>
              <path id="Path_6291" data-name="Path 6291" d="M238.873,422.528l-4.742-18.656h-5.548l-4.731,18.605,5.85,6.512q2.227-.51,4.391-1.181Z" transform="translate(-187.943 -326.696)" fill="#e28086"/>
              <path id="Path_6292" data-name="Path 6292" d="M245.516,500.961c.484.013.97.021,1.457.022.564,0,1.126-.011,1.686-.026l3.013-3.329a59.3,59.3,0,0,1-7.309,2.049Z" transform="translate(-203.666 -398.565)" fill="#dd636e"/>
              <g id="Group_10630" data-name="Group 10630" transform="translate(20.975 14.975)">
                <g id="Group_10629" data-name="Group 10629" transform="translate(12.446 34.011)">
                  <g id="Group_10628" data-name="Group 10628">
                    <g id="Group_10627" data-name="Group 10627">
                      <g id="Group_10626" data-name="Group 10626">
                        <g id="Group_10625" data-name="Group 10625">
                          <g id="Group_10624" data-name="Group 10624">
                            <g id="Group_10623" data-name="Group 10623">
                              <path id="Path_6293" data-name="Path 6293" d="M233.172,293.637v-10.52H213.194v10.52c0,5.517,9.989,11.543,9.989,11.543S233.172,299.154,233.172,293.637Z" transform="translate(-213.194 -283.117)" fill="#ffddce"/>
                            </g>
                          </g>
                        </g>
                      </g>
                    </g>
                  </g>
                </g>
                <path id="Path_6294" data-name="Path 6294" d="M204.75,147.438h-3.819a3.845,3.845,0,0,1-3.846-3.846v-2.1a4.06,4.06,0,0,0-5.334-3.854,30.067,30.067,0,0,1-18.868,0l-.007,0a4.06,4.06,0,0,0-5.333,3.855v2.105a3.845,3.845,0,0,1-3.846,3.846H159.88v6.289a2.91,2.91,0,0,0,2.91,2.91.957.957,0,0,1,.952.9,18.612,18.612,0,0,0,37.148,0,.957.957,0,0,1,.952-.9,2.91,2.91,0,0,0,2.91-2.91v-6.289Z" transform="translate(-159.88 -137.424)" fill="#ffddce"/>
                <path id="Path_6295" data-name="Path 6295" d="M267.927,147.44a3.845,3.845,0,0,1-3.846-3.846v-2.1a4.06,4.06,0,0,0-5.333-3.854q-1.088.36-2.2.632v20.77a18.607,18.607,0,0,1-9.274,15.818,18.592,18.592,0,0,0,20.606-17.314.957.957,0,0,1,.952-.9,2.91,2.91,0,0,0,2.91-2.91V147.44h-3.819Z" transform="translate(-226.875 -137.427)" fill="#ffcbbe"/>
              </g>
              <g id="Group_10631" data-name="Group 10631" transform="translate(25.587 56.677)">
                <path id="Path_6296" data-name="Path 6296" d="M187.47,316.06l-7.834,6.365,8.215,10.158a2.721,2.721,0,0,0,3.643.139l6.178-5.161Z" transform="translate(-179.636 -316.06)" fill="#f4fbff"/>
                <path id="Path_6297" data-name="Path 6297" d="M266.677,316.06l-9.779,11.5,5.807,4.965a2.722,2.722,0,0,0,3.654-.106l8.157-9.995Z" transform="translate(-238.862 -316.06)" fill="#f4fbff"/>
              </g>
            </g>
            <path id="Path_6298" data-name="Path 6298" d="M171.1,316.06l-11.5,5.649a1.742,1.742,0,0,0-.78,2.362l2.253,4.368a2.925,2.925,0,0,1-.533,3.411l-1.4,1.4a2.918,2.918,0,0,0-.716,2.973c2.72,8.291,15.81,20.97,20.764,25.557q.5.013,1,.019C176.593,354.81,163.862,328.262,171.1,316.06Z" transform="translate(-137.675 -259.383)" fill="#365e7d"/>
            <path id="Path_6299" data-name="Path 6299" d="M279.512,331.849a2.924,2.924,0,0,1-.533-3.411l2.253-4.368a1.742,1.742,0,0,0-.78-2.362l-11.5-5.649c7.232,12.2-5.49,38.735-9.086,45.732q.507-.009,1.012-.025c4.964-4.6,18.033-17.261,20.75-25.544a2.918,2.918,0,0,0-.716-2.973Z" transform="translate(-215.551 -259.383)" fill="#365e7d"/>
            <path id="Path_6300" data-name="Path 6300" d="M236.922,365.327l-6.084,5.081,3.1,3.917h5.548l3.1-4.149Z" transform="translate(-193.299 -297.149)" fill="#dd636e"/>
          </g>
        </g>
      </g>
    </g>
  </g>
</svg>
