<svg xmlns="http://www.w3.org/2000/svg" width="138" height="138" viewBox="0 0 138 138">
  <g id="star_icon" transform="translate(503 -240.5)">
    <g id="Ellipse_3" data-name="Ellipse 3" transform="translate(-503 240.5)" fill="none" stroke="#fff" stroke-width="1">
      <circle cx="69" cy="69" r="69" stroke="none"/>
      <circle cx="69" cy="69" r="68.5" fill="none"/>
    </g>
    <circle id="Ellipse_2" data-name="Ellipse 2" cx="64" cy="64" r="64" transform="translate(-498 245.5)" fill="#fff"/>
    <circle id="Ellipse_12" data-name="Ellipse 12" cx="57" cy="57" r="57" transform="translate(-491 252.5)" fill="#e22453"/>
    <g id="star" transform="translate(-467.915 267.139)">
      <path id="Path_6303" data-name="Path 6303" d="M104.533,35.092,86.293,33.4,79.047,16.575a1.462,1.462,0,0,0-2.685,0L69.117,33.4l-18.24,1.692a1.462,1.462,0,0,0-.83,2.554l13.762,12.09-4.028,17.87a1.462,1.462,0,0,0,2.172,1.578L77.7,59.831l15.751,9.353a1.462,1.462,0,0,0,2.172-1.578L91.6,49.735l13.762-12.09A1.462,1.462,0,0,0,104.533,35.092Z" transform="translate(-42.79 -4.076)" fill="#fff"/>
      <g id="Group_10714" data-name="Group 10714" transform="translate(0 10.971)">
        <path id="Path_6304" data-name="Path 6304" d="M93.121,11.919c.93,1.292,3.554,6.838,5.055,10.071a.507.507,0,0,1-.809.582c-2.59-2.448-7.017-6.7-7.947-7.989a2.28,2.28,0,0,1,3.7-2.664Z" transform="translate(-76.853 -10.971)" fill="#fff"/>
        <path id="Path_6305" data-name="Path 6305" d="M360.39,11.919c-.93,1.292-3.554,6.838-5.055,10.071a.507.507,0,0,0,.809.582c2.59-2.448,7.017-6.7,7.947-7.989a2.28,2.28,0,0,0-3.7-2.664Z" transform="translate(-306.829 -10.971)" fill="#fff"/>
        <path id="Path_6306" data-name="Path 6306" d="M426.35,284.48c-1.513-.493-7.6-1.309-11.131-1.756a.507.507,0,0,0-.309.947c3.12,1.723,8.513,4.651,10.026,5.144a2.28,2.28,0,0,0,1.414-4.336Z" transform="translate(-358.094 -245.657)" fill="#fff"/>
        <path id="Path_6307" data-name="Path 6307" d="M1.574,284.48c1.513-.493,7.6-1.309,11.131-1.756a.507.507,0,0,1,.309.947c-3.12,1.723-8.513,4.651-10.026,5.144a2.28,2.28,0,0,1-1.414-4.336Z" transform="translate(0 -245.657)" fill="#fff"/>
        <path id="Path_6308" data-name="Path 6308" d="M239.794,411.242c0-1.591,1.111-7.627,1.782-11.127a.507.507,0,0,1,1,0c.671,3.5,1.782,9.535,1.782,11.127a2.28,2.28,0,0,1-4.56,0Z" transform="translate(-207.09 -346.685)" fill="#fff"/>
      </g>
      <path id="Path_6309" data-name="Path 6309" d="M81.682,22.693l-2.635-6.118a1.462,1.462,0,0,0-2.685,0L69.117,33.4l-18.24,1.692a1.462,1.462,0,0,0-.83,2.554l13.762,12.09-4.028,17.87a1.462,1.462,0,0,0,2.172,1.578l2.1-1.245A113.473,113.473,0,0,1,81.682,22.693Z" transform="translate(-42.79 -4.076)" fill="#f4f4f4"/>
    </g>
  </g>
</svg>
