<svg xmlns="http://www.w3.org/2000/svg" xmlns:xlink="http://www.w3.org/1999/xlink" width="22.998" height="22.998" viewBox="0 0 22.998 22.998">
  <defs>
    <clipPath id="clip-path">
      <path id="Clip_2346" data-name="Clip 2346" d="M0,11.5A11.5,11.5,0,0,0,11.5,23h0A11.5,11.5,0,0,0,23,11.5h0A11.5,11.5,0,0,0,11.5,0h0A11.5,11.5,0,0,0,0,11.5Z" fill="none"/>
    </clipPath>
  </defs>
  <g id="su" clip-path="url(#clip-path)">
    <path id="Fill_2345" data-name="Fill 2345" d="M0,23.89H38.917V0H0Z" transform="translate(-7.96 -0.446)" fill="#006b35"/>
    <path id="Fill_2347" data-name="Fill 2347" d="M1.423,1.535c-.007.279.026.608.169.475s0-.8,0-.8C1.534.886,1.485.742,1.452.455S1.5-.024,1.627,0c.258.059.292.543.316.842a2.624,2.624,0,0,0,.141.865c.1.171.234.041.108-.17A1.381,1.381,0,0,1,2.065.608c.088-.269.31-.046.31-.046a1.292,1.292,0,0,1,.184,1c.42.385.477.34.575.34s.057-.349-.03-.43S2.716.886,2.8.617s.389-.251.574.035c.234.332.078.409-.059.284a2.233,2.233,0,0,1,.234,1.1c-.107.305-.725.587-.972.359s-.4-.1-.4.054a7.073,7.073,0,0,1,.059,1.273c-.107.7-.379.591-.379.591s-.048-1.218-.1-1.43-.19-.174-.472-.263-.2-.771-.2-.771.063-.462-.049-.564c-.174,0-.165.313-.165.511s0,.734-.3.734-.5-.25-.544-.618a6.211,6.211,0,0,1,0-1s.126-.232.2.189.154.878.281.878.176-.564.254-.8S.981.633,1.237.68s.19.637.186.855" transform="translate(1.82 6.166)" fill="#fff"/>
    <path id="Fill_2348" data-name="Fill 2348" d="M17.832,6.439c-.087,0-.143-.019-.166-.058a.115.115,0,0,1,0-.1.706.706,0,0,0,.067-.074.483.483,0,0,1,.106-.1,1.878,1.878,0,0,1,.277-.134,2.2,2.2,0,0,0,.251-.118,1.456,1.456,0,0,0,.583-.7,5.076,5.076,0,0,0-.018-.624c-.01-.164-.02-.318-.02-.416,0-.081-.059-.737-.1-1.075-.009-.077-.017-.153-.026-.228-.035-.312-.068-.608-.13-.991-.008-.048-.018-.108-.03-.175A3.569,3.569,0,0,1,18.546.4L18.682.15a.424.424,0,0,1,.172.174c.014.021.028.041.041.059.051.066.1.134.146.2l.088.122A.9.9,0,0,1,19.2.828a.6.6,0,0,0,.1.164.23.23,0,0,1-.018.089l-.1.009-.1.009v.018h-.02a2.27,2.27,0,0,0,.1.555A2.144,2.144,0,0,1,19.221,2a2.139,2.139,0,0,0,.046.3c.005.106.017.2.028.286s.021.166.028.264a9.427,9.427,0,0,1,.042,1.209c0,.1,0,.191,0,.284q0,.082,0,.163a2.532,2.532,0,0,1-.215,1.36,1.344,1.344,0,0,1-.72.484A1.816,1.816,0,0,1,18,6.422,1,1,0,0,1,17.832,6.439ZM2.114,6.34l-.076,0A1.013,1.013,0,0,1,.995,5.456a1.486,1.486,0,0,1,.12-.827c.015-.031.037-.077.082-.083h0c.021,0,.079.015.084.032.021.1.034.2.048.316.035.292.071.594.264.722a1.13,1.13,0,0,0,.641.18A1.926,1.926,0,0,0,3.6,5.2a2.092,2.092,0,0,0,.331-.626c.016-.084.038-.17.059-.252s.042-.167.058-.25a.426.426,0,0,0-.04-.232c-.143.018-.191.251-.233.458a1.314,1.314,0,0,1-.057.224,1.683,1.683,0,0,1-.973.932,1.3,1.3,0,0,1-.41.071.9.9,0,0,1-.805-.474A1.192,1.192,0,0,1,1.577,3.86h.1a2.567,2.567,0,0,1,.053.329c.033.273.071.583.258.693a.491.491,0,0,0,.246.055,1.3,1.3,0,0,0,.4-.073,1.231,1.231,0,0,0,.914-.932.992.992,0,0,0-.148.049c-.021.012-.04.025-.06.038a.721.721,0,0,1-.1.059.542.542,0,0,1-.219.043.667.667,0,0,1-.126-.012.348.348,0,0,1-.286-.4A.865.865,0,0,1,2.776,3.1.647.647,0,0,1,3.2,2.885a.38.38,0,0,1,.071.007.891.891,0,0,1,.508.377.213.213,0,0,0,.17-.08.457.457,0,0,0,.039-.343c-.014-.057-.028-.113-.042-.169A6.094,6.094,0,0,1,3.8,1.991c-.01-.076-.02-.153-.029-.23A5.738,5.738,0,0,0,3.64.992,2.37,2.37,0,0,1,3.565.541c-.013-.227.287-.283.29-.284l.034,0a.234.234,0,0,1,.165.078,1.287,1.287,0,0,1,.258.549l.009.035a1.2,1.2,0,0,0,.041.132l.007.017c.022.051.064.146.039.2a.068.068,0,0,1-.043.037.1.1,0,0,1-.031,0A.283.283,0,0,1,4.272,1.3a.314.314,0,0,0-.06-.008.089.089,0,0,0-.048.012c-.066.042-.037.144-.019.205l0,.008c.027.1.053.2.072.294.047.248.073.5.1.749.013.127.026.258.042.385l.011.007.009.01a.508.508,0,0,0,.081-.024.384.384,0,0,1,.123-.029.129.129,0,0,1,.068.018c.064.03.069.094.076.162a.244.244,0,0,0,.042.142.185.185,0,0,0,.112.032.268.268,0,0,0,.16-.05.333.333,0,0,0,.1-.142.494.494,0,0,1,.06-.109l.024-.016.112-.073h.011a.172.172,0,0,1,.086.017c.079.026.112.1.143.18.011.025.02.049.032.071.148,0,.153-.059.159-.133A.279.279,0,0,1,5.8,2.874c.026-.06.089-.079.156-.1a.409.409,0,0,0,.115-.045h.02v.006a1.456,1.456,0,0,1-.21.894.348.348,0,0,1-.257.1.566.566,0,0,1-.137-.018.509.509,0,0,1-.118-.051.556.556,0,0,0-.135-.057.779.779,0,0,1-.53.256.312.312,0,0,1-.269-.13.283.283,0,0,0-.063.013l-.015,0c0,.1.015.2.026.3a2.338,2.338,0,0,1,.013.617,2.114,2.114,0,0,1-1.712,1.6A2.2,2.2,0,0,1,2.114,6.34ZM3.124,3.368H3.107a.1.1,0,0,0-.03.01.222.222,0,0,0-.112.139.1.1,0,0,0,.023.089.15.15,0,0,0,.1.042.513.513,0,0,0,.071.006c.071,0,.113-.023.127-.071a.167.167,0,0,0-.026-.167A.226.226,0,0,0,3.124,3.368ZM14.845,6.339a.672.672,0,0,1-.279-.083,1.123,1.123,0,0,1-.333-.285,1.162,1.162,0,0,1,.012-1.332s0,0,0,0a.312.312,0,0,1,0,.1,1.431,1.431,0,0,0,.186.894l.025.029c.051.06.121.142.214.142a.183.183,0,0,0,.093-.027c.13-.043.188-.207.24-.352.017-.048.033-.093.051-.132a3.142,3.142,0,0,1,.351-.609c.124-.153.214-.161.231-.161h0l.032,0c.143,0,.22.116.337.292a1.444,1.444,0,0,0,.273.3.33.33,0,0,0,.08.01.217.217,0,0,0,.114-.028,1.052,1.052,0,0,0,.219-.824c-.033-.556-.1-1.5-.1-1.611,0-.087-.006-.167-.009-.246s-.006-.17-.009-.258a.736.736,0,0,0-.167-.211c-.033-.033-.064-.065-.088-.093l-.159-.2,0,0c-.08-.1-.162-.208-.247-.314a2.03,2.03,0,0,0-.146-.157,1.438,1.438,0,0,1-.2-.237,1.231,1.231,0,0,1,0-.806c.1,0,.388.285.559.455.045.045.081.081.1.1.061.058.089.1.08.127s-.02.019-.044.019a.2.2,0,0,0-.113.033V.9a.812.812,0,0,1,.095.1.793.793,0,0,0,.1.11l0,0a.338.338,0,0,0,0-.112V1c-.011-.115-.026-.23-.041-.342C16.305.6,16.3.556,16.293.509a.4.4,0,0,1,.026-.216c.022-.048.094-.147.176-.147l.02,0c.1.021.162.158.211.268a1.026,1.026,0,0,0,.049.1c.121.2.223.36.33.527,0,.012,0,.023,0,.034a.125.125,0,0,1-.038.109h-.013a.156.156,0,0,1-.1-.035.428.428,0,0,0-.063-.037.8.8,0,0,0,.02.359c.007.119.012.248.018.394.188.249.552.715.566.717a3.269,3.269,0,0,0-.073-.443l-.022-.1-.06-.3,0-.008c-.041-.2-.084-.413-.124-.621a3.243,3.243,0,0,1-.064-.479l0-.04a.433.433,0,0,1,.076-.338.339.339,0,0,1,.113-.09A.132.132,0,0,1,17.4.152c.162,0,.334.319.51.947l.01.036c0,.057,0,.1-.023.119s-.046.025-.1.025h-.032V1.3h-.021a2.57,2.57,0,0,0,.117.717,2.925,2.925,0,0,1,.073.416A3,3,0,0,0,18,2.8l.076.622.323.4c.114.153.262.356.4.569a1.223,1.223,0,0,1,.019.824l-.006.018a.019.019,0,0,1-.006.01l-.007.008a2.362,2.362,0,0,0-.166-.269l-.049-.072c-.143-.217-.425-.672-.426-.682a1.018,1.018,0,0,0-.006.127,4.748,4.748,0,0,1-.035.519,1.185,1.185,0,0,1-.331.427l-.077.075H17.69c0-.279-.011-.521-.022-.8-.006-.156-.013-.32-.018-.508q-.012-.2-.025-.406l-.013-.2c-.147-.193-.293-.39-.428-.574h-.04q.011.744.019,1.487c0,.063,0,.128,0,.192a1.791,1.791,0,0,1-.042.58.912.912,0,0,1-.193.324.616.616,0,0,1-.462.217.762.762,0,0,1-.318-.077,2.936,2.936,0,0,1-.382-.286.3.3,0,0,0-.2-.091.159.159,0,0,0-.082.02.55.55,0,0,0-.18.4,1.452,1.452,0,0,1-.055.241A.732.732,0,0,1,15,6.289.258.258,0,0,1,14.845,6.339ZM6.239,6.311h0a.917.917,0,0,1-.518-.156.738.738,0,0,1-.218-.3c-.017-.033-.034-.067-.053-.1-.287.088-.566.194-.837.3l-.02.007-.547.153-.1.027h-.03A.268.268,0,0,1,3.8,6.226a.025.025,0,0,1-.006-.021c.008-.078.274-.265.355-.321.176-.116.372-.221.561-.323.117-.063.238-.128.355-.2l.047-.028c.125-.073.253-.149.381-.222a.216.216,0,0,0,.094-.172A.666.666,0,0,1,5.6,4.869c.01-.03.02-.061.029-.091.015-.047.029-.095.048-.141.022-.062.13-.256.219-.257a.852.852,0,0,1-.026.129c-.028.11-.059.235.009.318A.976.976,0,0,0,6.1,4.673l.008-.006c.05-.042.108-.086.17-.133a1.3,1.3,0,0,0,.472-.495.43.43,0,0,0,.014-.28.829.829,0,0,0-.261-.348.525.525,0,0,1-.187-.388.408.408,0,0,1,.085-.3.266.266,0,0,1,.2-.093.472.472,0,0,1,.282.114.781.781,0,0,1,.272.523.227.227,0,0,1-.135-.036h-.1a1.682,1.682,0,0,0,.091.213,1.661,1.661,0,0,1,.123.307,1.024,1.024,0,0,1-.174.826,2.659,2.659,0,0,1-1.032.878.286.286,0,0,0,.087.226.748.748,0,0,1,.049.06,2.44,2.44,0,0,0,.25.016.652.652,0,0,0,.237-.035,2.727,2.727,0,0,0,1.11-1.111,1.292,1.292,0,0,0,.018-.5c-.033-.141-.069-.284-.1-.422l-.033-.133a.765.765,0,0,0-.092-.2c-.016-.027-.031-.053-.044-.079A2.061,2.061,0,0,1,7.3,2.993a.525.525,0,0,1,.02-.514.181.181,0,0,1,.131-.073c.132,0,.233.217.288.334l.012.026a5.1,5.1,0,0,1,.291.789,1.369,1.369,0,0,1,.039.26.764.764,0,0,0,.078.331c.059-.015.07-.044.087-.087l.009-.022a.4.4,0,0,1,.1-.131,2.334,2.334,0,0,1,1.016-.46,1.044,1.044,0,0,1,.176-.026.849.849,0,0,0,.174-.027,2.324,2.324,0,0,0,.029-.276.878.878,0,0,1,.108-.459.537.537,0,0,1,.441-.229.828.828,0,0,1,.55.247.648.648,0,0,1,.021.682,1.391,1.391,0,0,1-1.227.592l-.008.009-.011.007a.231.231,0,0,0,.013.058l0,.014.569.007.814.011c.051,0,.108,0,.161-.008s.107-.008.161-.008a.46.46,0,0,1,.278.07.549.549,0,0,0-.2.36.813.813,0,0,1-.105.268,2.782,2.782,0,0,1-.9.206c-.156.021-.3.041-.4.063l-.092.008-.3.026s-.24.148-.261.27.209.281.378.349.292.137.232.313c-.034.1-.122.145-.269.145A1.163,1.163,0,0,1,9.533,6.1a2.427,2.427,0,0,1-.945-.313,2.036,2.036,0,0,1-.337-.263c-.012-.012-.059-.07-.109-.132A2.069,2.069,0,0,0,7.978,5.2a.536.536,0,0,0-.334.276c-.025.036-.048.07-.073.1A1.974,1.974,0,0,1,6.239,6.311ZM8.374,4.465H8.368a.126.126,0,0,1-.066.026.2.2,0,0,0-.052.015c-.082.393.166.571.407.743.063.045.123.088.177.135h0a.222.222,0,0,0,.113-.018.3.3,0,0,0,.015-.184.421.421,0,0,1,0-.174c.044-.126.2-.189.342-.243.052-.021.1-.04.144-.062,0-.074-.009-.112-.058-.143A6.111,6.111,0,0,0,8.374,4.465ZM10.137,3H10.1a.012.012,0,0,0-.01.006c-.015.024.012.11.018.121a.266.266,0,0,0,.144.1.219.219,0,0,0,.039,0,.226.226,0,0,0,.117-.021.012.012,0,0,0,0-.009C10.4,3.061,10.318,3,10.137,3ZM.4,6.264a.362.362,0,0,1-.377-.259A1.575,1.575,0,0,1,.313,4.792s.018.181.016.2c-.006.062-.016.126-.026.187-.006.038-.012.076-.017.115a.625.625,0,0,0,.07.5A.471.471,0,0,1,.6,5.642a.065.065,0,0,1,.056.029c.05.074.006.273-.029.363-.021.056-.1.217-.185.228A.4.4,0,0,1,.4,6.264Zm10.4-.217h-.027c-.076,0-.136-.006-.155-.078a.305.305,0,0,1,0-.1.371.371,0,0,0,0-.075V5.793c0-.032-.008-.071-.039-.086a.062.062,0,0,0-.027-.005.231.231,0,0,0-.064.014.241.241,0,0,1-.067.014.066.066,0,0,1-.028-.006.078.078,0,0,1-.039-.031.143.143,0,0,0-.019-.023.021.021,0,0,1-.006-.02c.011-.071.247-.243.321-.279a.062.062,0,0,1,.014-.007.1.1,0,0,1,.027,0,.411.411,0,0,1,.143.04l0,0a.417.417,0,0,1-.024.111c-.023.072-.046.146.008.21a.354.354,0,0,1,.02.053.828.828,0,0,0,.206-.059.876.876,0,0,1,.279-.073.187.187,0,0,1,.1.025h.04l.006.016a.026.026,0,0,0,.006.011l.007.009v.007a.176.176,0,0,1-.019.1.951.951,0,0,1-.325.115,1.014,1.014,0,0,0-.338.119Zm.916-.341h0c0-.158.007-.325.013-.487.011-.27.021-.548.006-.8-.012-.2-.019-.369-.019-.611l-.039-.626-.1-.878-.208-.286c-.091-.12-.18-.243-.266-.363-.129-.179-.261-.363-.4-.537-.042-.052-.091-.1-.142-.156a1.229,1.229,0,0,1-.261-.343.876.876,0,0,1-.039-.386c0-.021,0-.042,0-.063a.469.469,0,0,0,.076-.088,1.566,1.566,0,0,1,.9.619c0-.016,0-.037,0-.061a.717.717,0,0,1,.013-.253A.463.463,0,0,1,11.4.15l.009-.006a.026.026,0,0,1,.012-.006l.017-.006c.064.091.139.181.211.269a3.058,3.058,0,0,1,.315.431,1.366,1.366,0,0,1,.122.336c0,.008.034.075.016.1a.028.028,0,0,1-.025.012.24.24,0,0,1-.107-.045.026.026,0,0,0-.013,0,.012.012,0,0,0-.01,0c-.015.017-.009.077,0,.116,0,.008,0,.015,0,.021a2.75,2.75,0,0,0,.061.365,1.024,1.024,0,0,1,.018.2.909.909,0,0,0,.024.222.707.707,0,0,0,.164.264l.04.048a6.628,6.628,0,0,1,.594.89c.1.164.2.334.3.5a1.366,1.366,0,0,1,.158.405l0,.014c.047.18.126.48-.023.631a.057.057,0,0,1-.039.02c-.048,0-.083-.088-.109-.152-.008-.02-.015-.038-.021-.049-.027-.051-.052-.1-.076-.156s-.04-.085-.061-.127a5.563,5.563,0,0,0-.341-.554,6.018,6.018,0,0,1-.319-.512c-.026-.049-.051-.092-.077-.133a.461.461,0,0,0-.034-.041.242.242,0,0,1-.056-.08h0a.017.017,0,0,0-.013.006c-.03.033-.015.188-.007.272,0,.02,0,.035,0,.043l.007.122c0,.084.01.168.014.252.011.257.021.508.021.757,0,.055,0,.114.006.176a1.4,1.4,0,0,1-.027.468c-.151.462-.434.483-.446.484Zm2.8-.246a.021.021,0,0,1-.014,0,13.825,13.825,0,0,0-.33-3.029c-.029-.129-.052-.258-.074-.383a5.181,5.181,0,0,0-.122-.567c-.1-.353-.109-1.149.155-1.309a4.416,4.416,0,0,0,.332.592c.022.033.048.065.075.1a.618.618,0,0,1,.177.367h-.035a.471.471,0,0,0-.217.036,3.028,3.028,0,0,0,.116.7,3.1,3.1,0,0,1,.072.468,3.025,3.025,0,0,0,.064.428q.044.367.088.734t.088.734a2.051,2.051,0,0,1-.107.82C14.654,5.394,14.552,5.46,14.511,5.46ZM5.257,4.842a.023.023,0,0,1-.022-.014c.008-.308,0-.489-.233-.628A.148.148,0,0,1,5,4.082a.124.124,0,0,1,.1-.058h.018a.369.369,0,0,1,.278.217.525.525,0,0,1-.078.571A.1.1,0,0,1,5.257,4.842Zm11.031-.193h0a.244.244,0,0,1-.074-.017h0c0-.035,0-.067,0-.1a1.084,1.084,0,0,0-.158-.673c-.044-.176-.008-.21.072-.286a.124.124,0,0,1,.061-.016.184.184,0,0,1,.133.069c.07.078.179.286.123.808a.333.333,0,0,1-.155.214Zm-16.1-.54v0a1.364,1.364,0,0,1,.167-.289l.035-.05a1.683,1.683,0,0,1,.594-.456,1.324,1.324,0,0,1,.354-.137.689.689,0,0,1,.137-.015.406.406,0,0,1,.216.056.2.2,0,0,1,.074.093.358.358,0,0,0,.042.069.009.009,0,0,1,0,.009,1.91,1.91,0,0,1-.5.222l-.041.015c-.135.058-.266.125-.394.19-.1.052-.208.106-.314.154A1.44,1.44,0,0,1,.4,4.027a1.189,1.189,0,0,0-.207.08Zm15.145-.195a.017.017,0,0,1-.012-.006c-.034-.036-.026-.223-.026-.225,0-.094.161-.187.279-.255.034-.019.063-.036.083-.05l.064-.047a3.348,3.348,0,0,1,.412-.271l.03-.016a.9.9,0,0,0,.108-.064.246.246,0,0,0,.022-.02.111.111,0,0,1,.068-.041.05.05,0,0,1,.024.006c.033.017.034.073.036.107V3.04a.4.4,0,0,1-.2.351A4.93,4.93,0,0,1,15.334,3.913ZM8.95,3.148a.349.349,0,0,1-.212-.059A.243.243,0,0,1,8.6,2.923a.224.224,0,0,1,.026-.211l.007-.021.011-.032a.137.137,0,0,1,.12.055.115.115,0,0,1,.014.032c.008.023.016.049.041.054h.007c.032,0,.051-.04.063-.071,0-.012.008-.023.011-.034s.012-.037.017-.037c.093.009.111.061.132.121a.462.462,0,0,0,.024.059h.04c.008-.023.016-.045.023-.067a.688.688,0,0,1,.053-.132h.08c.006.011.011.018.015.024a.159.159,0,0,1,.023.048.383.383,0,0,1,.02.27C9.285,3.084,9.1,3.148,8.95,3.148Zm6.87-.237h0a1.541,1.541,0,0,1-.294-.14,1.04,1.04,0,0,1-.421-.4.312.312,0,0,1,0-.278A.2.2,0,0,1,15.27,2h.009a.151.151,0,0,1,.124.078l.024.029a.141.141,0,0,0,.07.052c.01,0,.042,0,.068-.009h.01l.05-.007a.327.327,0,0,1,0-.3.206.206,0,0,1,.165-.11h.02c.086,0,.161.058.221.171a.664.664,0,0,1,.061.193c.008.042.005.069-.007.084a.055.055,0,0,1-.045.016.549.549,0,0,1-.1-.015.371.371,0,0,1-.079.054l-.04.681ZM8.173,2.5h0a.562.562,0,0,1-.4-.175.67.67,0,0,1-.187-.481,1.043,1.043,0,0,0,0-.13c0-.03,0-.061-.005-.092s0-.048,0-.072a.842.842,0,0,0-.017-.182c-.137.01-.158.141-.176.256a.7.7,0,0,1-.021.1L7.334,1.8a1.366,1.366,0,0,1-.192.431.223.223,0,0,1-.184.087.578.578,0,0,1-.272-.09.8.8,0,0,1-.257-.283A1.433,1.433,0,0,1,6.3,1.31,2.315,2.315,0,0,1,6.382.651a.229.229,0,0,1,.07.016l.008,0c.044.013.074.222.086.3l0,.023c0,.012,0,.033.007.06.022.208.079.757.293.757A.151.151,0,0,0,6.907,1.8c.109-.045.13-.186.148-.309a.8.8,0,0,1,.028-.137A2.765,2.765,0,0,1,7.36.8L7.366.788C7.442.67,7.546.51,7.709.51h.016a.22.22,0,0,1,.163.073c.1.116.077.354.056.584S7.9,1.623,8,1.727a.269.269,0,0,0,.17.143.639.639,0,0,1,.1.054.445.445,0,0,0,.354-.148.886.886,0,0,0,.131-.657A1.6,1.6,0,0,0,8.681.849,1.158,1.158,0,0,1,8.6.482a.508.508,0,0,1,.1-.262L8.72.175A.654.654,0,0,1,8.835.007h.079l.014.028a2.106,2.106,0,0,1,.181.437,2.244,2.244,0,0,1,.044.523,1.8,1.8,0,0,0,.054.536c.008.025.015.051.022.076.035.125.068.244.19.282A.271.271,0,0,0,9.5,1.9a.352.352,0,0,0,.226-.109.524.524,0,0,1,.061-.047,1.257,1.257,0,0,0-.174-.734C9.6.985,9.575.959,9.552.93A.7.7,0,0,1,9.457.8.6.6,0,0,1,9.5.311C9.535.2,9.64.148,9.807.148l.06,0,.025.023c.124.113.453.414.345.569-.022.044-.1.057-.161.068a.444.444,0,0,0-.093.022,2.912,2.912,0,0,0,.273.841.858.858,0,0,0,.2.029.432.432,0,0,0,.126-.018.459.459,0,0,0,.1-.05.355.355,0,0,1,.124-.057h.013a.059.059,0,0,1,.051.024.256.256,0,0,1,0,.189.655.655,0,0,1-.148.227l-.037.041a.321.321,0,0,1-.169.125l-.034,0a.09.09,0,0,1-.09-.043.553.553,0,0,1,.036-.169.249.249,0,0,0,.009-.031l-.009-.005a.2.2,0,0,1-.047-.031c-.069,0-.082.007-.117.036a1.182,1.182,0,0,0-.238.292c-.007.011-.013.024-.02.037a.224.224,0,0,1-.048.073.718.718,0,0,1-.318.094l-.045,0a.437.437,0,0,1-.221-.058.754.754,0,0,1-.182-.166c-.006-.007-.019-.025-.033-.046-.034-.05-.081-.119-.1-.121a.509.509,0,0,0-.313.17,1.8,1.8,0,0,1-.224.171A.611.611,0,0,1,8.173,2.5ZM5.666,2.348a.186.186,0,0,1-.139-.053.339.339,0,0,1-.115-.283.439.439,0,0,1,.074-.151l0-.007c.023-.038.083-.139.116-.145l.02,0a.068.068,0,0,0,.038-.014l.042.009.035.008a.177.177,0,0,1-.039.126.451.451,0,0,0,.058.286.276.276,0,0,0,.168-.057.13.13,0,0,0,.019-.021.087.087,0,0,1,.035-.03h.068c-.05.169-.128.271-.23.3A.486.486,0,0,1,5.666,2.348Zm12.547-.492h0a1.282,1.282,0,0,1-.021-.163c0-.022,0-.044.007-.065a.5.5,0,0,0,.007-.116.456.456,0,0,0-.089-.211.954.954,0,0,1-.059-.1c-.011-.022-.023-.046-.037-.07a.438.438,0,0,1-.079-.242.137.137,0,0,1,.137-.113h.016a.237.237,0,0,1,.16.07.529.529,0,0,1,.117.272l.01.046a.854.854,0,0,1,.018.419.583.583,0,0,1-.077.166.511.511,0,0,1-.11.109ZM4.875,1.831A.784.784,0,0,1,4.594,1.8l-.011-.008-.01-.011a5.786,5.786,0,0,0,.562-.4l.127-.1c.036-.028.074-.055.112-.081a1.689,1.689,0,0,0,.178-.137l.043-.036c.058-.047.13-.1.137-.165s-.048-.1-.1-.13A.367.367,0,0,1,5.564.685.259.259,0,0,1,5.519.438.261.261,0,0,1,5.66.256L5.683.24A.221.221,0,0,1,5.722.222.206.206,0,0,0,5.759.2h.005a.428.428,0,0,1,.327.108.28.28,0,0,1,.058.228.226.226,0,0,1-.091.137l0,0C6.02.711,6,.732,6,.753s.015.037.052.068A.116.116,0,0,1,6.1.908c0,.051-.059.1-.116.139a.781.781,0,0,0-.074.062,2.775,2.775,0,0,0-.2.23,1.188,1.188,0,0,1-.559.461A.8.8,0,0,1,4.875,1.831ZM5.8.455a.055.055,0,0,0-.032.01.109.109,0,0,0-.034.088.163.163,0,0,0,.045.124.125.125,0,0,0,.075.031A.08.08,0,0,0,5.93.639.153.153,0,0,0,5.844.468.091.091,0,0,0,5.8.455Zm6.732.806h0l0-.068c0-.1.009-.193.016-.289a.658.658,0,0,0-.163-.242.989.989,0,0,1-.11-.134.162.162,0,0,1-.02-.055.125.125,0,0,0-.02-.053.251.251,0,0,1,.033-.112L12.28.293a.26.26,0,0,0,.077-.036.366.366,0,0,1,.352.217.819.819,0,0,1-.1.769l-.015,0a.245.245,0,0,1-.061.013ZM.8.989h0A.42.42,0,0,1,.785.808.435.435,0,0,0,.768.622.508.508,0,0,0,.656.471a.482.482,0,0,1-.1-.134A.225.225,0,0,1,.577.18.055.055,0,0,1,.622.15.272.272,0,0,1,.8.186.419.419,0,0,1,.967.579C.966.594.949.942.8.989ZM8.213.832h0A.236.236,0,0,1,8.089.8L8.077.8A1.043,1.043,0,0,1,8.292.042h.058l.007.009a.075.075,0,0,0,.031.027.8.8,0,0,1-.085.6c-.019.047-.038.091-.052.131L8.231.82A.02.02,0,0,0,8.22.826L8.213.832ZM6.882.7A.146.146,0,0,1,6.757.624C6.665.49,6.794.252,6.821.205A.427.427,0,0,1,6.957.06.419.419,0,0,1,7.107,0a.033.033,0,0,1,.016,0,.035.035,0,0,1,.016.022.2.2,0,0,1-.045.127.6.6,0,0,1-.087.1L7,.268A.118.118,0,0,0,6.951.4c.015.076.053.076.1.076H7.07a.231.231,0,0,1,.05,0A.288.288,0,0,1,6.882.7ZM2.675.7A.348.348,0,0,1,2.463.638.25.25,0,0,1,2.32.471.224.224,0,0,1,2.345.262l.02-.053c.1,0,.116.04.135.093a.451.451,0,0,0,.02.05h.012A.116.116,0,0,0,2.6.333.316.316,0,0,0,2.636.208c.094.009.113.062.134.123a.489.489,0,0,0,.023.056h.038c.009-.024.018-.048.025-.071A.689.689,0,0,1,2.909.19h.079L3,.212a.173.173,0,0,1,.025.05.39.39,0,0,1,.02.268C3.01.633,2.825.7,2.675.7Z" transform="translate(1.715 5.934)" fill="#fff"/>
    <path id="Fill_2349" data-name="Fill 2349" d="M.245.3S0,.2.089.03A.876.876,0,0,1,.336,0C.492,0,.59.072.524.179S.4.368.546.368.8.4.654.532.109.825.024.7.133.494.2.43A.121.121,0,0,0,.245.3" transform="translate(18.782 11.52)" fill="#fff"/>
    <path id="Fill_2350" data-name="Fill 2350" d="M.176.208S.182.321.24.321.311.3.325.208.46.145.46.227.511.356.549.321c0,0-.017-.188.106-.177S.765.36.74.464.577.659.383.659.049.611.007.425.118.07.176.208" transform="translate(13.938 7.412)" fill="#fff"/>
    <path id="Fill_2351" data-name="Fill 2351" d="M.325.271.5.256.578.609S.325.337.325.271" transform="translate(12.514 6.586)" fill="#fff"/>
    <path id="Fill_2352" data-name="Fill 2352" d="M1.134,1.127A1.714,1.714,0,0,1,1.167.238c.157-.281.1-.347.3-.012s.467.794.13.823a5.837,5.837,0,0,0,.156,1.3A16.808,16.808,0,0,1,1.874,4.7,2.315,2.315,0,0,1,.94,6.032C.535,6.3.1,6.236,0,5.913a11.518,11.518,0,0,0,1.03-.645c.4-.317.461-.359.461-.705S1.3,2.484,1.3,2.484Z" transform="translate(13.696 6.133)" fill="#fff"/>
    <path id="Fill_2353" data-name="Fill 2353" d="M13.893,1.732h0a.272.272,0,0,1-.271-.167l-1.453.007c-.023.031-.1.129-.193.129a.167.167,0,0,1-.138-.1.611.611,0,0,1-.053-.566H11.7c-.7,0-3.156.009-3.641.011H3.366L1.536,1.04s-.041,0-.1,0A1.8,1.8,0,0,1,0,.376H0C.013.376,1.645.46,2.737.46,3.784.46,6.96.477,7.094.478L11.818.49l0,0c-.048-.054-.155-.193-.12-.313.023-.081.106-.14.246-.174a.17.17,0,0,0,.03.12.033.033,0,0,0,.022.011c.013,0,.126,0,.167.078s.009.16-.075.286c.4.021.662.038.837.049s.272.017.331.017.206-.018.332-.034c.1-.013.2-.025.239-.025a.56.56,0,0,1,.473.544c.049.441-.047.638-.331.68A.488.488,0,0,1,13.893,1.732Zm-.969-.511a.294.294,0,0,1,.2.087h.421a.211.211,0,0,0,.044-.121.129.129,0,0,0-.044-.094c-.328,0-1.351-.017-1.394-.018,0,0-.1.144,0,.233h.578A.3.3,0,0,1,12.923,1.221Z" transform="translate(4.375 15.971)" fill="#fff"/>
  </g>
</svg>
