<svg xmlns="http://www.w3.org/2000/svg" width="102" height="49" viewBox="0 0 102 49">
  <path id="substitute" d="M99.133,48.491V42.1H98.2v.366c0,.325-.134.509-.482.509s-.482-.184-.482-.509V41.083H102v1.384c0,.325-.136.509-.484.509s-.482-.184-.482-.509V42.1H100.1v6.391c0,.325-.134.509-.482.509S99.133,48.816,99.133,48.491ZM90.769,49a.51.51,0,0,1,0-1.018h1.42V42.1h-1.42a.509.509,0,0,1,0-1.017h3.8a.509.509,0,0,1,0,1.017h-1.42v5.881h1.42a.51.51,0,0,1,0,1.018ZM62.505,49V41.083h4.286a.509.509,0,0,1,0,1.017h-3.32v2.432h1.417a.509.509,0,0,1,0,1.017H63.471v2.431h3.32a.51.51,0,0,1,0,1.018Zm-5.041-.509V42.1h-.938v.366c0,.325-.136.509-.482.509s-.484-.184-.484-.509V41.083h4.769v1.384c0,.325-.135.509-.482.509s-.485-.184-.485-.509V42.1h-.935v6.391c0,.325-.133.509-.482.509S57.464,48.816,57.464,48.491ZM50.178,49a1.423,1.423,0,0,1-1.2-.52,1.668,1.668,0,0,1-.366-1.21V41.592c0-.327.134-.509.481-.509s.485.182.485.509v5.679c0,.569.163.711.6.711H51.82c.435,0,.6-.142.6-.711V41.592c0-.327.136-.509.484-.509s.482.182.482.509v5.679a1.669,1.669,0,0,1-.367,1.21,1.423,1.423,0,0,1-1.2.52Zm-6.607-.509V42.1h-.935v.366c0,.325-.136.509-.482.509s-.484-.184-.484-.509V41.083h4.768v1.384c0,.325-.134.509-.482.509s-.484-.184-.484-.509V42.1h-.935v6.391c0,.325-.134.509-.482.509S43.571,48.816,43.571,48.491ZM35.207,49a.51.51,0,0,1,0-1.018h1.419V42.1H35.207a.509.509,0,0,1,0-1.017h3.8a.509.509,0,0,1,0,1.017H37.593v5.881h1.419a.51.51,0,0,1,0,1.018Zm-5.525-.509V42.1h-.937v.366c0,.325-.134.509-.482.509s-.482-.184-.482-.509V41.083h4.768v1.384c0,.325-.136.509-.484.509s-.482-.184-.482-.509V42.1h-.935v6.391c0,.325-.136.509-.484.509S29.681,48.816,29.681,48.491ZM22.264,49a1.379,1.379,0,0,1-.976-.325,1.323,1.323,0,0,1-.453-.948c0-.325.173-.609.511-.609a.477.477,0,0,1,.453.52c0,.3.156.344.427.344h2.093c.079,0,.319.031.319-.121,0-.082-.134-.235-.173-.3l-3.31-4.489a1.251,1.251,0,0,1-.319-.833,1.153,1.153,0,0,1,.511-.979,1.251,1.251,0,0,1,.8-.182h2.045a1.329,1.329,0,0,1,.957.335,1.428,1.428,0,0,1,.452.968c0,.324-.155.59-.5.59a.441.441,0,0,1-.465-.479c0-.345-.163-.4-.462-.4H22.128c-.106,0-.329-.031-.329.143,0,.091.108.213.146.273l3.32,4.488a1.35,1.35,0,0,1,.338.845A1.112,1.112,0,0,1,24.388,49Zm-8.373,0V41.083h2.7c1.419,0,2.067.915,2.067,2.349a2.025,2.025,0,0,1-.638,1.608,2.276,2.276,0,0,1,.638,1.843A1.952,1.952,0,0,1,16.592,49Zm.963-1.018h1.738a.971.971,0,0,0,1.1-1.1c0-.854-.223-1.333-1.1-1.333H14.854Zm0-3.449h1.738a.972.972,0,0,0,1.1-1.1c0-.854-.223-1.332-1.1-1.332H14.854ZM8.509,49a1.426,1.426,0,0,1-1.2-.52,1.668,1.668,0,0,1-.366-1.21V41.592c0-.327.134-.509.482-.509s.482.182.482.509v5.679c0,.569.165.711.6.711H10.15c.435,0,.6-.142.6-.711V41.592c0-.327.136-.509.484-.509s.482.182.482.509v5.679a1.668,1.668,0,0,1-.366,1.21,1.425,1.425,0,0,1-1.2.52Zm-7.08,0a1.38,1.38,0,0,1-.976-.325A1.312,1.312,0,0,1,0,47.727c0-.325.173-.609.511-.609a.477.477,0,0,1,.453.52c0,.3.156.344.427.344H3.484c.076,0,.318.031.318-.121,0-.082-.134-.235-.172-.3L.319,43.076A1.251,1.251,0,0,1,0,42.244a1.153,1.153,0,0,1,.511-.979,1.247,1.247,0,0,1,.8-.182H3.359a1.316,1.316,0,0,1,.954.335,1.419,1.419,0,0,1,.456.968c0,.324-.156.59-.5.59A.441.441,0,0,1,3.8,42.5c0-.345-.163-.4-.462-.4H1.293c-.106,0-.329-.031-.329.143,0,.091.106.213.146.273l3.32,4.488a1.362,1.362,0,0,1,.339.845A1.113,1.113,0,0,1,3.55,49Zm76.222-3.327c-.4,0-.581-.163-.581-.622s.185-.619.581-.619H79.91c.4,0,.578.163.578.619s-.183.622-.578.622ZM33.15,33.566,53.894,18.69H33.744V14.872h.032C34.133,2.377,50.31,0,50.31,0H68.85L48.114,14.872H68.259V18.69h-.034c-.353,12.5-16.534,14.875-16.534,14.875Z" fill="#cfcfcf"/>
</svg>
