<svg xmlns="http://www.w3.org/2000/svg" xmlns:xlink="http://www.w3.org/1999/xlink" width="20.971" height="20.971" viewBox="0 0 20.971 20.971">
  <defs>
    <clipPath id="clip-path">
      <path id="Clip_1048" data-name="Clip 1048" d="M0,10.485A10.486,10.486,0,0,0,10.486,20.971h0A10.485,10.485,0,0,0,20.971,10.485h0A10.485,10.485,0,0,0,10.486,0h0A10.486,10.486,0,0,0,0,10.485Z" fill="none"/>
    </clipPath>
  </defs>
  <g id="us" clip-path="url(#clip-path)">
    <path id="Fill_1047" data-name="Fill 1047" d="M0,1.663H35.994V0H0Z" transform="translate(-7.511 -0.46)" fill="#b22234"/>
    <path id="Fill_1049" data-name="Fill 1049" d="M0,1.664H35.994V0H0Z" transform="translate(-7.511 19.766)" fill="#b22234"/>
    <path id="Fill_1050" data-name="Fill 1050" d="M0,1.768H35.994V0H0Z" transform="translate(-7.511 17.998)" fill="#fff"/>
    <path id="Fill_1051" data-name="Fill 1051" d="M0,1.716H35.994V0H0Z" transform="translate(-7.511 1.203)" fill="#fff"/>
    <path id="Fill_1052" data-name="Fill 1052" d="M0,1.636H35.994V0H0Z" transform="translate(-7.511 2.919)" fill="#b22234"/>
    <path id="Fill_1053" data-name="Fill 1053" d="M0,1.511H35.994V0H0Z" transform="translate(-7.511 16.487)" fill="#b22234"/>
    <path id="Fill_1054" data-name="Fill 1054" d="M0,1.794H35.994V0H0Z" transform="translate(-7.511 14.693)" fill="#fff"/>
    <path id="Fill_1055" data-name="Fill 1055" d="M0,1.792H35.994V0H0Z" transform="translate(-7.511 4.555)" fill="#fff"/>
    <path id="Fill_1056" data-name="Fill 1056" d="M0,1.716H35.994V0H0Z" transform="translate(-7.511 12.977)" fill="#b22234"/>
    <path id="Fill_1057" data-name="Fill 1057" d="M0,1.639H35.994V0H0Z" transform="translate(-7.511 6.348)" fill="#b22234"/>
    <path id="Fill_1058" data-name="Fill 1058" d="M0,1.691H35.994V0H0Z" transform="translate(-7.511 7.987)" fill="#fff"/>
    <path id="Fill_1059" data-name="Fill 1059" d="M0,1.715H35.994V0H0Z" transform="translate(-7.511 11.262)" fill="#fff"/>
    <path id="Fill_1060" data-name="Fill 1060" d="M0,1.583H35.994V0H0Z" transform="translate(-7.511 9.679)" fill="#b22234"/>
    <path id="Fill_1061" data-name="Fill 1061" d="M0,11.723H14.388V0H0Z" transform="translate(-7.511 -0.46)" fill="#3c3b6e"/>
    <path id="Fill_1062" data-name="Fill 1062" d="M0,.472H.42L.576,0,.708.472h.428L.794.79l.132.472L.576.945l-.342.317L.335.79Z" transform="translate(-7.082 -0.021)" fill="#fff"/>
    <path id="Fill_1063" data-name="Fill 1063" d="M0,.472H.42L.574,0,.707.472h.429L.792.79l.132.472L.574.945l-.341.317L.334.79Z" transform="translate(-4.603 -0.021)" fill="#fff"/>
    <path id="Fill_1064" data-name="Fill 1064" d="M0,.472H.42L.575,0,.708.472h.427L.792.79l.133.472L.575.945l-.342.317L.334.79Z" transform="translate(-2.127 -0.021)" fill="#fff"/>
    <path id="Fill_1065" data-name="Fill 1065" d="M0,.472H.42L.576,0,.707.472h.428L.793.79l.133.472L.576.945l-.342.317L.334.79Z" transform="translate(0.35 -0.021)" fill="#fff"/>
    <path id="Fill_1066" data-name="Fill 1066" d="M0,.472H.42L.575,0,.707.472h.428L.793.79l.131.472L.575.945l-.342.317L.333.79Z" transform="translate(2.828 -0.021)" fill="#fff"/>
    <path id="Fill_1067" data-name="Fill 1067" d="M0,.472H.42L.575,0,.708.472h.428L.793.79l.132.472L.575.945l-.342.317L.334.79Z" transform="translate(5.304 -0.021)" fill="#fff"/>
    <path id="Fill_1068" data-name="Fill 1068" d="M0,.472H.42L.576,0,.708.472h.428L.794.791l.132.472L.576.946l-.342.317.1-.472Z" transform="translate(-7.082 2.349)" fill="#fff"/>
    <path id="Fill_1069" data-name="Fill 1069" d="M0,.472H.42L.574,0,.707.472h.429L.792.791l.132.472L.574.946l-.341.317.1-.472Z" transform="translate(-4.603 2.349)" fill="#fff"/>
    <path id="Fill_1070" data-name="Fill 1070" d="M0,.472H.42L.575,0,.708.472h.427L.792.791l.133.472L.575.946l-.342.317.1-.472Z" transform="translate(-2.127 2.349)" fill="#fff"/>
    <path id="Fill_1071" data-name="Fill 1071" d="M0,.472H.42L.576,0,.707.472h.428L.793.791l.133.472L.576.946l-.342.317.1-.472Z" transform="translate(0.35 2.349)" fill="#fff"/>
    <path id="Fill_1072" data-name="Fill 1072" d="M0,.472H.42L.575,0,.707.472h.428L.793.791l.131.472L.575.946l-.342.317.1-.472Z" transform="translate(2.828 2.349)" fill="#fff"/>
    <path id="Fill_1073" data-name="Fill 1073" d="M0,.472H.42L.575,0,.708.472h.428L.793.791l.132.472L.575.946l-.342.317.1-.472Z" transform="translate(5.304 2.349)" fill="#fff"/>
    <path id="Fill_1074" data-name="Fill 1074" d="M0,.472H.42L.576,0,.708.472h.428L.794.79l.132.472L.576.945l-.342.317L.335.79Z" transform="translate(-7.082 4.643)" fill="#fff"/>
    <path id="Fill_1075" data-name="Fill 1075" d="M0,.472H.42L.574,0,.707.472h.429L.792.79l.132.472L.574.945l-.341.317L.334.79Z" transform="translate(-4.603 4.643)" fill="#fff"/>
    <path id="Fill_1076" data-name="Fill 1076" d="M0,.472H.42L.575,0,.708.472h.427L.792.79l.133.472L.575.945l-.342.317L.334.79Z" transform="translate(-2.127 4.643)" fill="#fff"/>
    <path id="Fill_1077" data-name="Fill 1077" d="M0,.472H.42L.576,0,.707.472h.428L.793.79l.133.472L.576.945l-.342.317L.334.79Z" transform="translate(0.35 4.643)" fill="#fff"/>
    <path id="Fill_1078" data-name="Fill 1078" d="M0,.472H.42L.575,0,.707.472h.428L.793.79l.131.472L.575.945l-.342.317L.333.79Z" transform="translate(2.828 4.643)" fill="#fff"/>
    <path id="Fill_1079" data-name="Fill 1079" d="M0,.472H.42L.575,0,.708.472h.428L.793.79l.132.472L.575.945l-.342.317L.334.79Z" transform="translate(5.304 4.643)" fill="#fff"/>
    <path id="Fill_1080" data-name="Fill 1080" d="M0,.472H.42L.575,0,.708.472h.428L.793.791l.133.472L.575.944l-.342.319.1-.472Z" transform="translate(-7.071 7.039)" fill="#fff"/>
    <path id="Fill_1081" data-name="Fill 1081" d="M0,.472H.42L.575,0,.707.472h.427L.793.791l.132.472L.575.944l-.342.319.1-.472Z" transform="translate(-4.593 7.039)" fill="#fff"/>
    <path id="Fill_1082" data-name="Fill 1082" d="M0,.472H.42L.575,0,.707.472h.428L.793.791l.132.472L.575.944l-.342.319.1-.472Z" transform="translate(-2.116 7.039)" fill="#fff"/>
    <path id="Fill_1083" data-name="Fill 1083" d="M0,.472H.419L.574,0,.707.472h.428L.792.791l.131.472L.574.944l-.341.319.1-.472Z" transform="translate(0.362 7.039)" fill="#fff"/>
    <path id="Fill_1084" data-name="Fill 1084" d="M0,.472H.42L.575,0,.707.472h.428L.792.791l.133.472L.575.944l-.342.319.1-.472Z" transform="translate(2.839 7.039)" fill="#fff"/>
    <path id="Fill_1085" data-name="Fill 1085" d="M0,.472H.42L.576,0,.708.472h.427L.793.791l.132.472L.576.944l-.342.319.1-.472Z" transform="translate(5.315 7.039)" fill="#fff"/>
    <path id="Fill_1086" data-name="Fill 1086" d="M0,.473H.42L.575,0,.708.473h.428L.793.79l.133.473L.575.946l-.342.317L.335.79Z" transform="translate(-7.071 9.358)" fill="#fff"/>
    <path id="Fill_1087" data-name="Fill 1087" d="M0,.473H.42L.575,0,.707.473h.427L.793.79l.132.473L.575.946l-.342.317L.334.79Z" transform="translate(-4.593 9.358)" fill="#fff"/>
    <path id="Fill_1088" data-name="Fill 1088" d="M0,.473H.42L.575,0,.707.473h.428L.793.79l.132.473L.575.946l-.342.317L.334.79Z" transform="translate(-2.116 9.358)" fill="#fff"/>
    <path id="Fill_1089" data-name="Fill 1089" d="M0,.473H.419L.574,0,.707.473h.428L.792.79l.131.473L.574.946l-.341.317L.334.79Z" transform="translate(0.362 9.358)" fill="#fff"/>
    <path id="Fill_1090" data-name="Fill 1090" d="M0,.473H.42L.575,0,.707.473h.428L.792.79l.133.473L.575.946l-.342.317L.334.79Z" transform="translate(2.839 9.358)" fill="#fff"/>
    <path id="Fill_1091" data-name="Fill 1091" d="M0,.473H.42L.576,0,.708.473h.427L.793.79l.132.473L.576.946l-.342.317L.334.79Z" transform="translate(5.315 9.358)" fill="#fff"/>
    <path id="Fill_1092" data-name="Fill 1092" d="M0,.474H.42L.575,0,.708.474h.427L.792.792l.133.472L.575.947l-.342.317.1-.472Z" transform="translate(-5.844 8.16)" fill="#fff"/>
    <path id="Fill_1093" data-name="Fill 1093" d="M0,.474H.42L.575,0,.707.474h.427L.793.792l.133.472L.575.947l-.342.317.1-.472Z" transform="translate(-3.367 8.16)" fill="#fff"/>
    <path id="Fill_1094" data-name="Fill 1094" d="M0,.474H.42L.575,0,.708.474h.428L.793.792l.131.472L.575.947l-.342.317.1-.472Z" transform="translate(-0.89 8.16)" fill="#fff"/>
    <path id="Fill_1095" data-name="Fill 1095" d="M0,.474H.42L.575,0,.708.474h.427L.793.792l.132.472L.575.947l-.342.317.1-.472Z" transform="translate(1.587 8.16)" fill="#fff"/>
    <path id="Fill_1096" data-name="Fill 1096" d="M0,.474H.42L.576,0,.707.474h.428L.794.792l.132.472L.576.947l-.342.317.1-.472Z" transform="translate(4.064 8.16)" fill="#fff"/>
    <path id="Fill_1097" data-name="Fill 1097" d="M0,.472H.42L.575,0,.708.472h.427L.792.79l.133.473L.575.946l-.342.317L.334.79Z" transform="translate(-5.844 5.842)" fill="#fff"/>
    <path id="Fill_1098" data-name="Fill 1098" d="M0,.472H.42L.575,0,.707.472h.427L.793.79l.133.473L.575.946l-.342.317L.334.79Z" transform="translate(-3.367 5.842)" fill="#fff"/>
    <path id="Fill_1099" data-name="Fill 1099" d="M0,.472H.42L.575,0,.708.472h.428L.793.79l.131.473L.575.946l-.342.317L.334.79Z" transform="translate(-0.89 5.842)" fill="#fff"/>
    <path id="Fill_1100" data-name="Fill 1100" d="M0,.472H.42L.575,0,.708.472h.427L.793.79l.132.473L.575.946l-.342.317L.334.79Z" transform="translate(1.587 5.842)" fill="#fff"/>
    <path id="Fill_1101" data-name="Fill 1101" d="M0,.472H.42L.576,0,.707.472h.428L.794.79l.132.473L.576.946l-.342.317L.334.79Z" transform="translate(4.064 5.842)" fill="#fff"/>
    <path id="Fill_1102" data-name="Fill 1102" d="M0,.474H.42L.575,0,.708.474h.427L.793.79l.131.472L.575.946l-.342.317L.334.79Z" transform="translate(-5.818 3.497)" fill="#fff"/>
    <path id="Fill_1103" data-name="Fill 1103" d="M0,.474H.42L.575,0,.707.474h.429L.792.79l.133.472L.575.946l-.342.317L.334.79Z" transform="translate(-3.341 3.497)" fill="#fff"/>
    <path id="Fill_1104" data-name="Fill 1104" d="M0,.474H.42L.575,0,.707.474h.428L.793.79l.131.472L.575.946l-.342.317L.334.79Z" transform="translate(-0.864 3.497)" fill="#fff"/>
    <path id="Fill_1105" data-name="Fill 1105" d="M0,.474H.42L.575,0,.707.474h.427L.794.79l.132.472L.575.946l-.342.317L.334.79Z" transform="translate(1.613 3.497)" fill="#fff"/>
    <path id="Fill_1106" data-name="Fill 1106" d="M0,.474H.42L.575,0,.708.474h.427L.793.79l.132.472L.575.946l-.342.317L.334.79Z" transform="translate(4.09 3.497)" fill="#fff"/>
    <path id="Fill_1107" data-name="Fill 1107" d="M0,.472H.42L.575,0,.708.472h.427L.793.79l.131.472L.575.945l-.342.318L.334.79Z" transform="translate(-5.818 1.179)" fill="#fff"/>
    <path id="Fill_1108" data-name="Fill 1108" d="M0,.472H.42L.575,0,.707.472h.429L.792.79l.133.472L.575.945l-.342.318L.334.79Z" transform="translate(-3.341 1.179)" fill="#fff"/>
    <path id="Fill_1109" data-name="Fill 1109" d="M0,.472H.42L.575,0,.707.472h.428L.793.79l.131.472L.575.945l-.342.318L.334.79Z" transform="translate(-0.864 1.179)" fill="#fff"/>
    <path id="Fill_1110" data-name="Fill 1110" d="M0,.472H.42L.575,0,.707.472h.427L.794.79l.132.472L.575.945l-.342.318L.334.79Z" transform="translate(1.613 1.179)" fill="#fff"/>
    <path id="Fill_1111" data-name="Fill 1111" d="M0,.472H.42L.575,0,.708.472h.427L.793.79l.132.472L.575.945l-.342.318L.334.79Z" transform="translate(4.09 1.179)" fill="#fff"/>
  </g>
</svg>
