<svg xmlns="http://www.w3.org/2000/svg" width="19.5" height="19.5" viewBox="0 0 19.5 19.5">
  <g id="user" transform="translate(-61.5 -0.5)">
    <path id="noun_avatar_2102861_2_" data-name="noun_avatar_2102861 (2)" d="M23.6,20.187l-4.309-1.769a.61.61,0,0,1-.384-.563V16.848a.572.572,0,0,1,.122-.358,8.482,8.482,0,0,0,1.766-5.162C20.789,8.141,18.764,6,15.75,6s-5.039,2.141-5.039,5.328a8.484,8.484,0,0,0,1.766,5.162.572.572,0,0,1,.122.358v1.007a.61.61,0,0,1-.384.563L7.9,20.187A3.048,3.048,0,0,0,6,23.011v1.677a.813.813,0,0,0,.813.813H24.688a.813.813,0,0,0,.813-.812V23.011A3.048,3.048,0,0,0,23.6,20.187Zm.28,3.688H7.625v-.864a1.429,1.429,0,0,1,.9-1.321l4.309-1.769a2.229,2.229,0,0,0,1.393-2.066V16.848a2.2,2.2,0,0,0-.48-1.375,6.906,6.906,0,0,1-1.408-4.145c0-2.731,1.764-3.7,3.414-3.7s3.414.973,3.414,3.7a6.906,6.906,0,0,1-1.408,4.145,2.2,2.2,0,0,0-.48,1.375v1.007a2.229,2.229,0,0,0,1.393,2.066l4.309,1.769a1.429,1.429,0,0,1,.9,1.321Z" transform="translate(55.5 -5.5)" fill="#464451"/>
  </g>
</svg>
