<svg xmlns="http://www.w3.org/2000/svg" width="23.484" height="23.485" viewBox="0 0 23.484 23.485">
  <g id="visa" transform="translate(-0.01)">
    <circle id="Ellipse_1" data-name="Ellipse 1" cx="11.742" cy="11.742" r="11.742" transform="translate(0.01 0.001)" fill="#f3f2f2"/>
    <g id="Group_6" data-name="Group 6" transform="translate(3.911 8.604)">
      <path id="Path_48" data-name="Path 48" d="M175.483,180.679l.9-5.306h1.455l-.9,5.306Z" transform="translate(-170.689 -175.287)" fill="#293688"/>
      <path id="Path_49" data-name="Path 49" d="M225.607,173.87a3.778,3.778,0,0,0-1.3-.223c-1.438,0-2.45.72-2.459,1.751-.008.762.723,1.187,1.275,1.441s.757.426.754.658c0,.356-.452.518-.871.518a3.069,3.069,0,0,1-1.369-.278l-.187-.085-.2,1.188a4.627,4.627,0,0,0,1.621.283c1.529,0,2.522-.711,2.533-1.813.006-.6-.382-1.063-1.221-1.442-.509-.245-.82-.409-.817-.658,0-.22.264-.456.833-.456a2.7,2.7,0,0,1,1.089.2l.13.061.2-1.15Z" transform="translate(-214.18 -173.647)" fill="#293688"/>
      <path id="Path_50" data-name="Path 50" d="M303.6,175.373a.723.723,0,0,0-.754.452l-2.156,4.854h1.54l.3-.813h1.84l.171.813h1.369l-1.2-5.306H303.6Zm-.661,3.431c.12-.306.579-1.483.579-1.483s.12-.307.193-.506l.1.457.337,1.532h-1.208Z" transform="translate(-289.691 -175.287)" fill="#293688"/>
      <path id="Path_51" data-name="Path 51" d="M80.88,179.01l-.128-.727a4.145,4.145,0,0,0-2.013-2.225l1.285,4.621h1.541l2.31-5.306h-1.54Z" transform="translate(-78.739 -175.287)" fill="#293688"/>
    </g>
    <g id="Group_7" data-name="Group 7" transform="translate(1.332 8.69)">
      <path id="Path_52" data-name="Path 52" d="M46.823,175.373v.086a4.967,4.967,0,0,1,3.594,2.824l-.527-2.457a.625.625,0,0,0-.671-.453Z" transform="translate(-45.826 -175.373)" fill="#f7981d"/>
      <path id="Path_53" data-name="Path 53" d="M37.115,352.562a11.738,11.738,0,0,0,10.419-6.329H26.7A11.738,11.738,0,0,0,37.115,352.562Z" transform="translate(-26.696 -337.767)" fill="#f7981d"/>
    </g>
    <path id="Path_54" data-name="Path 54" d="M38.875,0A11.74,11.74,0,0,0,28.548,6.149H49.2A11.741,11.741,0,0,0,38.875,0Z" transform="translate(-27.124)" fill="#293688"/>
  </g>
</svg>
