<svg xmlns="http://www.w3.org/2000/svg" width="71.408" height="48.993" viewBox="0 0 71.408 48.993">
  <path id="wanagram" d="M907.737-3914.509a2.489,2.489,0,0,1-.353-1.445v-1.9a2.456,2.456,0,0,1,.364-1.466,1.453,1.453,0,0,1,1.253-.494,1.529,1.529,0,0,1,1.2.417,1.83,1.83,0,0,1,.364,1.236v.294h-.987v-.322a2.453,2.453,0,0,0-.039-.49.471.471,0,0,0-.161-.28.584.584,0,0,0-.368-.1.527.527,0,0,0-.385.125.617.617,0,0,0-.164.322,2.734,2.734,0,0,0-.039.511v2.374a1.558,1.558,0,0,0,.129.721.5.5,0,0,0,.487.238.5.5,0,0,0,.486-.251,1.634,1.634,0,0,0,.136-.757v-.532h-.608v-.651h1.54v2.877h-.672l-.07-.553a.96.96,0,0,1-.959.63A1.319,1.319,0,0,1,907.737-3914.509Zm14.4.423-.083-3.94-.805,3.94h-.623l-.819-3.954-.077,3.954h-.777l.1-5.669h1.071l.805,3.927.833-3.927H922.8l.105,5.669Zm-4.7,0-.224-1.308h-.987l-.232,1.308h-.973l1.134-5.669h1.106l1.134,5.669Zm-1.106-1.966h.77l-.385-2.381Zm-2.75,1.966-.679-2.6h-.49v2.6h-1.029v-5.669h1.365a2.177,2.177,0,0,1,1.337.339,1.384,1.384,0,0,1,.44,1.165,2.094,2.094,0,0,1-.157.879.963.963,0,0,1-.543.494l.791,2.792Zm-1.169-3.24h.329a.816.816,0,0,0,.626-.2.969.969,0,0,0,.186-.665,1.028,1.028,0,0,0-.165-.651.726.726,0,0,0-.591-.2h-.385Zm-6.413,3.24-.224-1.308h-.987l-.231,1.308h-.973l1.134-5.669h1.105l1.134,5.669Zm-1.105-1.966h.769l-.385-2.381Zm-2.57,1.966-1.386-3.388v3.388h-.882v-5.669h.721l1.379,3.234v-3.234h.855v5.669Zm-3.793,0-.225-1.308h-.987l-.231,1.308h-.973l1.134-5.669h1.106l1.133,5.669Zm-1.106-1.966h.77l-.386-2.381Zm-3.129,1.966-.629-3.8-.623,3.8h-.861l-.8-5.669h.861l.469,3.674.587-3.66h.7l.608,3.66.462-3.674h.854l-.791,5.669Zm19.613-21.867v-6.756l7.148-7.093v20.942Zm-20.9,0v-6.756l7.148-7.093v20.942ZM872-3940.01l21.018-20.854,7.148,7.094-21.017,20.853Zm52.983-11.019,9.827-9.835,7.178,7.062-16.942,16.958Zm-20.895,0,9.826-9.835,7.179,7.062-16.943,16.958Z" transform="translate(-871.29 3961.568)" fill="#cfcfcf" stroke="rgba(0,0,0,0)" stroke-miterlimit="10" stroke-width="1"/>
</svg>
